<svg xmlns="http://www.w3.org/2000/svg" width="263.782" height="228.92"><defs><style>.cls-2{fill:#004e7d}.cls-3{fill:#1a2e35}.cls-4{fill:#e1e1e1}.cls-5{fill:#fafafa}.cls-6{fill:#ececec}.cls-7{fill:#f05b5b}.cls-8{opacity:.2}.cls-9{fill:#fbc8b4}.cls-10{fill:#bf654e}.cls-12{fill:#ff4f5b}.cls-13{fill:#375a64}.cls-14{fill:#f5f5f5}.cls-15{fill:#72bf44}.cls-16{fill:#5da13e}.cls-18{fill:#00a1a4}.cls-20{fill:#19304c}.cls-21{fill:#005a8e}.cls-24{fill:#014263}</style></defs><g id="Group_12916" transform="translate(-444.17 -460)"><g id="_01" transform="translate(444.171 460)"><path id="Path_771" fill="#fcead4" d="M39.7 37.625c-.025.12-.107.985-.351 2.695-1.07 7.495-5.749 31.98-24.362 49.63-21.692 20.565-24.32 55.511 22.6 73.947s117.386 22.679 163.013-29.71a146.938 146.938 0 0 0 11.028-14.269c13.525-20.029 19.883-42.309 7.636-62.286-15.714-25.632-44.942-8.68-65.345-21.7-25.263-16.124-51.874-45.282-87.97-32.986C45.951 9.758 40.489 33.79 39.7 37.625z" transform="rotate(165.02 120.654 102.61)"/><g id="Layer_2" transform="translate(14.884 60.105)"><g id="Layer_1"><path id="Path_1112" d="M158.155 35.087c-.126-2.614 2.717-14.233 3.048-16.418-2.866-1.138-8.771-2.032-11.27 5.28a33 33 0 0 0-.549 5.684c-.176 12.736 2.616 25.677 5.608 34.987a33.827 33.827 0 0 0 8.948-4.276 90.409 90.409 0 0 1-5.785-25.257z" class="cls-2" transform="translate(-53.515 -6.415)"/><path id="Path_1113" d="M233.742 157.915c0 .049-52.329.088-116.865.088C52.318 158 0 157.963 0 157.915s52.318-.088 116.877-.088c64.536 0 116.865.039 116.865.088z" class="cls-3" transform="translate(0 -56.542)"/><path id="Path_1114" d="m131.39 163.673-25.154 5.582L134.163 171l20.948-6.2h-2.079z" class="cls-4" transform="translate(-38.059 -58.636)"/><path id="Path_1115" d="m132.137 161.505-22.937 5.509v1.131l27.508.8 17.01-4.519.057-1.793z" class="cls-5" transform="translate(-39.123 -57.86)"/><path id="Path_1116" d="M109.2 171.221v-1.131l27.232.565.277 1.363z" class="cls-6" transform="translate(-39.123 -60.935)"/><path id="Path_1117" d="m151.638 168.208 17.344-4.949-.057 1.793-17.01 4.519z" class="cls-4" transform="translate(-54.325 -58.488)"/><path id="Path_1118" d="M132.094 161.5s.133 0 .393.009l1.149.049 4.377.207 15.727.787h.073v.073l-.055 1.793v.057l-.055.015-17.007 4.529h-.025l-5.58-.161-21.928-.646h-.076v-1.268l.059-.014 16.633-3.963 4.665-1.1 1.23-.284.316-.07c.071-.015.107-.019.107-.019s-.035.013-.106.032l-.314.082-1.227.307-4.658 1.141-16.609 4.023.059-.075v1.131l-.076-.078 21.928.625 5.581.162h-.025l17.013-4.508-.057.072.059-1.793.071.077-15.716-.849-4.377-.248-1.151-.071c-.264-.004-.398-.024-.398-.024z" class="cls-3" transform="translate(-39.079 -57.86)"/><path id="Path_1119" d="M140.037 169.129a.785.785 0 0 1-.192.012h-.545l-2.015-.03-6.651-.111c-2.6-.044-4.948-.1-6.649-.161-.851-.03-1.539-.06-2.014-.087l-.547-.035a.1.1 0 1 1 0-.036h.548l2.015.03 6.649.109c2.6.044 4.947.1 6.648.161.851.03 1.539.06 2.014.087l.547.035a.786.786 0 0 1 .192.026z" class="cls-3" transform="translate(-43.432 -60.43)"/><path id="Path_1120" d="M145.85 168.02a.787.787 0 0 1-.192.012h-.548l-2.015-.03-6.648-.109c-2.6-.044-4.948-.1-6.649-.161-.851-.03-1.539-.06-2.014-.086l-.547-.035a.1.1 0 1 1 0-.036h.548l2.015.03 6.649.109c2.6.044 4.947.1 6.648.161.851.03 1.539.06 2.014.087l.547.035a.781.781 0 0 1 .192.023z" class="cls-3" transform="translate(-45.515 -60.033)"/><path id="Path_1121" d="M150.083 166.778a.783.783 0 0 1-.192.012h-.548l-2.015-.03-6.648-.109c-2.6-.044-4.948-.1-6.649-.161-.851-.03-1.539-.06-2.014-.087l-.547-.035a.1.1 0 1 1 0-.036h.548l2.015.03 6.649.109c2.6.044 4.947.1 6.648.161.851.03 1.539.06 2.014.087l.547.035a.785.785 0 0 1 .19.024z" class="cls-3" transform="translate(-47.031 -59.588)"/><path id="Path_1122" d="M154.429 165.8a.785.785 0 0 1-.192.012h-.548l-2.015-.03-6.648-.109c-2.6-.044-4.948-.1-6.649-.161-.851-.03-1.539-.06-2.014-.087l-.547-.035a.1.1 0 1 1 0-.036h.548l2.015.03 6.649.109c2.6.044 4.947.1 6.648.161.851.03 1.539.06 2.014.087l.547.035a.789.789 0 0 1 .19.024z" class="cls-3" transform="translate(-48.588 -59.237)"/><path id="Path_1123" d="M187.19 69.472s13.267-3.242 19.51 1.57c4.98 3.839 8.584 10.145 8.584 10.145l-10.849 13.835 6.051 30.658H163.6l-7.612-20.5-11.958-13.792s10.991-12.546 14.265-14.1 28.895-7.816 28.895-7.816z" class="cls-7" transform="translate(-51.599 -24.506)"/><path id="Path_1125" d="M132.893 101.667s-14.255 16.4-19.917 21.089-4.6 13.827-1.471 15.04c1.222.473 19.152-.2 19.152-.2l12.759-20.5z" class="cls-7" transform="translate(-39.028 -36.423)"/><g id="Group_1164" class="cls-8" transform="translate(144.64 68.379)"><path id="Path_1126" d="M225.389 129.264c-.162-3.209 4.568-5.474 6.9-4.891-.445-4.849-1.024-13.142.324-17.821 1.49 6.924 2.227 14.256 4.824 20.845" transform="translate(-225.385 -106.551)"/></g><path id="Path_1127" d="m232.889 102.408 4.5 18.912s-7.508-4.642-11.937 1.526l3.385 10.063 30.393.107s2.321-9.1-.434-16.407c-1.155-3.063-14.341-28.285-14.341-28.285l-9.482 3.291z" class="cls-7" transform="translate(-80.768 -31.642)"/><path id="Path_1128" d="M228.761 150.35a1.09 1.09 0 0 1-.08-.192l-.2-.564-.738-2.114-2.481-7.278-.013-.038.021-.033a6.59 6.59 0 0 1 1.161-1.406 5.924 5.924 0 0 1 1.615-1.03 8.489 8.489 0 0 1 2.85-.657 12.648 12.648 0 0 1 1.392-.019 6.711 6.711 0 0 1 1.33.157 7.57 7.57 0 0 1 4.016 2.155 9.3 9.3 0 0 1 1.964 2.39 3.109 3.109 0 0 1 .355 1.079 5.577 5.577 0 0 0-.416-1.047 9.647 9.647 0 0 0-1.99-2.332 7.506 7.506 0 0 0-3.963-2.086 6.583 6.583 0 0 0-1.3-.147 12.65 12.65 0 0 0-1.373.024 8.376 8.376 0 0 0-2.791.645 5.778 5.778 0 0 0-1.569 1 6.459 6.459 0 0 0-1.131 1.363l.008-.071 2.422 7.3.69 2.131.178.573a1.082 1.082 0 0 1 .043.197z" class="cls-3" transform="translate(-80.695 -49.084)"/><path id="Path_1129" d="M249.382 139.833c-.025.023-.275-.265-.763-.622a5.138 5.138 0 0 0-2.148-.9 4.9 4.9 0 0 0-1.287-.026 4.388 4.388 0 0 0-1.021.257c-.562.221-.866.454-.886.424-.007-.01.065-.071.2-.175a3.183 3.183 0 0 1 .635-.365 4.047 4.047 0 0 1 1.047-.3 4.688 4.688 0 0 1 1.337.013 4.792 4.792 0 0 1 2.2.978 3.758 3.758 0 0 1 .528.506c.111.126.168.201.158.21z" class="cls-3" transform="translate(-87.154 -49.467)"/><path id="Path_1130" d="M241.307 127.184a1.043 1.043 0 0 1-.079-.208l-.193-.607c-.165-.528-.393-1.294-.665-2.244-.545-1.9-1.257-4.537-1.963-7.47s-1.273-5.606-1.652-7.546c-.19-.97-.336-1.756-.429-2.3l-.1-.628a1.046 1.046 0 0 1-.024-.221 1.058 1.058 0 0 1 .059.214l.137.622.484 2.289c.41 1.933 1 4.6 1.7 7.53s1.4 5.57 1.912 7.478l.611 2.259.161.616a1.064 1.064 0 0 1 .045.218z" class="cls-3" transform="translate(-84.619 -37.96)"/><path id="Path_1131" d="M237.191 102.2a12.948 12.948 0 0 1-1.147 2.795 12.951 12.951 0 0 1 1.147-2.795z" class="cls-3" transform="translate(-84.564 -36.612)"/><g id="Group_1165" class="cls-8" transform="translate(99.115 70.765)"><path id="Path_1132" d="M156.41 110.27c-.655 5.773-1.31 12.6-1.964 18.377l5.272-8.472" transform="translate(-154.446 -110.27)"/></g><path id="Path_1133" d="M157.088 109.389c.046-.016 1.543 4.091 3.344 9.172s3.224 9.216 3.178 9.232-1.543-4.09-3.344-9.173-3.224-9.214-3.178-9.231z" class="cls-3" transform="translate(-56.277 -39.189)"/><path id="Path_1136" d="M185.621 113.12a.707.707 0 0 1 .056.045l.153.13.58.5 2.139 1.84.021.018v.028l-.443 3.832-.106-.069 3.315-1.973.036-.022.038.018 3.5 1.616-.121.1-.843-3.763c.009-.036-.022.079.021-.08l.005-.006.011-.011.021-.023.042-.045.084-.091.168-.181.334-.36.662-.712 1.294-1.392.055.145-3.839-.368h-.043l-.021-.037-1.869-3.374.127-.006-1.548 3.533-.011.026h-.027l-2.777.512-.75.136-.2.035a.722.722 0 0 1-.071.011.338.338 0 0 1 .057-.015l.183-.04.729-.155 2.8-.587-.038.031 1.515-3.547.056-.132.071.125 1.887 3.364-.063-.041 3.841.357.175.016-.119.129-1.292 1.394-.661.713-.334.36-.168.181-.084.091-.042.045-.021.023-.011.011-.005.006c.043-.158.012-.043.022-.078l.84 3.764.038.172-.159-.074-3.5-1.627h.075l-3.325 1.955-.124.073.018-.142.478-3.827.017.046-2.126-1.919-.552-.5-.139-.127a.349.349 0 0 1-.043-.042z" class="cls-5" transform="translate(-66.499 -38.933)"/><path id="Path_1137" d="M206.543 93.3a.7.7 0 0 1 .057.045l.153.13.58.5 2.139 1.84.021.018v.028l-.443 3.832-.106-.069 3.315-1.973.036-.022.039.018 3.5 1.616-.121.1-.843-3.763c.01-.036-.022.079.021-.08l.005-.006.011-.011.021-.023.042-.045.084-.091.168-.181.334-.36.662-.712 1.293-1.392.055.145-3.84-.368h-.043l-.021-.037-1.862-3.395.126-.006-1.548 3.533-.011.026-.027.005-2.777.512-.75.136-.2.035a.722.722 0 0 1-.071.011.339.339 0 0 1 .057-.015l.183-.04.729-.155 2.8-.587-.038.031 1.515-3.547.056-.132.071.125 1.887 3.364-.063-.041 3.841.357.175.016-.119.129-1.292 1.394-.661.713-.334.36-.168.181-.084.091-.042.045-.021.023-.011.011-.005.006c.043-.158.012-.043.022-.078l.84 3.764.038.172-.159-.074-3.5-1.627h.075l-3.325 1.955-.124.073.018-.142.478-3.828.018.046-2.126-1.919-.552-.5-.139-.127a.342.342 0 0 1-.043-.042z" class="cls-5" transform="translate(-73.995 -31.831)"/><path id="Path_1138" d="M206.543 142.036a.708.708 0 0 1 .057.045l.153.13.58.5 2.139 1.84.021.018v.028l-.443 3.832-.106-.069 3.315-1.973.036-.022.039.018 3.5 1.616-.121.1-.843-3.763c.01-.036-.022.079.021-.08l.005-.006.011-.011.021-.023.042-.045.084-.091.168-.181.334-.36.662-.713 1.293-1.392.055.145-3.84-.368h-.043l-.021-.037-1.869-3.374.126-.006-1.548 3.533-.011.026h-.027l-2.777.512-.75.136-.2.035a.71.71 0 0 1-.071.011.349.349 0 0 1 .057-.015l.183-.04.729-.155 2.8-.587-.038.031 1.515-3.547.056-.132.071.125 1.887 3.364-.063-.041 3.841.357.175.016-.119.129-1.292 1.394-.661.713-.334.36-.168.181-.084.091-.042.045-.021.023-.011.011-.005.006c.043-.158.012-.043.022-.078l.84 3.764.038.172-.159-.074-3.5-1.627h.075l-3.325 1.955-.124.073.018-.142.478-3.827.018.046-2.126-1.919-.552-.5-.139-.127a.348.348 0 0 1-.043-.042z" class="cls-5" transform="translate(-73.995 -49.293)"/><path id="Path_1144" d="M173.768 9.157c1.612-1.588 1.468-7.934.034-6.184-7.5 9.151-4.346-.3-6.419-.513-3.257-.341-6.091.171-7.826 2.949A9.628 9.628 0 0 1 155.9 8.53a21.769 21.769 0 0 1-3.9 2.352c-1.965.7-2.247 2.327-2.905 4.306s-1.786 4.3-1.589 6.377c.181 1.906.475 3.976-.521 5.61-.972 1.594-2.9 2.3-4.258 3.58a6.73 6.73 0 0 0-.017 9.408c.813.769 1.88 1.406 2.188 2.483.281.983-.173 2.01-.269 3.028a4.543 4.543 0 0 0 4.988 4.7c1.313-.205 2.593-1.01 3.881-.681s2.009 1.627 2.975 2.526a5.681 5.681 0 0 0 7.148.289 5.038 5.038 0 0 1 2.588-1.269 26.533 26.533 0 0 1 3.26.016c1.419-.03 2.5-1.313 3.064-2.614a19.414 19.414 0 0 1 1.684-3.9c1.1-1.5 2.941-2.21 4.532-3.172a14.381 14.381 0 0 0 3.693-21.4" class="cls-3" transform="translate(-50.442 -.848)"/><path id="Path_1145" d="M186.367 15.041a3.054 3.054 0 0 1 3.319 2.459l6.914 40.7c.952 4.778-5.432 8.954-10.555 9.934-5.174.99-5.885-1.5-6.926-6.015-1.739-7.545-2.343-10.388-2.336-10.345 0 0-6.739.308-9.9-7.9-1.571-4.08-2.836-11.05-3.687-16.786-.765-5.163 1.277-12.134 6.468-12.679z" class="cls-9" transform="translate(-58.409 -5.164)"/><path id="Path_1146" d="M168.03 41.417a1.113 1.113 0 0 0 1.285.875 1.065 1.065 0 0 0 .913-1.221 1.114 1.114 0 0 0-1.283-.876 1.066 1.066 0 0 0-.914 1.222z" class="cls-3" transform="translate(-60.193 -14.394)"/><path id="Path_1147" d="M166.8 39.469c.165.113.86-.673 2.033-.92 1.168-.263 2.156.156 2.253-.014.049-.077-.143-.3-.576-.5a3.056 3.056 0 0 0-1.841-.164 2.934 2.934 0 0 0-1.58.91c-.301.355-.369.638-.289.688z" class="cls-3" transform="translate(-59.746 -13.542)"/><path id="Path_1148" d="M186.225 37.495a1.113 1.113 0 0 0 1.284.875 1.065 1.065 0 0 0 .913-1.221 1.114 1.114 0 0 0-1.284-.876 1.065 1.065 0 0 0-.914 1.222z" class="cls-3" transform="translate(-66.711 -12.989)"/><path id="Path_1149" d="M184.825 35.384c.166.113.861-.674 2.033-.92 1.168-.264 2.156.156 2.253-.015.049-.077-.142-.3-.576-.5a3.055 3.055 0 0 0-1.841-.164 2.937 2.937 0 0 0-1.58.91c-.302.357-.37.64-.289.689z" class="cls-3" transform="translate(-66.203 -12.079)"/><path id="Path_1150" d="M179.317 45.241a7.936 7.936 0 0 0-1.977.063c-.306.033-.6.034-.7-.159a1.559 1.559 0 0 1 .011-.93l.4-2.467a40.054 40.054 0 0 0 .716-6.384 40.114 40.114 0 0 0-1.229 6.312l-.359 2.473a1.771 1.771 0 0 0 .1 1.208.768.768 0 0 0 .586.333 2.071 2.071 0 0 0 .523-.038 7.787 7.787 0 0 0 1.929-.411z" class="cls-3" transform="translate(-63.095 -12.669)"/><path id="Path_1151" d="M184.45 69.588a22.089 22.089 0 0 0 10.726-5.459s-1.591 6.606-10.259 7.624z" class="cls-10" transform="translate(-66.08 -22.974)"/><g id="Group_1166" opacity=".42" transform="translate(117.249 34.089)"><path id="Path_1152" d="M182.774 54.321a2.159 2.159 0 0 1 1.726-1.188 1.97 1.97 0 0 1 1.484.43 1.249 1.249 0 0 1 .391 1.377 1.449 1.449 0 0 1-1.454.716 4.537 4.537 0 0 1-1.689-.575 1.326 1.326 0 0 1-.409-.275.4.4 0 0 1-.091-.436" class="cls-12" transform="translate(-182.703 -53.119)"/></g><path id="Path_1153" d="M185.031 50.872c-.193.03.076 1.3-.82 2.437s-2.28 1.284-2.252 1.464c0 .083.355.183.931.076a3.239 3.239 0 0 0 1.9-1.15 2.82 2.82 0 0 0 .606-2.026c-.071-.542-.28-.827-.365-.801z" class="cls-3" transform="translate(-65.187 -18.225)"/><path id="Path_1154" d="M183.328 31.957c.184.294 1.322-.107 2.732-.234 1.408-.156 2.6.01 2.724-.314.052-.154-.2-.413-.719-.625a4.766 4.766 0 0 0-4.157.418c-.461.31-.662.615-.58.755z" class="cls-3" transform="translate(-65.671 -10.923)"/><path id="Path_1155" d="M166.329 36.151c.263.222 1.011-.226 1.979-.446.96-.254 1.831-.2 1.961-.522.054-.153-.132-.392-.545-.567a2.938 2.938 0 0 0-3.175.78c-.284.346-.338.644-.22.755z" class="cls-3" transform="translate(-59.567 -12.337)"/><path id="Path_1156" d="M189.114 11.446a8.433 8.433 0 0 1 6.456-2.71 5.845 5.845 0 0 1 5.295 4.088c.373 1.489.069 3.223 1.026 4.431.911 1.15.425 1.873 1.732 2.567 2.054 1.09 2.577 3.777 1.925 5.99-.56 1.9.488 2.915.738 4.871.236 1.84 2.088 3.037 2.842 4.734a5.833 5.833 0 0 1-1.091 5.77 17.918 17.918 0 0 1-4.856 3.881 8.69 8.69 0 0 1-4.5 1.738 4.879 4.879 0 0 1-4.35-3.228 6.638 6.638 0 0 1 .663-5.5c.831-1.436 2.14-2.785 2.061-4.427-.124-2.556-3.5-3.95-3.859-6.484-.184-1.306.493-2.567 1.02-3.787s.9-2.693.175-3.8c-.941-1.439-3.091-1.4-4.585-2.286a3.9 3.9 0 0 1-1.874-3.635 4.02 4.02 0 0 1 2.512-3.287" class="cls-3" transform="translate(-67.323 -3.128)"/><path id="Path_1157" d="M177.627 8.831a5.94 5.94 0 0 1-5.615 7.211c-1.348.043-2.91-.306-3.884.626-1.024.981-.689 2.771-1.54 3.906-1.216 1.621-3.858.916-5.637 1.889-1.373.751-1.987 2.351-2.707 3.741s-1.938 2.826-3.5 2.707a17.617 17.617 0 0 1-.262-4.039 5.922 5.922 0 0 1 1.535-3.668 21.927 21.927 0 0 0 1.641-1.5c1.006-1.246.919-3.017 1.375-4.552a6.511 6.511 0 0 1 4.155-4.262c1.633-.531 3.462-.4 5-1.162 1.138-.563 2.02-1.57 3.189-2.065 2.277-.963 4.85.265 6.937 1.59" class="cls-3" transform="translate(-55.336 -2.624)"/><path id="Path_1158" d="M189.747 52.434c-.034.035-.136-.011-.227-.1s-.137-.192-.1-.226.136.011.227.1.135.192.1.226z" class="cls-3" transform="translate(-67.856 -18.663)"/><path id="Path_1159" d="M145.42 47.69a.825.825 0 0 1 .141 0l.412.026a10.646 10.646 0 0 0 1.581-.064 9.822 9.822 0 0 0 2.417-.621 9.542 9.542 0 0 0 2.809-1.717 9.348 9.348 0 0 0 2.33-3.219 9.652 9.652 0 0 0 .806-4.476 20.3 20.3 0 0 0-1.267-4.92 16.077 16.077 0 0 1-.675-2.633 7.916 7.916 0 0 1 .074-2.8 4.7 4.7 0 0 1 1.327-2.462 4.232 4.232 0 0 1 1.161-.758 7.759 7.759 0 0 1 1.29-.417c.867-.211 1.731-.337 2.532-.609a4.874 4.874 0 0 0 1.116-.541 3.636 3.636 0 0 0 .864-.839 6.779 6.779 0 0 0 .966-2.134c.221-.737.4-1.469.633-2.159a6.8 6.8 0 0 1 2.315-3.278 6.569 6.569 0 0 1 3.049-1.315 6.848 6.848 0 0 1 2.512.094 6.571 6.571 0 0 1 1.5.539 3.738 3.738 0 0 1 .48.278c-.005.01-.167-.093-.5-.246a6.951 6.951 0 0 0-1.5-.5 6.867 6.867 0 0 0-2.482-.063 6.5 6.5 0 0 0-2.987 1.316 6.688 6.688 0 0 0-2.253 3.227c-.232.683-.4 1.412-.623 2.156a6.913 6.913 0 0 1-.984 2.187 3.8 3.8 0 0 1-.9.879 5.034 5.034 0 0 1-1.155.563c-.82.279-1.689.408-2.545.617a7.606 7.606 0 0 0-1.261.409 4.059 4.059 0 0 0-1.112.727 4.526 4.526 0 0 0-1.274 2.371 7.758 7.758 0 0 0-.073 2.739 15.981 15.981 0 0 0 .665 2.6 20.322 20.322 0 0 1 1.265 4.963 9.774 9.774 0 0 1-.834 4.547 9.441 9.441 0 0 1-2.381 3.253 9.571 9.571 0 0 1-2.856 1.715 9.363 9.363 0 0 1-4.036.629l-.412-.044a.829.829 0 0 1-.14-.022z" class="cls-13" transform="translate(-52.097 -4.543)"/><path id="Path_1160" d="M171.224 3.79s.036-.044.117-.113a4.5 4.5 0 0 1 .365-.292 7.087 7.087 0 0 1 1.5-.836 7.827 7.827 0 0 1 2.485-.577 7.415 7.415 0 0 1 5.738 2.083 7.828 7.828 0 0 1 1.536 2.036 7.09 7.09 0 0 1 .616 1.6 4.522 4.522 0 0 1 .093.458.568.568 0 0 1 .017.162 10.042 10.042 0 0 0-.836-2.165 7.987 7.987 0 0 0-1.538-1.977 7.4 7.4 0 0 0-5.617-2.034 7.987 7.987 0 0 0-2.448.53 10.039 10.039 0 0 0-2.031 1.125z" class="cls-13" transform="translate(-61.341 -.699)"/><path id="Path_1161" d="M203 46.756a.569.569 0 0 1 .1-.055l.306-.145a9.53 9.53 0 0 0 1.122-.652 9.31 9.31 0 0 0 3.1-3.547 9.753 9.753 0 0 0 .574-1.465 9.091 9.091 0 0 0-2.347-8.878c-.513-.51-1.081-.985-1.628-1.506a7.486 7.486 0 0 1-1.453-1.787 10.108 10.108 0 0 1-.994-4.4c-.039-.728-.054-1.444-.1-2.139a13.8 13.8 0 0 0-.282-2.02 7.586 7.586 0 0 0-.647-1.816 4.658 4.658 0 0 0-1.12-1.412 6.969 6.969 0 0 0-2.98-1.283 14.508 14.508 0 0 1-2.628-.759 5.056 5.056 0 0 1-1.7-1.173 2.86 2.86 0 0 1-.641-1.134 1.768 1.768 0 0 1-.067-.334.558.558 0 0 1-.01-.116c.014 0 .021.157.111.439a2.922 2.922 0 0 0 .657 1.1 5.055 5.055 0 0 0 1.687 1.129 14.713 14.713 0 0 0 2.617.728 7.057 7.057 0 0 1 3.045 1.292 4.8 4.8 0 0 1 1.163 1.452 7.714 7.714 0 0 1 .669 1.853 13.876 13.876 0 0 1 .291 2.044c.05.7.066 1.416.106 2.142a9.982 9.982 0 0 0 .975 4.318 15.876 15.876 0 0 0 3.048 3.256 9 9 0 0 1 2.218 3.562 9.342 9.342 0 0 1 .46 3.774 9.242 9.242 0 0 1-.321 1.7 9.8 9.8 0 0 1-.594 1.483 9.232 9.232 0 0 1-3.177 3.549 8.453 8.453 0 0 1-1.145.627l-.314.129a.557.557 0 0 1-.109.039z" class="cls-13" transform="translate(-68.647 -4.349)"/><path id="Path_1162" d="m121.132 124.906 2.463-1.717 13.032 22.711.871 3.831-3.784-1.9z" class="cls-13" transform="translate(-43.396 -44.133)"/><path id="Path_1163" d="m144.734 163.191.918-.713.3 1.325z" class="cls-3" transform="translate(-51.851 -58.208)"/><path id="Path_1164" d="M143.643 158.5c-.008.025-.137-.031-.349-.035a.39.39 0 0 0-.312.134.7.7 0 0 0-.127.434v.108l-.105-.027a.778.778 0 0 0-.655.081.975.975 0 0 0-.347.552l-.018.072-.068-.005a1.054 1.054 0 0 0-.482.061.669.669 0 0 0-.291.235c-.123.181-.139.322-.16.318s-.04-.149.074-.371a.727.727 0 0 1 .318-.308 1.127 1.127 0 0 1 .552-.1l-.086.067a1.093 1.093 0 0 1 .407-.666.918.918 0 0 1 .8-.1l-.1.081a.8.8 0 0 1 .188-.53.486.486 0 0 1 .419-.142.563.563 0 0 1 .342.141z" class="cls-3" transform="translate(-50.413 -56.732)"/><path id="Path_1165" d="M121.062 124.663a1.465 1.465 0 0 1 .494-1.79 1.417 1.417 0 0 1 1.969.073z" class="cls-3" transform="translate(-43.326 -43.89)"/><path id="Path_1166" d="m121.937 123.833 13 23.3a.759.759 0 0 1 1.105-.7l-13.453-23.243z" class="cls-3" transform="translate(-43.684 -44.133)"/><path id="Path_1167" d="M137.979 140.077a4.988 4.988 0 0 0-1.829-.588 1.7 1.7 0 0 0-1.63.821 1.642 1.642 0 0 0-.018 1.259 4.194 4.194 0 0 0 .661 1.105 4.847 4.847 0 0 0 1.34 1.305 1.752 1.752 0 0 0 2.746-1.772 3.389 3.389 0 0 0-1.271-2.13" class="cls-9" transform="translate(-48.144 -49.969)"/><path id="Path_1168" d="M122.454 135.517a2.28 2.28 0 0 0-2.749 1.269s-2.96 1.692-2.96 4.37a6.041 6.041 0 0 0-1.2 3.454v1.006a3.727 3.727 0 0 0 1.565 3.032 9.327 9.327 0 0 0 2.523 1.389 5.87 5.87 0 0 0 1.739.184.831.831 0 0 0 .68-1.271l-.278-.361a5.724 5.724 0 0 0 2.8 1.027s1.637-.056 2.1-1.058c.174-.373 3.242.846 3.595-.775 0 0 1.762.141 2.115-.7a3.06 3.06 0 0 0-.775-2.89c-.696-.781-9.155-8.676-9.155-8.676z" class="cls-9" transform="translate(-41.395 -48.52)"/><path id="Path_1169" d="M125.018 142.092a2.34 2.34 0 0 1 .343.313l.9.89c.756.751 1.811 1.778 3.011 2.874s2.32 2.053 3.137 2.737l.968.81a2.35 2.35 0 0 1 .343.313 2.33 2.33 0 0 1-.386-.259 29.344 29.344 0 0 1-1-.767c-.839-.66-1.973-1.605-3.177-2.7s-2.247-2.142-2.981-2.917a33.745 33.745 0 0 1-.856-.931 2.342 2.342 0 0 1-.302-.363z" class="cls-10" transform="translate(-44.788 -50.905)"/><path id="Path_1170" d="M129.207 152.948c-.03.039-1.53-1.06-3.351-2.454s-3.273-2.556-3.244-2.595 1.53 1.06 3.351 2.454 3.274 2.556 3.244 2.595z" class="cls-10" transform="translate(-43.926 -52.985)"/><path id="Path_1171" d="M123.683 154.5a3.517 3.517 0 0 1-.655-.419 34.517 34.517 0 0 1-1.5-1.114 16.234 16.234 0 0 1-1.412-1.236 2.9 2.9 0 0 1-.511-.587 4.13 4.13 0 0 1 .6.5c.359.315.863.738 1.436 1.188a20.923 20.923 0 0 1 2.049 1.672z" class="cls-10" transform="translate(-42.848 -54.147)"/><path id="Path_1172" d="M181.154 78.907c1.742 3.071 5.51 4.63 9.033 4.39a15.419 15.419 0 0 0 9.466-4.331c1.514-1.456 2-4.719 3.338-4.42 1.246.278 2.21 4.424 2.342 5.695a7.9 7.9 0 0 1-1.678 5.408 16.807 16.807 0 0 1-4.309 3.83 20.4 20.4 0 0 1-10.116 3.811c-3.644.17-7.518-1.345-9.442-4.444s-1.258-7.772 1.867-9.655" class="cls-12" transform="translate(-64.023 -26.699)"/><path id="Path_1174" d="M183 94.5a4.522 4.522 0 0 0-.136-.662 3.48 3.48 0 0 0-1.038-1.488 12.025 12.025 0 0 0-2.326-1.45 7.783 7.783 0 0 1-1.362-.921 5.009 5.009 0 0 1-1.569-4.734 8.22 8.22 0 0 1 1.08-2.554 5.743 5.743 0 0 1 1.218-1.416 2.646 2.646 0 0 1 .425-.28.665.665 0 0 1 .162-.073c.01.018-.212.123-.543.407a6.127 6.127 0 0 0-1.156 1.429 8.364 8.364 0 0 0-1.026 2.521 4.893 4.893 0 0 0 1.524 4.571 7.791 7.791 0 0 0 1.328.909 11.56 11.56 0 0 1 2.327 1.5 3.417 3.417 0 0 1 1.019 1.561 1.7 1.7 0 0 1 .07.682z" class="cls-3" transform="translate(-63.221 -28.989)"/><path id="Path_1175" d="M206.624 70.733a.319.319 0 0 1 .085.019l.245.073a5.169 5.169 0 0 1 .908.379 6.027 6.027 0 0 1 1.254.925 6.592 6.592 0 0 1 1.261 1.633 8 8 0 0 1 .907 5.216 9.418 9.418 0 0 1-1.1 2.974 12.158 12.158 0 0 1-2.105 2.676 15.5 15.5 0 0 1-2.71 2.062 18.458 18.458 0 0 1-2.855 1.377 18.824 18.824 0 0 1-5.223 1.166 18.269 18.269 0 0 1-3.609-.083c-.424-.05-.75-.108-.97-.153l-.25-.05a.32.32 0 0 1-.084-.023.323.323 0 0 1 .087.005l.253.033c.222.033.548.08.972.119a19.479 19.479 0 0 0 3.591.027 19.075 19.075 0 0 0 5.175-1.194 16.474 16.474 0 0 0 5.5-3.414 12.074 12.074 0 0 0 2.078-2.634 9.314 9.314 0 0 0 1.091-2.918 7.93 7.93 0 0 0-.856-5.127 6.583 6.583 0 0 0-1.22-1.623 6.159 6.159 0 0 0-1.218-.936 5.864 5.864 0 0 0-.886-.405l-.238-.09a.332.332 0 0 1-.08-.037z" class="cls-3" transform="translate(-68.919 -25.34)"/><path id="Path_1176" d="M197.729 101.534a2.056 2.056 0 0 0-.177-1.81c.015-.015.114.046.225.195a1.4 1.4 0 0 1 .135 1.381c-.08.167-.165.246-.183.234z" class="cls-3" transform="translate(-70.774 -35.726)"/><path id="Path_1177" d="M215.556 97.077a.993.993 0 0 1-.555-.092 2.1 2.1 0 0 1-1.353-2.19.992.992 0 0 1 .167-.538c.028.009-.036.212-.042.545a2.2 2.2 0 0 0 1.277 2.067c.3.145.511.179.506.208z" class="cls-3" transform="translate(-76.536 -33.768)"/><path id="Path_1178" d="M203.822 77a1.093 1.093 0 0 1-.1.2c-.073.129-.166.329-.319.567a12.937 12.937 0 0 1-1.427 1.922 13.85 13.85 0 0 1-14.443 4.032 12.937 12.937 0 0 1-2.216-.9c-.254-.124-.437-.247-.567-.32a1.082 1.082 0 0 1-.19-.125 1.1 1.1 0 0 1 .207.093c.135.063.323.175.58.289a14.5 14.5 0 0 0 5.691 1.409 13.648 13.648 0 0 0 8.169-2.28 14.5 14.5 0 0 0 4.138-4.153c.161-.231.264-.424.347-.548a1.1 1.1 0 0 1 .13-.186z" class="cls-3" transform="translate(-66.12 -27.587)"/><g id="Group_1167" class="cls-8" transform="translate(125.512 50.613)"><path id="Path_1179" d="M195.81 92.275a.649.649 0 0 0-.08.913 1.735 1.735 0 0 0 .874.516 14.535 14.535 0 0 0 17.1-6.376c1.309-2.208 2.009-4.971 1.064-7.358-.243-.615-.818-1.282-1.44-1.058-.6.217-.643 1.034-.648 1.675-.029 3.7-2.548 7.05-5.735 8.928s-6.957 2.5-10.648 2.747" transform="translate(-195.579 -78.868)"/></g><path id="Path_1180" d="M283.522 168.577c.374 2.387 2.516 4.2 4.841 4.86a16.012 16.012 0 0 0 7.183-.064c1.352-.245 2.9-.7 3.4-1.984a2.833 2.833 0 0 0-.806-2.887 8.326 8.326 0 0 0-2.708-1.607" class="cls-14" transform="translate(-101.573 -59.791)"/><path id="Path_1181" d="M317.249 102.327a1.049 1.049 0 0 1 .072-.173l.232-.495a12.443 12.443 0 0 0 .682-1.981 17.486 17.486 0 0 0-.058-7.651 41.069 41.069 0 0 0-1.419-5.139c-.6-1.824-1.3-3.759-1.868-5.851a22.642 22.642 0 0 1-.923-6.727 26.334 26.334 0 0 1 1.566-7.119 34.6 34.6 0 0 0 1.812-7.011 10.685 10.685 0 0 0-1.285-6.475c-1.025-1.889-2.316-3.5-3.281-5.179a18 18 0 0 1-1.972-4.979 18.536 18.536 0 0 1-.125-7.713 14.364 14.364 0 0 1 .8-2.724 1.066 1.066 0 0 1-.048.181l-.163.522a19.847 19.847 0 0 0-.5 2.039 18.78 18.78 0 0 0 .2 7.655 17.94 17.94 0 0 0 1.979 4.915c.963 1.654 2.259 3.263 3.3 5.174a10.9 10.9 0 0 1 1.326 6.606 34.568 34.568 0 0 1-1.818 7.063 26.241 26.241 0 0 0-1.559 7.052 22.523 22.523 0 0 0 .9 6.659c.56 2.082 1.25 4.017 1.843 5.846a40.555 40.555 0 0 1 1.4 5.169 17.29 17.29 0 0 1-.02 7.707 11.443 11.443 0 0 1-.73 1.978l-.255.486a1.057 1.057 0 0 1-.088.165z" class="cls-3" transform="translate(-111.179 -11.863)"/><path id="Path_1182" d="M315.882 54.119s-1.96-6.269 1.556-9.94a.217.217 0 0 1 .373.108c.189 1.035.422 4.189-1.929 9.832z" class="cls-15" transform="translate(-112.971 -15.803)"/><path id="Path_1183" d="M317.321 47.473a5.762 5.762 0 0 1-.132 1.157l-.447 2.765-.442 2.765a6.312 6.312 0 0 1-.208 1.144 4.855 4.855 0 0 1 .035-1.165c.065-.716.191-1.7.369-2.784s.366-2.056.519-2.757a5.238 5.238 0 0 1 .306-1.125z" class="cls-3" transform="translate(-113.235 -17.007)"/><path id="Path_1184" d="M319.775 78.243s1.2-6.458 6.024-8.058a.217.217 0 0 1 .279.27c-.318 1.002-1.586 3.899-6.303 7.788z" class="cls-15" transform="translate(-114.56 -25.139)"/><path id="Path_1185" d="M324.463 72.79a5.77 5.77 0 0 1-.657.961l-1.689 2.235-1.681 2.239a6.3 6.3 0 0 1-.719.914 4.862 4.862 0 0 1 .576-1.014c.392-.6.965-1.415 1.628-2.288s1.285-1.646 1.748-2.195a5.228 5.228 0 0 1 .794-.852z" class="cls-3" transform="translate(-114.54 -26.077)"/><path id="Path_1186" d="M317.716 102.69s-.728-6.528 3.424-9.461a.217.217 0 0 1 .345.177c-.013 1.052-.385 4.194-3.769 9.284z" class="cls-15" transform="translate(-113.805 -33.385)"/><path id="Path_1187" d="M320.367 96.335a5.772 5.772 0 0 1-.35 1.11l-.967 2.629-.958 2.631a6.3 6.3 0 0 1-.422 1.084 4.858 4.858 0 0 1 .257-1.137c.2-.691.512-1.634.893-2.662s.751-1.948 1.035-2.608a5.228 5.228 0 0 1 .512-1.047z" class="cls-3" transform="translate(-113.806 -34.512)"/><path id="Path_1188" d="M323.4 128.159s-.494-6.55 3.761-9.332a.217.217 0 0 1 .339.189c-.055 1.051-.538 4.176-4.1 9.143z" class="cls-15" transform="translate(-115.852 -42.557)"/><path id="Path_1189" d="M326.3 121.884a5.761 5.761 0 0 1-.39 1.1l-1.06 2.593-1.052 2.595a6.281 6.281 0 0 1-.461 1.068 4.862 4.862 0 0 1 .3-1.127c.225-.683.57-1.615.988-2.628s.82-1.92 1.128-2.569a5.228 5.228 0 0 1 .549-1.027z" class="cls-3" transform="translate(-115.836 -43.665)"/><path id="Path_1190" d="M308.482 46.464s-5.823-3.041-5.937-8.123a.217.217 0 0 1 .339-.188c.866.598 3.264 2.66 5.598 8.311z" class="cls-15" transform="translate(-108.388 -13.655)"/><path id="Path_1191" d="M304.429 41.187a5.755 5.755 0 0 1 .725.911l1.641 2.27 1.647 2.264a6.294 6.294 0 0 1 .663.955 4.856 4.856 0 0 1-.8-.848c-.461-.552-1.07-1.337-1.71-2.227s-1.2-1.711-1.585-2.315a5.228 5.228 0 0 1-.581-1.01z" class="cls-3" transform="translate(-109.063 -14.755)"/><path id="Path_1192" d="M317.954 67.646s-6-2.681-6.419-7.747a.217.217 0 0 1 .327-.208c.9.544 3.419 2.456 6.092 7.955z" class="cls-15" transform="translate(-111.608 -21.373)"/><path id="Path_1193" d="M313.581 62.633a5.762 5.762 0 0 1 .779.865l1.776 2.166 1.782 2.16a6.3 6.3 0 0 1 .72.913 4.856 4.856 0 0 1-.85-.8c-.494-.523-1.149-1.27-1.842-2.119s-1.3-1.635-1.723-2.214a5.239 5.239 0 0 1-.642-.971z" class="cls-3" transform="translate(-112.342 -22.438)"/><path id="Path_1194" d="M314.654 89.947s-4.117-5.118-2.186-9.821a.217.217 0 0 1 .386-.036c.553.895 1.924 3.744 1.8 9.857z" class="cls-15" transform="translate(-111.758 -28.656)"/><path id="Path_1195" d="M313.392 83.45a5.766 5.766 0 0 1 .3 1.125l.595 2.737.6 2.734a6.3 6.3 0 0 1 .225 1.141 4.858 4.858 0 0 1-.393-1.1c-.2-.69-.444-1.654-.674-2.726s-.411-2.047-.525-2.756a5.23 5.23 0 0 1-.128-1.155z" class="cls-3" transform="translate(-112.274 -29.896)"/><path id="Path_1196" d="M319.006 118.53s-5.951-2.782-6.288-7.854a.217.217 0 0 1 .331-.2c.891.557 3.377 2.511 5.957 8.054z" class="cls-15" transform="translate(-112.032 -39.566)"/><path id="Path_1197" d="M314.72 113.442a5.765 5.765 0 0 1 .765.878l1.74 2.2 1.745 2.189a6.3 6.3 0 0 1 .7.925 4.855 4.855 0 0 1-.837-.812c-.485-.531-1.127-1.289-1.806-2.15s-1.271-1.657-1.685-2.243a5.234 5.234 0 0 1-.622-.987z" class="cls-3" transform="translate(-112.75 -40.641)"/><path id="Path_1198" d="M334.644 82.8a.491.491 0 0 1 .008.145c0 .114-.007.252-.01.42l-.071 1.593-.312 5.688v.014A22.069 22.069 0 0 1 331 98.231c-1.193 1.884-2.443 3.6-3.521 5.19a36.783 36.783 0 0 0-2.64 4.364 18.5 18.5 0 0 0-1.235 3.2c-.1.392-.183.7-.229.908a.164.164 0 1 1-.049-.01c.03-.213.094-.524.185-.922a16.9 16.9 0 0 1 1.171-3.254 34.813 34.813 0 0 1 2.609-4.415c1.071-1.6 2.315-3.32 3.5-5.195a22.38 22.38 0 0 0 3.262-7.478v.013l.4-5.682c.054-.664.1-1.2.128-1.589l.042-.418a.485.485 0 0 1 .021-.143z" class="cls-3" transform="translate(-115.818 -29.664)"/><path id="Path_1199" d="M334.728 100.429s2.52-6.066-.65-10.04a.217.217 0 0 0-.381.073c-.28 1.015-.797 4.138 1.031 9.967z" class="cls-16" transform="translate(-119.445 -32.352)"/><path id="Path_1200" d="M334.739 93.732a5.217 5.217 0 0 1 .2 1.148c.089.713.189 1.7.267 2.793s.116 2.086.116 2.806a4.865 4.865 0 0 1-.071 1.164 6.294 6.294 0 0 1-.1-1.158l-.187-2.794-.2-2.794a5.768 5.768 0 0 1-.025-1.165z" class="cls-3" transform="translate(-119.915 -33.58)"/><path id="Path_1201" d="M322.207 123.263s2.02-6.251-1.462-9.954a.217.217 0 0 0-.374.1c-.197 1.038-.462 4.191 1.836 9.854z" class="cls-16" transform="translate(-114.73 -40.568)"/><path id="Path_1202" d="M321.587 116.609a5.229 5.229 0 0 1 .292 1.128c.147.7.326 1.679.493 2.762s.284 2.07.342 2.787a4.855 4.855 0 0 1 .024 1.166 6.313 6.313 0 0 1-.2-1.146l-.413-2.769-.421-2.769a5.764 5.764 0 0 1-.117-1.159z" class="cls-3" transform="translate(-115.21 -41.776)"/><path id="Path_1203" d="M340.466 89.5s5.381-3.767 4.838-8.822a.217.217 0 0 0-.361-.142c-.781.7-2.893 3.054-4.477 8.964z" class="cls-16" transform="translate(-121.973 -28.831)"/><path id="Path_1204" d="M344.36 83.724a5.221 5.221 0 0 1-.447 1.076c-.307.649-.753 1.536-1.273 2.5s-1.022 1.823-1.408 2.429a4.854 4.854 0 0 1-.684.944 6.3 6.3 0 0 1 .534-1.033l1.341-2.458 1.335-2.463a5.777 5.777 0 0 1 .6-1z" class="cls-3" transform="translate(-122.003 -29.995)"/><path id="Path_1205" d="M326.683 115.808s6.49-1.012 8.229-5.789a.217.217 0 0 0-.261-.287c-1.012.289-3.945 1.468-7.968 6.076z" class="cls-16" transform="translate(-117.035 -39.309)"/><path id="Path_1206" d="M333.229 112.156a5.229 5.229 0 0 1-.875.769c-.562.448-1.352 1.047-2.244 1.684s-1.72 1.186-2.334 1.561a4.857 4.857 0 0 1-1.03.547 6.293 6.293 0 0 1 .935-.692l2.286-1.616 2.283-1.623a5.776 5.776 0 0 1 .979-.63z" class="cls-3" transform="translate(-117.058 -40.18)"/><path id="Path_1207" fill="#5d5d5d" d="m315.978 137.816-1.893 12.742h11.8l-1.529-12.742z" transform="translate(-112.522 -49.373)"/><path id="Path_1208" d="M325.509 143.892a92.211 92.211 0 0 1-9.515 0 92.154 92.154 0 0 1 9.515 0z" class="cls-3" transform="translate(-113.206 -51.5)"/><path id="Path_1209" d="M325.7 145.48c0 .068-2.2.123-4.913.123s-4.914-.055-4.914-.123 2.2-.123 4.914-.123a49.136 49.136 0 0 1 4.913.123z" class="cls-3" transform="translate(-113.162 -52.075)"/><path id="Path_1210" d="M292.445 170.082a29.181 29.181 0 0 1-6.064-.026A2.668 2.668 0 0 1 284 167.4h10.843a2.689 2.689 0 0 1-2.4 2.681z" class="cls-4" transform="translate(-101.743 -59.972)"/><path id="Path_1211" d="M293.384 158.3a22.348 22.348 0 0 1-9.586.022 2.679 2.679 0 0 1-2.1-2.619v-16.538a2.679 2.679 0 0 1 2.679-2.679h8.434a2.679 2.679 0 0 1 2.679 2.679v16.513a2.679 2.679 0 0 1-2.106 2.622z" class="cls-18" transform="translate(-100.92 -48.897)"/><path id="Path_1212" d="M295.253 137.392c.214.69-.3 1.563-1.456 2.3a10.179 10.179 0 0 1-9.875.06c-1.16-.723-1.69-1.59-1.484-2.283s1.068-1.13 2.213-1.389a25.276 25.276 0 0 1 8.372-.051c1.148.246 2.012.658 2.23 1.363z" class="cls-12" transform="translate(-101.169 -48.617)"/><path id="Path_1213" fill="#bcbec0" d="M295.253 137.392c.214.69-.3 1.563-1.456 2.3a10.179 10.179 0 0 1-9.875.06c-1.16-.723-1.69-1.59-1.484-2.283s1.068-1.13 2.213-1.389a25.276 25.276 0 0 1 8.372-.051c1.148.246 2.012.658 2.23 1.363z" transform="translate(-101.169 -48.617)"/><path id="Path_1214" d="M297.1 137.941a4.146 4.146 0 0 0-1.894.158c-.272.089-.58.275-.563.561.015.241.257.4.48.488a3.847 3.847 0 0 0 3.071-.073c.221-.1.466-.305.4-.541a.516.516 0 0 0-.26-.273 2.778 2.778 0 0 0-1.362-.384" class="cls-3" transform="translate(-105.558 -49.395)"/><path id="Path_1216" d="M294.746 136.892a.646.646 0 0 1 .133.114 1.458 1.458 0 0 1 .282.419 1.421 1.421 0 0 1 .1.8 2.137 2.137 0 0 1-.44.966 4.788 4.788 0 0 1-2.289 1.475 9.653 9.653 0 0 1-3.3.508 10.666 10.666 0 0 1-3.292-.59 6.837 6.837 0 0 1-1.338-.6 3.086 3.086 0 0 1-.948-.867 1.935 1.935 0 0 1-.235-1.794 1.3 1.3 0 0 1 .276-.423.537.537 0 0 1 .138-.109 1.762 1.762 0 0 0-.35.557 1.888 1.888 0 0 0 .273 1.7 4.332 4.332 0 0 0 2.237 1.389 10.792 10.792 0 0 0 3.242.567 9.727 9.727 0 0 0 3.249-.486 4.743 4.743 0 0 0 2.243-1.4 2.067 2.067 0 0 0 .44-.905 1.379 1.379 0 0 0-.064-.753 2.382 2.382 0 0 0-.357-.568z" class="cls-3" transform="translate(-101.49 -49.003)"/><path id="Path_1217" d="M17.181 125.024s-5.6 4.266-.235 9.9a.488.488 0 0 0 .355.15l48.921-.285s4.178-4.686.711-10.085z" class="cls-20" transform="translate(-5.238 -44.676)"/><path id="Path_1218" d="M20.94 135.383s-.032 0-.091-.005a1.35 1.35 0 0 1-.255-.063 2 2 0 0 1-.821-.54 1.963 1.963 0 0 1-.529-1.4 2.106 2.106 0 0 1 .9-1.654l.024.152a1.73 1.73 0 0 1-1.219-1.543 1.711 1.711 0 0 1 1.438-1.724l-.028.155a1.969 1.969 0 0 1-.971-1.467 1.837 1.837 0 0 1 .375-1.335 1.861 1.861 0 0 1 .709-.567 1.254 1.254 0 0 1 .228-.08c.054-.013.082-.017.083-.012s-.106.044-.287.141a1.944 1.944 0 0 0-.651.579 1.753 1.753 0 0 0-.318 1.256 1.837 1.837 0 0 0 .911 1.34l.221.122-.249.033a1.551 1.551 0 0 0-1.285 1.551 1.568 1.568 0 0 0 1.088 1.389l.176.05-.153.1a1.972 1.972 0 0 0-.853 1.519 1.875 1.875 0 0 0 .463 1.32 2.082 2.082 0 0 0 .763.558c.211.09.334.112.331.125z" class="cls-4" transform="translate(-6.79 -44.889)"/><path id="Path_1222" d="M90.522 124.915s.032 0 .091.005a1.345 1.345 0 0 1 .255.063 2 2 0 0 1 .821.54 1.962 1.962 0 0 1 .529 1.4 2.106 2.106 0 0 1-.9 1.654l-.024-.151a1.729 1.729 0 0 1 1.219 1.543 1.711 1.711 0 0 1-1.437 1.724l.028-.155a1.969 1.969 0 0 1 .967 1.462 1.837 1.837 0 0 1-.375 1.335 1.861 1.861 0 0 1-.709.567 1.252 1.252 0 0 1-.228.08c-.053.013-.082.017-.083.012s.106-.044.287-.141a1.945 1.945 0 0 0 .651-.579 1.753 1.753 0 0 0 .318-1.256 1.837 1.837 0 0 0-.912-1.34l-.221-.122.249-.033a1.551 1.551 0 0 0 1.285-1.551 1.568 1.568 0 0 0-1.088-1.39l-.176-.05.153-.1a1.972 1.972 0 0 0 .853-1.519 1.875 1.875 0 0 0-.463-1.32 2.082 2.082 0 0 0-.763-.558c-.208-.085-.33-.107-.327-.12z" class="cls-4" transform="translate(-32.43 -44.75)"/><path id="Path_1226" d="M63.084 132.091c0 .049-6.092.088-13.6.088s-13.606-.04-13.606-.088S41.964 132 49.48 132s13.604.042 13.604.091z" class="cls-4" transform="translate(-12.852 -47.29)"/><path id="Path_1227" d="M59.276 134.849c0 .049-2.864.088-6.4.088s-6.4-.04-6.4-.088 2.863-.088 6.4-.088 6.4.039 6.4.088z" class="cls-4" transform="translate(-16.653 -48.278)"/><path id="Path_1228" d="M28.521 59.824s-5.158 3.93-.216 9.121a.45.45 0 0 0 .327.138L73.7 68.82s3.848-4.316.655-9.29z" class="cls-20" transform="translate(-9.373 -21.327)"/><path id="Path_1229" d="M70.718 66.329c0 .049-5.612.088-12.532.088s-12.533-.04-12.533-.088 5.61-.088 12.533-.088 12.532.04 12.532.088z" class="cls-4" transform="translate(-16.355 -23.731)"/><path id="Path_1230" d="M67.21 68.87c0 .049-2.638.088-5.892.088s-5.893-.04-5.893-.088 2.638-.088 5.893-.088 5.892.039 5.892.088z" class="cls-4" transform="translate(-19.856 -24.641)"/><path id="Path_1231" d="M91.84 68.607c-.029-.008.1-.517.241-1.352a18.633 18.633 0 0 0-.062-6.571c-.156-.832-.294-1.339-.266-1.347a1.493 1.493 0 0 1 .13.347c.075.226.164.559.259.975a16 16 0 0 1 .063 6.619c-.086.417-.17.752-.24.98a1.489 1.489 0 0 1-.125.349z" class="cls-4" transform="translate(-32.869 -21.257)"/><path id="Path_1232" d="M97.13 59.443a1.591 1.591 0 0 1 .2.328 3.9 3.9 0 0 1 .2.4c.07.161.159.341.23.551a9.6 9.6 0 0 1 .428 1.5 10.053 10.053 0 0 1 .031 3.795 9.593 9.593 0 0 1-.4 1.5c-.067.211-.153.393-.221.555a3.913 3.913 0 0 1-.193.407 1.593 1.593 0 0 1-.195.331c-.031-.015.221-.5.49-1.333a10.823 10.823 0 0 0 .362-1.49 10.713 10.713 0 0 0-.03-3.736 10.833 10.833 0 0 0-.386-1.484c-.286-.828-.546-1.309-.516-1.324z" class="cls-4" transform="translate(-34.796 -21.296)"/><path id="Path_1233" d="M40.206 68.947a1.462 1.462 0 0 1-.209-.3 3.2 3.2 0 0 1-.21-.376 5.344 5.344 0 0 1-.24-.518 7.9 7.9 0 0 1-.439-1.422 8.363 8.363 0 0 1 .049-3.625 7.894 7.894 0 0 1 .477-1.409 5.334 5.334 0 0 1 .254-.512 3.2 3.2 0 0 1 .22-.37 1.453 1.453 0 0 1 .217-.3c.03.018-.26.454-.576 1.227a8.783 8.783 0 0 0-.086 6.36c.295.784.574 1.227.543 1.245z" class="cls-4" transform="translate(-13.948 -21.537)"/><path id="Path_1234" d="M32.492 70a1.834 1.834 0 0 1-.231-.342 3.9 3.9 0 0 1-.235-.424c-.083-.17-.188-.359-.272-.581a9.577 9.577 0 0 1-.515-1.59 10.069 10.069 0 0 1-.09-4.075 9.579 9.579 0 0 1 .444-1.612c.075-.226.171-.42.246-.593a3.9 3.9 0 0 1 .216-.433 1.834 1.834 0 0 1 .215-.35c.032.016-.257.529-.56 1.42a10.593 10.593 0 0 0 .159 7.189c.343.878.654 1.378.623 1.391z" class="cls-4" transform="translate(-11.1 -21.496)"/><path id="Path_1235" d="M5.815 151.133 5.7 140.812h5.618l.193 10.321z" class="cls-14" transform="translate(-2.042 -50.446)"/><path id="Path_1236" d="M11.022 143.618a19.346 19.346 0 0 1-2.611.088 19.346 19.346 0 0 1-2.611-.088 19.366 19.366 0 0 1 2.611-.088 19.366 19.366 0 0 1 2.611.088z" class="cls-4" transform="translate(-2.078 -51.416)"/><path id="Path_1237" d="M11.022 146.1a19.339 19.339 0 0 1-2.611.088A19.338 19.338 0 0 1 5.8 146.1a19.354 19.354 0 0 1 2.611-.088 19.355 19.355 0 0 1 2.611.088z" class="cls-4" transform="translate(-2.078 -52.305)"/><path id="Path_1238" d="M11.022 148.582a19.351 19.351 0 0 1-2.611.088 19.348 19.348 0 0 1-2.611-.088 19.341 19.341 0 0 1 2.611-.089 19.344 19.344 0 0 1 2.611.089z" class="cls-4" transform="translate(-2.078 -53.195)"/><path id="Path_1239" d="M11.022 151.065a19.336 19.336 0 0 1-2.611.088 19.336 19.336 0 0 1-2.611-.088 19.364 19.364 0 0 1 2.611-.088 19.363 19.363 0 0 1 2.611.088z" class="cls-4" transform="translate(-2.078 -54.084)"/><path id="Path_1240" d="M11.022 153.547a19.336 19.336 0 0 1-2.611.088 19.336 19.336 0 0 1-2.611-.088 19.361 19.361 0 0 1 2.611-.088 19.368 19.368 0 0 1 2.611.088z" class="cls-4" transform="translate(-2.078 -54.973)"/><path id="Path_1241" d="M4.94 140.28h62.268a29.256 29.256 0 0 1 0 11.156h-62v-.759h3.787a1.789 1.789 0 0 0 1.789-1.789v-6.174a1.789 1.789 0 0 0-1.789-1.789H4.94z" class="cls-21" transform="translate(-1.77 -50.256)"/><g id="Group_1168" opacity=".3" transform="translate(52.657 93.337)"><path id="Path_1244" d="M83.282 145.445c.026.032-.2.22-.447.6a3.013 3.013 0 0 0-.066 3.311c.236.388.45.585.422.615s-.28-.129-.571-.515a2.879 2.879 0 0 1 .07-3.518c.31-.375.576-.516.592-.493z" class="cls-13" transform="translate(-82.052 -145.442)"/></g><path id="Path_1245" d="M98.569 151.606c-.049 0-.089-2.562-.089-5.723s.04-5.723.089-5.723.088 2.562.088 5.723-.039 5.723-.088 5.723z" class="cls-3" transform="translate(-35.281 -50.213)"/><path id="Path_1246" d="M19.171 151.606c-.049 0-.088-2.562-.088-5.723s.04-5.723.088-5.723.088 2.562.088 5.723-.04 5.723-.088 5.723z" class="cls-3" transform="translate(-6.836 -50.213)"/><path id="Path_1247" d="M100.272 151.606c-.049 0-.088-2.562-.088-5.723s.04-5.723.088-5.723.088 2.562.088 5.723-.04 5.723-.088 5.723z" class="cls-3" transform="translate(-35.891 -50.213)"/><path id="Path_1248" d="M17.579 151.606c-.049 0-.088-2.562-.088-5.723s.04-5.723.088-5.723.088 2.562.088 5.723-.039 5.723-.088 5.723z" class="cls-3" transform="translate(-6.266 -50.213)"/><path id="Path_1249" d="M86.143 111.012v8.624h-8.089v-8.624z" class="cls-6" transform="translate(-27.963 -39.77)"/><path id="Path_1250" d="M20.944 109.766c-1.264 3.047-1.08 6.415 0 9.982H65.8v-.624h-2.854a4.312 4.312 0 0 1-4.312-4.312 4.312 4.312 0 0 1 4.312-4.312h3.018v-.916z" class="cls-18" transform="translate(-7.188 -39.259)"/><path id="Path_1251" d="M60.826 111.988c0 .049-8.983.088-20.061.088s-20.063-.04-20.063-.088 8.981-.088 20.063-.088 20.061.039 20.061.088z" class="cls-4" transform="translate(-7.416 -40.089)"/><path id="Path_1252" d="M61.3 123.663c0 .049-9.032.088-20.17.088s-20.172-.04-20.172-.088 9.03-.088 20.172-.088 20.17.039 20.17.088z" class="cls-4" transform="translate(-7.51 -44.271)"/><path id="Path_1263" d="M86.9 117.856a32.068 32.068 0 0 1-3.364.088 32.064 32.064 0 0 1-3.364-.088 32.1 32.1 0 0 1 3.364-.088 32.1 32.1 0 0 1 3.364.088z" class="cls-4" transform="translate(-28.723 -42.187)"/><path id="Path_1264" d="M87.228 120.883a26.767 26.767 0 0 1-3.072.088 26.767 26.767 0 0 1-3.073-.088 26.767 26.767 0 0 1 3.073-.088 26.767 26.767 0 0 1 3.072.088z" class="cls-4" transform="translate(-29.048 -43.271)"/><path id="Path_1265" d="M88.225 123.653a14.279 14.279 0 0 1-2.243.089 14.281 14.281 0 0 1-2.243-.089 14.309 14.309 0 0 1 2.243-.088 14.309 14.309 0 0 1 2.243.088z" class="cls-4" transform="translate(-30 -44.263)"/><path id="Path_1266" d="M87.137 115.135a29.687 29.687 0 0 1-3.236.088 29.689 29.689 0 0 1-3.236-.088 29.693 29.693 0 0 1 3.236-.088 29.7 29.7 0 0 1 3.236.088z" class="cls-4" transform="translate(-28.898 -41.212)"/><path id="Path_1267" d="M87.865 112.414a17.786 17.786 0 0 1-2.5.088 17.786 17.786 0 0 1-2.5-.088 17.8 17.8 0 0 1 2.5-.088 17.793 17.793 0 0 1 2.5.088z" class="cls-4" transform="translate(-29.685 -40.237)"/><path id="Path_1268" d="M88.339 95.393v8.623H71.652v-8.623z" class="cls-6" transform="translate(-25.67 -34.175)"/><path id="Path_1269" d="M13.675 99.273q0 .114.01.228a4.941 4.941 0 0 0 4.964 4.627h49.7v-.628h-11.8a4.312 4.312 0 0 1-4.312-4.312 4.312 4.312 0 0 1 4.312-4.312h11.8v-.916l-49.712.168a4.972 4.972 0 0 0-4.959 5.14z" class="cls-12" transform="translate(-4.898 -33.663)"/><path id="Path_1270" d="M89.1 102.242c0 .049-3.431.088-7.662.088s-7.663-.04-7.663-.088 3.43-.088 7.663-.088 7.662.039 7.662.088z" class="cls-4" transform="translate(-26.43 -36.597)"/><path id="Path_1271" d="M89.183 105.27c0 .049-3.247.088-7.25.088s-7.251-.04-7.251-.088 3.246-.088 7.251-.088 7.25.039 7.25.088z" class="cls-4" transform="translate(-26.755 -37.682)"/><path id="Path_1272" d="M90.376 108.039c0 .049-2.919.088-6.519.088s-6.519-.04-6.519-.088 2.918-.088 6.519-.088 6.519.039 6.519.088z" class="cls-4" transform="translate(-27.707 -38.674)"/><path id="Path_1273" d="M89.274 99.521c0 .049-3.361.088-7.506.088s-7.506-.04-7.506-.088 3.36-.088 7.506-.088 7.506.039 7.506.088z" class="cls-4" transform="translate(-26.605 -35.622)"/><path id="Path_1274" d="M89.819 96.8c0 .049-2.991.089-6.681.089s-6.681-.04-6.681-.089 2.991-.088 6.681-.088 6.681.04 6.681.088z" class="cls-4" transform="translate(-27.391 -34.648)"/><path id="Path_1275" d="M13.675 99.273q0 .114.01.228a4.941 4.941 0 0 0 4.964 4.627h49.7v-.628h-11.8a4.312 4.312 0 0 1-4.312-4.312 4.312 4.312 0 0 1 4.312-4.312h11.8v-.916l-49.712.168a4.972 4.972 0 0 0-4.959 5.14z" class="cls-7" transform="translate(-4.898 -33.663)"/><path id="Path_1276" d="M21.736 94.452a10.834 10.834 0 0 0-1.057 1.255 6.385 6.385 0 0 0 .087 7.392 10.82 10.82 0 0 0 1.086 1.229 1.785 1.785 0 0 1-.358-.265 5.7 5.7 0 0 1-.829-.89 6.291 6.291 0 0 1-.089-7.538 5.7 5.7 0 0 1 .808-.909 1.788 1.788 0 0 1 .352-.274z" class="cls-4" transform="translate(-6.938 -33.838)"/><path id="Path_1277" d="M19.117 94.165a10.832 10.832 0 0 0-1.057 1.255 6.385 6.385 0 0 0 .087 7.392 10.824 10.824 0 0 0 1.086 1.229 1.784 1.784 0 0 1-.358-.265 5.7 5.7 0 0 1-.829-.89 6.292 6.292 0 0 1-.089-7.538 5.7 5.7 0 0 1 .808-.909 1.792 1.792 0 0 1 .352-.274z" class="cls-4" transform="translate(-6 -33.735)"/><path id="Path_1278" d="M71.736 94.452a10.831 10.831 0 0 0-1.057 1.255 6.385 6.385 0 0 0 .087 7.392 10.822 10.822 0 0 0 1.086 1.229 1.784 1.784 0 0 1-.358-.265 5.7 5.7 0 0 1-.829-.89 6.291 6.291 0 0 1-.089-7.538 5.7 5.7 0 0 1 .808-.909 1.793 1.793 0 0 1 .352-.274z" class="cls-4" transform="translate(-24.851 -33.838)"/><path id="Path_1279" d="M69.118 94.165a10.833 10.833 0 0 0-1.058 1.255 6.385 6.385 0 0 0 .087 7.392 10.819 10.819 0 0 0 1.087 1.229 1.783 1.783 0 0 1-.358-.265 5.7 5.7 0 0 1-.829-.89 6.292 6.292 0 0 1-.089-7.538 5.7 5.7 0 0 1 .808-.909 1.789 1.789 0 0 1 .352-.274z" class="cls-4" transform="translate(-23.913 -33.735)"/><path id="Path_1280" d="m30.41 101.336-.047-3.506a2.505 2.505 0 0 0-.123-.9.851.851 0 0 0-.666-.562 1.333 1.333 0 0 0-1.43.678 3.326 3.326 0 0 0-.344 1.714 24.865 24.865 0 0 0 .135 2.77 3.186 3.186 0 0 0 .326 1.268 1.184 1.184 0 0 0 1.07.643 1.2 1.2 0 0 0 .937-.813 3.52 3.52 0 0 0 .142-1.292z" class="cls-4" transform="translate(-9.956 -34.514)"/><path id="Path_1281" d="M52.989 102.5c0 .049-3.593.088-8.024.088s-8.024-.04-8.024-.088 3.592-.088 8.024-.088 8.024.044 8.024.088z" class="cls-4" transform="translate(-13.234 -36.691)"/><path id="Path_1282" d="m26.633 89.351-.092-8.174h4.45l.153 8.174z" class="cls-14" transform="translate(-9.508 -29.082)"/><path id="Path_1283" d="M30.757 83.388a12.168 12.168 0 0 1-2.068.088 12.168 12.168 0 0 1-2.068-.088 12.163 12.163 0 0 1 2.068-.088 12.164 12.164 0 0 1 2.068.088z" class="cls-4" transform="translate(-9.537 -29.838)"/><path id="Path_1284" d="M30.757 85.354a12.162 12.162 0 0 1-2.068.088 12.164 12.164 0 0 1-2.068-.088 12.175 12.175 0 0 1 2.068-.088 12.175 12.175 0 0 1 2.068.088z" class="cls-4" transform="translate(-9.537 -30.543)"/><path id="Path_1285" d="M30.757 87.32a12.163 12.163 0 0 1-2.068.088 12.163 12.163 0 0 1-2.068-.088 12.178 12.178 0 0 1 2.068-.088 12.177 12.177 0 0 1 2.068.088z" class="cls-4" transform="translate(-9.537 -31.247)"/><path id="Path_1286" d="M30.757 89.286a12.152 12.152 0 0 1-2.068.089 12.151 12.151 0 0 1-2.068-.088 12.174 12.174 0 0 1 2.068-.088 12.176 12.176 0 0 1 2.068.087z" class="cls-4" transform="translate(-9.537 -31.951)"/><path id="Path_1287" d="M30.757 91.252a12.161 12.161 0 0 1-2.068.088 12.164 12.164 0 0 1-2.068-.088 12.171 12.171 0 0 1 2.068-.088 12.172 12.172 0 0 1 2.068.088z" class="cls-4" transform="translate(-9.537 -32.656)"/><path id="Path_1288" d="M25.94 80.755h49.316a23.17 23.17 0 0 1 0 8.835h-49.1v-.6h3a1.417 1.417 0 0 0 1.417-1.417v-4.889a1.417 1.417 0 0 0-1.417-1.417H25.94z" class="cls-18" transform="translate(-9.293 -28.931)"/><path id="Path_1289" d="M100.084 89.726c-.049 0-.088-2.029-.088-4.532s.04-4.533.088-4.533.088 2.029.088 4.533-.04 4.532-.088 4.532z" class="cls-3" transform="translate(-35.824 -28.897)"/><path id="Path_1290" d="M37.2 89.726c-.049 0-.088-2.029-.088-4.532s.04-4.533.088-4.533.088 2.029.088 4.533-.039 4.532-.088 4.532z" class="cls-3" transform="translate(-13.295 -28.897)"/><path id="Path_1292" d="M35.94 89.726c-.049 0-.088-2.029-.088-4.532s.04-4.533.088-4.533.088 2.029.088 4.533-.039 4.532-.088 4.532z" class="cls-3" transform="translate(-12.844 -28.897)"/><path id="Path_1300" fill="#8b2b6f" d="M67.914 78.4H17.9a4.2 4.2 0 0 1 0-4.163h50.014a4.826 4.826 0 0 1 0 4.163z" transform="translate(-6.214 -26.594)"/><path id="Path_1301" d="M20.717 78.478a1.485 1.485 0 0 1-.393-.5 3.681 3.681 0 0 1-.265-3.011 1.484 1.484 0 0 1 .3-.565 5.085 5.085 0 0 1-.18.6 4.2 4.2 0 0 0 .257 2.916 5.089 5.089 0 0 1 .282.562z" class="cls-4" transform="translate(-7.113 -26.653)"/><path id="Path_1302" d="M22.4 78.478a1.485 1.485 0 0 1-.393-.5 3.681 3.681 0 0 1-.265-3.011 1.484 1.484 0 0 1 .3-.565 5.069 5.069 0 0 1-.18.6 4.2 4.2 0 0 0 .257 2.916 5.062 5.062 0 0 1 .281.56z" class="cls-4" transform="translate(-7.717 -26.653)"/><path id="Path_1303" d="M92.991 78.329a6.227 6.227 0 0 0 .024-4.075 4.255 4.255 0 0 1-.024 4.075z" class="cls-4" transform="translate(-33.314 -26.602)"/><path id="Path_1304" d="M91.533 78.363c-.053-.012.159-.891.153-1.994s-.211-1.981-.158-1.993a6.147 6.147 0 0 1 .005 3.987z" class="cls-4" transform="translate(-32.787 -26.645)"/><path id="Path_1305" d="M197.511 39.849c-.27-2.267-.328-4.554-.518-6.829-.786-9.4-2.208-19.533-8.792-26.295-4.472-4.593-12.183-7.242-18.566-6.641a21.88 21.88 0 0 0-12.424 5.493 24.206 24.206 0 0 0-4.181 4.51c-2.018 3.182-2.232 4.573-2.995 8.081q.252-.511.533-1.008a20.174 20.174 0 0 1 12.976-9.89 16.81 16.81 0 0 1 16.23 5.312c3.387 4.085 4.383 9.6 5.017 14.87 2.818 23.451.811 47.184-1.2 70.719l13.283-5.848c.551-10.971 1.129-21.876 1.193-32.793.028-4.765-2.188-4.476-2.4-9.252-.08-1.79 2.647-3.69 1.844-10.429z" class="cls-21" transform="translate(-53.751)"/><path id="Path_1306" d="m209.988 141.943-7.7 2.846s-2.923-1.153-3.516-1.231c-.767-.1-6.521 1.824-10.671 3.261a8.493 8.493 0 0 0-5.705 5.4l31.014-.107z" class="cls-9" transform="translate(-65.344 -50.852)"/><path id="Path_1307" d="M213.556 70.662a4.863 4.863 0 0 0-2.128-1.778c-.855-.407-2.733-.305-3.646-.541-2.429-.628-5.221-1.839-7.38-.562-2.576 1.523-2.143 5.164-3.111 8a19.8 19.8 0 0 1-9.282 10.813c-1.8.975-4.517 2.4-6.57 1.689a16.83 16.83 0 0 1-6.3-3.509A14.225 14.225 0 0 1 170.621 75a8.883 8.883 0 0 0-1.044.733 5.716 5.716 0 0 1-5.955.533 11.629 11.629 0 0 0-6.19 4.509 42.128 42.128 0 0 0 6.233 14.6 25.889 25.889 0 0 0 12.309 9.955c8.575 3.09 18.574.245 25.407-5.788s10.783-14.807 12.533-23.753c.337-1.722.568-3.635-.358-5.127z" class="cls-2" transform="translate(-56.4 -24.081)"/><path id="Path_1308" d="M210.806 71.1c-2.851-.231-4.479 4.223-5.378 6.24-1.877 4.212-3.831 8.833-7.045 12.2a24.318 24.318 0 0 1-6.422 4.715c-3.406 1.776-6.376 1.263-9.684-.393-2.607-1.305-5.415-2.9-7.175-5.3-1.574-2.147-1.81-4.922-2.477-7.419a.175.175 0 0 0-.339.065c.476 3.767 1.408 7.175 4.372 9.717a27.463 27.463 0 0 0 5.614 3.571 12.061 12.061 0 0 0 5.9 1.6c3.774-.178 7.727-3.192 10.3-5.767 2.967-2.965 4.82-6.922 6.619-10.661.692-1.439 1.274-2.926 2.02-4.34.719-1.362 1.848-3.686 3.653-3.7.299-.002.347-.505.042-.528z" class="cls-24" transform="translate(-61.722 -25.468)"/><path id="Path_1309" d="M210.091 74.365A5.51 5.51 0 0 0 207.4 77.3c-.924 1.809-1.635 3.739-2.5 5.581a48.585 48.585 0 0 1-8.8 13.162c-3.821 4-8.957 7.413-14.731 6.836-2.666-.266-5.026-1.471-7.416-2.589a24.362 24.362 0 0 1-5.813-3.478c-4.659-4.061-4.535-10.94-6.677-16.324a.2.2 0 0 0-.388.128c1.643 4.89 1.89 10.947 5.24 15.082 2.713 3.349 7.453 5.421 11.4 6.886 10.434 3.869 19.142-5.4 24.284-13.318a59.87 59.87 0 0 0 4.347-8.458c.876-1.982 1.649-5.172 3.864-6.05.256-.098.132-.487-.119-.393z" class="cls-24" transform="translate(-57.705 -26.636)"/><path id="Path_1310" d="M207.876 36.258c-.974-7.5-3.446-14.77-8.964-20.146-.165-.161-.4.1-.24.263 5.662 5.716 8 13.51 8.847 21.331a67.782 67.782 0 0 1 .173 13.091c-.355 4.093-1.174 8.082-1.325 12.2-.009.259.439.3.46.034.342-4.38 1.139-8.695 1.455-13.071a68.293 68.293 0 0 0-.406-13.7z" class="cls-2" transform="translate(-71.156 -5.754)"/><path id="Path_1311" d="M203.625 18.222c-1.657-3.418-3.556-7.384-6.5-9.888C194.2 5.845 190.4 6.039 186.786 6.2c-.225.01-.2.337.021.344 4.129.14 7.986-.109 11.016 3.226 2.584 2.844 4.483 6.746 6.024 10.231a51.889 51.889 0 0 1 3.487 11.295 44.621 44.621 0 0 1 .8 6.24c.1 2.2-.057 4.407.038 6.607.013.308.453.267.468-.028a52.805 52.805 0 0 0-5.011-25.89z" class="cls-2" transform="translate(-66.861 -2.19)"/><path id="Path_1312" d="M216.063 125.837c-.58 3.527-1.08 7.154-1.44 10.708a.174.174 0 0 0 .341.072c1.081-3.383 1-7.188 1.554-10.684.047-.294-.406-.393-.455-.096z" class="cls-2" transform="translate(-76.888 -45.017)"/><path id="Path_1313" d="M210.954 126.974a20.767 20.767 0 0 0-.7 3.734c-.315 1.706-.633 3.421-1.074 5.1-.039.146.2.237.255.091a26.576 26.576 0 0 0 1.069-4.255 29.715 29.715 0 0 1 .8-4.487c.091-.237-.258-.423-.35-.183z" class="cls-2" transform="translate(-74.938 -45.449)"/></g></g></g></g></svg>