<svg xmlns="http://www.w3.org/2000/svg" width="263" height="228.241"><defs><clipPath id="a"><path data-name="Path 1333" d="m439.943 11.632-39.234-.181-8.038-.037a7.226 7.226 0 0 0-7.259 7.2l-.49 115.906a7.226 7.226 0 0 0 7.193 7.257l47.271.218a7.226 7.226 0 0 0 7.259-7.2l.49-115.907a7.226 7.226 0 0 0-7.192-7.256Z" transform="translate(-384.922 -11.414)" fill="none"/></clipPath><pattern id="b" preserveAspectRatio="none" width="100%" height="100%" viewBox="0 0 0 0"><image/></pattern></defs><g data-name="2"><path data-name="Path 771" d="M215.048 143.99a51.329 51.329 0 0 1-.093-2.31c-.09-6.466-5.498-28.574 10.382-54.47 15.583-25.404 9.089-59.744-40.864-65.384S65.56 30.296 35.149 92.535a146.517 146.517 0 0 0-6.942 16.592c-7.853 22.783-8.224 45.883 8.73 61.96 21.753 20.63 45.525-3.245 68.54 4.028 28.494 9.006 61.654 30.217 93.245 9.053 17.5-11.725 16.556-36.281 16.326-40.179Z" fill="#fcead4"/><g data-name="2"><g data-name="Layer 2"><g data-name="Layer 1" transform="translate(14.839 21.64)"><path data-name="Path 1314" d="M191.836 139.6h-47.3a10.565 10.565 0 0 1-10.337-10.58l.5-118.748A10.318 10.318 0 0 1 145.066 0l47.366.219a10.318 10.318 0 0 1 10.27 10.361l-.5 118.748a10.318 10.318 0 0 1-10.366 10.272Z" fill="#1a2e35"/><path data-name="Path 1315" d="m192.247 4.287-39.234-.181-8.038-.037a7.226 7.226 0 0 0-7.259 7.2l-.49 115.906a7.226 7.226 0 0 0 7.193 7.257l47.271.218a7.226 7.226 0 0 0 7.259-7.2l.49-115.907a7.226 7.226 0 0 0-7.192-7.256Z" fill="#fafafa"/><g data-name="Group 1171" transform="translate(137.226 4.069)" clip-path="url(#a)"><path data-name="Rectangle 852" fill="#e8e8e8" d="M-.918 14.021h63.669v44.647H-.918z"/><rect data-name="Rectangle 854" width="46.501" height="30.839" rx="6.388" transform="translate(11.957 16.864)" fill="#939598"/><rect data-name="Rectangle 856" width="18.272" height="25.762" rx="2" transform="translate(40.666 71.939)" fill="#939598"/><rect data-name="Rectangle 919" width="18.272" height="25.762" rx="2" transform="translate(19.026 71.939)" fill="#c4c4c4"/><rect data-name="Rectangle 920" width="18.272" height="25.762" rx="2" transform="translate(-2.615 71.939)" fill="#d5d5d5"/><path data-name="Rectangle 857" transform="translate(-5.234 12.453)" opacity=".3" fill="url(#b)" d="M0 0h21.034v41.711H0z"/><path data-name="Path 1318" d="M6.758 47.704H-.956V16.865h7.714a2.277 2.277 0 0 1 2.277 2.281v26.281a2.277 2.277 0 0 1-2.277 2.277Z" fill="#939598"/><path data-name="Rectangle 858" fill="#e8e8e8" d="M-1.135 106.663h63.669v34.968H-1.135z"/><rect data-name="Rectangle 860" width="46.501" height="30.839" rx="6.388" transform="translate(11.957 110.003)" fill="#939598"/><path data-name="Path 1319" d="M36.913 118.908a4.485 4.485 0 1 1 4.485-4.485 4.485 4.485 0 0 1-4.485 4.485Zm0-8.256a3.771 3.771 0 1 0 3.771 3.772 3.771 3.771 0 0 0-3.771-3.772Z" fill="#fff"/><path data-name="Path 1320" d="M20.35 126.639a.356.356 0 0 1-.284-.572l6.338-8.353a2.447 2.447 0 0 1 3.8-.12l6.266 7.256a.967.967 0 0 0 .713.339.99.99 0 0 0 .732-.3l3.931-4.067a2.447 2.447 0 0 1 3.821.381l3.08 4.811a.356.356 0 1 1-.6.384l-3.08-4.811a1.735 1.735 0 0 0-2.708-.27l-3.931 4.067a1.67 1.67 0 0 1-1.264.515 1.694 1.694 0 0 1-1.233-.586l-6.266-7.256a1.734 1.734 0 0 0-2.694.085l-6.338 8.353a.357.357 0 0 1-.283.144Z" fill="#fff"/><path data-name="Path 1321" d="M6.758 135.016h-7.8v-30.839h7.8a2.277 2.277 0 0 1 2.277 2.277v26.285a2.277 2.277 0 0 1-2.277 2.277Z" fill="#939598"/><rect data-name="Rectangle 863" width="18.205" height="2.493" rx=".643" transform="translate(40.253 63.602)" fill="#232020"/><rect data-name="Rectangle 864" width="29.519" height="2.027" rx="1" transform="translate(20.448 51.277)" fill="#808183"/><path data-name="Rectangle 865" fill="#e8e8e8" d="M-.243 121.312h62.032v9.719H-.243z"/><path data-name="Rectangle 868" fill="#232020" d="M52.442 127.96h6.144v.394h-6.144z"/><path data-name="Path 1326" d="M1.627 83.332a2.839 2.839 0 1 1 2.839-2.839 2.839 2.839 0 0 1-2.839 2.839Zm0-4.965a2.126 2.126 0 1 0 2.126 2.126 2.126 2.126 0 0 0-2.126-2.126Z" fill="#fff"/><path data-name="Path 1327" d="M-8.337 87.981a.357.357 0 0 1-.284-.572l3.811-5.023a1.614 1.614 0 0 1 2.507-.079l3.768 4.363a.443.443 0 0 0 .326.155.474.474 0 0 0 .333-.136l2.364-2.446a1.614 1.614 0 0 1 2.52.252l1.852 2.893a.357.357 0 0 1-.6.384l-1.852-2.893a.9.9 0 0 0-1.407-.14l-2.364 2.446a1.136 1.136 0 0 1-.866.353 1.165 1.165 0 0 1-.846-.4l-3.768-4.364a.9.9 0 0 0-1.4.044l-3.811 5.023a.356.356 0 0 1-.283.14Z" fill="#fff"/><path data-name="Rectangle 874" fill="#808183" d="M-8.03 96.875H8.811v.362H-8.03z"/><path data-name="Rectangle 875" fill="#808183" d="M4.873 61.846h4.093v.362H4.873z"/><path data-name="Path 1328" d="M4.133 62.919a.177.177 0 0 1-.126-.052l-.525-.525a.446.446 0 0 1 0-.629l.525-.526a.178.178 0 1 1 .252.252l-.525.525a.089.089 0 0 0 0 .126l.525.525a.178.178 0 0 1-.126.3Z" fill="#808183"/><path data-name="Rectangle 877" fill="#808183" d="M40.103 127.96h6.144v.394h-6.144z"/><path data-name="Path 1329" d="M43.853 126.166h-1.357a.881.881 0 0 1-.88-.881v-1.356a.881.881 0 0 1 .88-.881h1.356a.882.882 0 0 1 .881.882v1.351a.881.881 0 0 1-.88.885Zm-1.357-2.761a.524.524 0 0 0-.524.524v1.352a.524.524 0 0 0 .524.524h1.357a.524.524 0 0 0 .524-.524v-1.356a.525.525 0 0 0-.525-.525Z" fill="#808183"/><path data-name="Rectangle 878" fill="#808183" d="M27.912 127.96h6.144v.394h-6.144z"/><path data-name="Path 1330" d="M31.663 126.166h-1.356a.882.882 0 0 1-.881-.881v-1.356a.882.882 0 0 1 .881-.881h1.356a.882.882 0 0 1 .881.881v1.352a.882.882 0 0 1-.881.881Zm-1.356-2.761a.525.525 0 0 0-.524.524v1.352a.525.525 0 0 0 .524.524h1.356a.525.525 0 0 0 .524-.524v-1.356a.525.525 0 0 0-.524-.524Z" fill="#808183"/><path data-name="Rectangle 879" fill="#808183" d="M15.517 127.96h6.144v.394h-6.144z"/><path data-name="Path 1331" d="M19.268 126.166h-1.356a.882.882 0 0 1-.881-.881v-1.356a.882.882 0 0 1 .881-.881h1.356a.882.882 0 0 1 .881.881v1.352a.882.882 0 0 1-.881.885Zm-1.356-2.761a.525.525 0 0 0-.524.524v1.352a.525.525 0 0 0 .524.524h1.356a.525.525 0 0 0 .524-.524v-1.356a.525.525 0 0 0-.524-.524Z" fill="#808183"/><path data-name="Rectangle 880" fill="#808183" d="M3.392 127.96h6.144v.394H3.392z"/><path data-name="Rectangle 881" fill="#808183" d="M.002 13.879h62.351v.357H.002z"/><path data-name="Path 1332" d="M7.142 126.166H5.786a.882.882 0 0 1-.881-.881v-1.356a.882.882 0 0 1 .881-.881h1.356a.882.882 0 0 1 .881.881v1.352a.882.882 0 0 1-.881.885Zm-1.356-2.761a.525.525 0 0 0-.524.524v1.352a.525.525 0 0 0 .524.524h1.356a.525.525 0 0 0 .524-.524v-1.356a.525.525 0 0 0-.524-.524Z" fill="#808183"/><g data-name="photo (1)" opacity=".27"><g data-name="Group 1193"><g data-name="Group 1192"><path data-name="Path 1934" d="M-17.584 50.864h-16.227a1.873 1.873 0 0 0-1.873 1.873v16.227a1.873 1.873 0 0 0 1.873 1.873h16.227a1.873 1.873 0 0 0 1.876-1.873V52.737a1.873 1.873 0 0 0-1.876-1.873Zm.624 12.229-2.675-2.678a.624.624 0 0 0-.88 0l-3.308 3.3-3.927-3.924a.624.624 0 0 0-.88 0l-5.805 5.8V52.737a.624.624 0 0 1 .624-.624h16.227a.624.624 0 0 1 .624.624Z"/><path data-name="Path 1935" d="M-24.445 53.985a2.5 2.5 0 1 0 2.5 2.5 2.5 2.5 0 0 0-2.5-2.5Zm0 3.745a1.248 1.248 0 1 1 1.248-1.248 1.248 1.248 0 0 1-1.248 1.248Z"/></g></g></g></g><rect data-name="Rectangle 882" width="14.249" height="5.466" rx="2.733" transform="translate(142.223 8.545)" fill="#00a1a4"/><path data-name="Path 1338" d="M135.865 153.147h-47.3a10.565 10.565 0 0 1-10.337-10.58l.5-118.748a10.318 10.318 0 0 1 10.367-10.272l47.366.219a10.318 10.318 0 0 1 10.27 10.361l-.5 118.748a10.318 10.318 0 0 1-10.366 10.272Z" fill="#1a2e35"/><path data-name="Path 1339" d="m136.276 17.834-39.234-.181-8.038-.037a7.226 7.226 0 0 0-7.259 7.2l-.49 115.906a7.226 7.226 0 0 0 7.193 7.257l47.271.218a7.226 7.226 0 0 0 7.259-7.2l.49-115.907a7.226 7.226 0 0 0-7.192-7.256Z" fill="#fafafa"/><rect data-name="Rectangle 883" width="53.159" height="53.159" rx="6" transform="translate(85.729 39.951)" fill="#afafaf"/><path data-name="Rectangle 884" fill="#6d6e71" d="M85.319 98.641h53.159v.267H85.319z"/><path data-name="Path 1340" d="M138.478 36.297h-31.887c-.2 0-.357-.512-.357-1.144s.16-1.144.357-1.144h31.887c.2 0 .357.512.357 1.144s-.16 1.144-.357 1.144Z" fill="#939598"/><circle data-name="Ellipse 170" cx="1.74" cy="1.74" r="1.74" transform="translate(95.549 97.215)" fill="#00a1a4"/><path data-name="Path 1341" d="M128.505 22.91a2.079 2.079 0 0 0-2.083 2.068v.3a.116.116 0 0 0 .115.116h.6a.115.115 0 0 0 .116-.115v-.3a1.247 1.247 0 0 1 1.251-1.243 1.247 1.247 0 0 1 1.243 1.251 1.247 1.247 0 0 1-1.251 1.243l-1.663-.005a1.247 1.247 0 0 1-1.243-1.25v-.008a2.079 2.079 0 0 0-2.072-2.077h-.831a1.663 1.663 0 0 0-1.663 1.533.116.116 0 0 0 .115.125h.6a.115.115 0 0 0 .115-.1.832.832 0 0 1 .828-.728h.831a1.247 1.247 0 0 1 1.243 1.249 1.247 1.247 0 0 1-1.251 1.242l-2.078-.006a1.247 1.247 0 0 1-1.243-1.251v-.008a2.079 2.079 0 0 0-2.078-2.046h-2.078a2.079 2.079 0 0 0-2.079 2.079 2.079 2.079 0 0 0 2.079 2.079h.831a1.663 1.663 0 0 0 1.658-1.538.116.116 0 0 0-.115-.125h-.6a.115.115 0 0 0-.115.1.832.832 0 0 1-.825.73h-.831a1.247 1.247 0 0 1-1.247-1.247 1.247 1.247 0 0 1 1.247-1.247h2.078a1.247 1.247 0 0 1 1.247 1.247v.008a2.079 2.079 0 0 0 2.072 2.05l2.078.006a2.075 2.075 0 0 0 1.665-.826 2.076 2.076 0 0 0 1.66.836l1.663.005a2.079 2.079 0 0 0 2.085-2.072 2.079 2.079 0 0 0-2.074-2.075Z"/><circle data-name="Ellipse 171" cx=".624" cy=".624" r=".624" transform="translate(127.26 21.246)"/><circle data-name="Ellipse 172" cx=".624" cy=".624" r=".624" transform="translate(128.508 21.249)"/><circle data-name="Ellipse 173" cx=".624" cy=".624" r=".624" transform="translate(121.005 27.694)"/><path data-name="Path 1342" d="M124.125 27.701a.617.617 0 1 1-1.233-.014 1.4 1.4 0 1 0 1.233.014Z"/><path data-name="Path 1343" d="M136.406 22.93h-1.665a1.655 1.655 0 0 0-.832.22v-1.77a.116.116 0 0 0-.116-.116h-.6a.116.116 0 0 0-.116.116v3.9a.116.116 0 0 0 .116.116h.6a.116.116 0 0 0 .116-.116v-.693a.832.832 0 0 1 .834-.829h1.665a1.247 1.247 0 0 1 1.243 1.251 1.247 1.247 0 0 1-1.251 1.243l-2.912-.006a1.247 1.247 0 0 1-1.243-1.251v-3.621a.116.116 0 0 0-.116-.116h-.6a.116.116 0 0 0-.116.116v3.624a2.079 2.079 0 0 0 2.072 2.085l2.912.006a2.079 2.079 0 0 0 2.085-2.072 2.079 2.079 0 0 0-2.076-2.087Z"/><rect data-name="Rectangle 885" width="2.016" height="5.835" rx=".87" transform="translate(108.518 116.833)"/><rect data-name="Rectangle 886" width="2.016" height="5.835" rx=".87" transform="translate(111.595 116.833)"/><path data-name="Path 1346" d="m128.59 116.769.849.637a.212.212 0 0 1 0 .339l-.849.637a.212.212 0 0 1-.339-.17v-1.273a.212.212 0 0 1 .339-.17Z"/><path data-name="Path 1347" d="M128.64 123.271a2.937 2.937 0 1 1 0-5.873.178.178 0 1 1 0 .357 2.577 2.577 0 1 0 1.394.409.178.178 0 0 1 .193-.3 2.943 2.943 0 0 1 .727.663 2.909 2.909 0 0 1 .622 1.808 2.94 2.94 0 0 1-2.936 2.937Z"/><text data-name="۱۵" transform="translate(93.653 119.18)" font-size="2" font-family="IRANYekan"><tspan x="0" y="0">۱۵</tspan></text><path data-name="Path 1348" d="m95.59 116.769-.849.637a.212.212 0 0 0 0 .339l.849.637a.212.212 0 0 0 .339-.17v-1.273a.212.212 0 0 0-.339-.17Z"/><path data-name="Path 1349" d="M95.54 123.271a2.94 2.94 0 0 1-2.937-2.937 2.906 2.906 0 0 1 .622-1.808 2.941 2.941 0 0 1 .727-.663.178.178 0 0 1 .193.3 2.6 2.6 0 0 0-.639.583 2.554 2.554 0 0 0-.547 1.588 2.58 2.58 0 1 0 2.58-2.58.178.178 0 0 1 0-.356 2.937 2.937 0 1 1 0 5.873Z"/><path data-name="Path 1350" d="M94.656 142.161h-.068a2.2 2.2 0 0 1-1.121-4.052.178.178 0 0 1 .193.3 1.849 1.849 0 0 0-.457.416 1.827 1.827 0 0 0-.391 1.141 1.859 1.859 0 0 0 1.787 1.838 1.807 1.807 0 0 0 1.341-.52 1.829 1.829 0 0 0 .56-1.324 1.851 1.851 0 0 0-1.588-1.826.068.068 0 0 0-.052.016.077.077 0 0 0-.026.057v.744a.178.178 0 1 1-.357 0v-.739a.433.433 0 0 1 .149-.327.419.419 0 0 1 .336-.1 2.2 2.2 0 0 1-.306 4.38Z"/><path data-name="Path 1351" d="M94.003 139.292s.3.172.58.368c.071.048.15.087.211.137a.627.627 0 0 1 .129.179.671.671 0 0 1 .07.235.024.024 0 0 1-.023.026.67.67 0 0 1-.24-.052.626.626 0 0 1-.188-.116c-.055-.058-.1-.133-.152-.2-.216-.264-.41-.551-.41-.551a.018.018 0 0 1 .024-.026Z"/><text data-name="1x" transform="translate(126.167 138.572)" font-size="2" font-family="SegoeUI, Segoe UI"><tspan x="0" y="0">1x</tspan></text><path data-name="Rectangle 887" fill="#375a64" d="M55.372 121.582h4.716v31.486h-4.716z"/><path data-name="Rectangle 888" fill="#375a64" d="M52.021 117.8h35.778v4.358H52.021z"/><path data-name="Rectangle 889" fill="#375a64" d="M58.007 135.01h24.599v4.358H58.007z"/><path data-name="Rectangle 890" fill="#375a64" d="M80.249 121.582h4.716v31.486h-4.716z"/><path data-name="Path 1352" d="M87.782 122.095c0 .051-8.019.093-17.909.093s-17.911-.042-17.911-.093 8.018-.093 17.911-.093 17.909.041 17.909.093Z" fill="#1a2e35"/><path data-name="Path 1353" d="M60.108 143.034c-.051 0-.093-2.336-.093-5.218s.042-5.218.093-5.218.093 2.336.093 5.218-.042 5.218-.093 5.218Z" fill="#1a2e35"/><path data-name="Path 1354" d="M80.241 142.833c-.051 0-.093-2.171-.093-4.848s.042-4.848.093-4.848.093 2.17.093 4.848-.042 4.848-.093 4.848Z" fill="#1a2e35"/><path data-name="Path 1355" d="M87.985 118.986s-.128-.032-.37-.1a6.293 6.293 0 0 0-1.086-.153 9.93 9.93 0 0 0-3.94.749c-.8.294-1.652.684-2.579 1.072a15.852 15.852 0 0 1-3.049 1 9.11 9.11 0 0 1-3.535-.039 19.249 19.249 0 0 1-3.627-1.154c-1.207-.5-2.365-1.024-3.517-1.451a15.25 15.25 0 0 0-3.417-.884 14.647 14.647 0 0 0-5.93.456 14.417 14.417 0 0 0-3.683 1.628l-.533.344-.376.273c-.2.148-.312.223-.312.223s.1-.083.3-.235l.373-.279.53-.35a14.207 14.207 0 0 1 3.684-1.654 14.629 14.629 0 0 1 5.954-.473 15.258 15.258 0 0 1 3.433.883c1.155.427 2.315.955 3.52 1.45a19.257 19.257 0 0 0 3.613 1.152 9.057 9.057 0 0 0 3.508.043 15.87 15.87 0 0 0 3.038-.989c.927-.385 1.78-.772 2.585-1.064a9.851 9.851 0 0 1 3.96-.729 5.989 5.989 0 0 1 1.088.168l.368.113Z" fill="#1a2e35"/><path data-name="Path 1356" d="M61.12 120.01a3.986 3.986 0 0 1-1 .428 5.063 5.063 0 0 1-2.889-.012l-.049-.015.036-.036a6.281 6.281 0 0 1 2.224-1.386 6.623 6.623 0 0 1 3-.343 6.443 6.443 0 0 1 .972.207 2.847 2.847 0 0 1 .887.388.872.872 0 0 1 .381.834.936.936 0 0 1-.633.617 13.977 13.977 0 0 1-3 .685 14.455 14.455 0 0 1-2.071.091c-.489-.016-.758-.05-.758-.05h.2l.563.016a15.446 15.446 0 0 0 2.064-.114 14.206 14.206 0 0 0 2.978-.7.87.87 0 0 0 .59-.568.8.8 0 0 0-.355-.762 2.792 2.792 0 0 0-.869-.367 6.4 6.4 0 0 0-.96-.2 6.587 6.587 0 0 0-2.971.336 6.262 6.262 0 0 0-2.206 1.363l-.012-.05a5.089 5.089 0 0 0 2.862.036 5.315 5.315 0 0 0 .755-.275Z" fill="#1a2e35"/><path data-name="Path 1357" d="M85.42 120.887a.823.823 0 0 0 .16.381 1.2 1.2 0 0 0 1.014.406 1.274 1.274 0 0 0 .719-.267.821.821 0 0 0 .3-.782.879.879 0 0 0-.693-.609 3.923 3.923 0 0 0-1.071-.025 9.9 9.9 0 0 0-2.063.312 5.528 5.528 0 0 0-1.553.683 4.268 4.268 0 0 0-.872.743c-.09.1-.157.184-.2.241a.61.61 0 0 1-.07.085 2.465 2.465 0 0 1 .247-.345 4.048 4.048 0 0 1 .865-.768 5.455 5.455 0 0 1 1.564-.706 9.717 9.717 0 0 1 2.077-.32 3.938 3.938 0 0 1 1.092.029.946.946 0 0 1 .742.665.883.883 0 0 1-.327.844 1.322 1.322 0 0 1-.755.272 1.222 1.222 0 0 1-1.041-.441.717.717 0 0 1-.128-.289.606.606 0 0 1-.007-.109Z" fill="#1a2e35"/><path data-name="Path 1358" d="M87.31 117.65h-.19l-.542-.008c-.235.013-.523.027-.856.057-.331.046-.71.088-1.121.18a24.2 24.2 0 0 0-2.845.8c-1.058.349-2.211.772-3.46 1.092a11.346 11.346 0 0 1-3.6.381 8.986 8.986 0 0 1-2.869-.721 8.714 8.714 0 0 1-1.728-1 5.833 5.833 0 0 1-.564-.468s.053.038.15.115.24.191.431.329a9.051 9.051 0 0 0 4.585 1.678 11.4 11.4 0 0 0 3.579-.385c1.245-.318 2.4-.739 3.457-1.084a23.383 23.383 0 0 1 2.856-.79c.413-.089.794-.128 1.127-.17.334-.026.624-.037.859-.045l.543.022c.123.01.188.017.188.017Z" fill="#1a2e35"/><path data-name="Path 1359" d="M80.732 153.15s-.007-.109-.013-.317a6.621 6.621 0 0 1 .036-.908 12.381 12.381 0 0 1 .866-3.223 46.164 46.164 0 0 0 1.753-4.626 14.489 14.489 0 0 0 .444-2.88 14.335 14.335 0 0 0-.193-3.122 14 14 0 0 0-.873-3c-.387-.936-.818-1.821-1.1-2.716a5.884 5.884 0 0 1-.269-2.627 6.778 6.778 0 0 1 .711-2.194 10.667 10.667 0 0 1 2.028-2.647c.566-.551.907-.825.907-.825s-.078.076-.231.217-.376.35-.655.629a10.836 10.836 0 0 0-2 2.651 6.751 6.751 0 0 0-.7 2.178 5.832 5.832 0 0 0 .273 2.6c.279.888.71 1.77 1.1 2.709a14.169 14.169 0 0 1 .621 9.052 45.035 45.035 0 0 1-1.77 4.63 12.619 12.619 0 0 0-.886 3.207 7.168 7.168 0 0 0-.049.905c.003.197 0 .307 0 .307Z" fill="#1a2e35"/><path data-name="Path 1360" d="M80.144 133.477s.031.051.085.15l.229.438c.2.382.48.934.8 1.631a19.123 19.123 0 0 1 .97 2.515 10.578 10.578 0 0 1 .476 3.261 12.579 12.579 0 0 1-.528 3.256 23.549 23.549 0 0 1-.923 2.533c-.3.706-.564 1.268-.746 1.657l-.214.445c-.05.1-.079.153-.079.153s.02-.056.066-.159l.2-.451c.175-.392.43-.957.724-1.665a16.162 16.162 0 0 0 1.425-5.771 10.63 10.63 0 0 0-.467-3.241 19.761 19.761 0 0 0-.952-2.513c-.315-.7-.591-1.254-.779-1.64l-.216-.444a1.51 1.51 0 0 1-.071-.155Z" fill="#1a2e35"/><path data-name="Path 1361" d="M83.672 131.67a.192.192 0 0 1-.06-.1.355.355 0 0 1 .066-.318.425.425 0 0 1 .491-.108.8.8 0 0 1 .449.514 2.256 2.256 0 0 1 .135.824 1.845 1.845 0 0 1-.243.927.7.7 0 0 1-.42.321.482.482 0 0 1-.485-.246 4.433 4.433 0 0 1-.444-1.047 5.028 5.028 0 0 1-.139-2.176 4.952 4.952 0 0 1 1.314-2.645 3.188 3.188 0 0 1 .325-.3.659.659 0 0 1-.078.083c-.054.052-.13.131-.226.235a5.271 5.271 0 0 0-.7.97 4.963 4.963 0 0 0-.429 3.81 4.427 4.427 0 0 0 .433 1.027.411.411 0 0 0 .412.217.633.633 0 0 0 .376-.29 1.8 1.8 0 0 0 .238-.891 2.225 2.225 0 0 0-.122-.8.764.764 0 0 0-.411-.494.393.393 0 0 0-.454.087.344.344 0 0 0-.074.3.428.428 0 0 0 .046.1Z" fill="#1a2e35"/><path data-name="Path 1362" d="M85.469 143.94a.481.481 0 0 1-.046.085l-.145.237c-.129.2-.3.5-.5.885a13.471 13.471 0 0 0-1.531 6.465c.008.429.027.777.052 1.016l.023.276a.479.479 0 0 1 0 .1 9.862 9.862 0 0 1-.131-1.388 12.875 12.875 0 0 1 1.537-6.491 9.864 9.864 0 0 1 .74-1.182Z" fill="#1a2e35"/><path data-name="Path 1363" d="M80.071 137.891a22.035 22.035 0 0 1-2.831.812 26.426 26.426 0 0 1-7.069.566 26.07 26.07 0 0 1-3.882-.512c-1.182-.239-2.217-.571-3.092-.815a9.748 9.748 0 0 0-2.112-.383c-.253-.012-.451-.008-.584 0s-.2.008-.2.008a4.35 4.35 0 0 1 .79-.037 9.389 9.389 0 0 1 2.124.361c.879.238 1.913.564 3.092.8a26.543 26.543 0 0 0 3.872.505 27.061 27.061 0 0 0 7.059-.541c.887-.2 1.6-.389 2.085-.534l.56-.171c.12-.043.188-.059.188-.059Z" fill="#1a2e35"/><path data-name="Path 1364" d="M74.246 136.496a5.367 5.367 0 0 1-1.034.358 6.816 6.816 0 0 1-2.969.076 1.575 1.575 0 0 1-.46-.168.845.845 0 0 1-.369-.358.451.451 0 0 1 .106-.515 1.033 1.033 0 0 1 .51-.221 16.24 16.24 0 0 1 2.359-.222 16.914 16.914 0 0 1 5.356.752c.356.112.7.235 1.029.358l.084.032-.081.037a17.72 17.72 0 0 1-8.911 1.483 16.9 16.9 0 0 1-2.688-.465c-.621-.165-.954-.281-.954-.281s.086.02.249.064.4.12.713.19a17.852 17.852 0 0 0 11.561-1.058v.068a19.96 19.96 0 0 0-1.024-.356 16.959 16.959 0 0 0-5.333-.754 16.336 16.336 0 0 0-2.348.214.979.979 0 0 0-.481.2.392.392 0 0 0-.094.448 1.141 1.141 0 0 0 .788.5 6.88 6.88 0 0 0 2.952-.052 7.39 7.39 0 0 0 .776-.232c.171-.069.263-.098.263-.098Z" fill="#1a2e35"/><path data-name="Path 1365" d="M60.46 136.815a1.286 1.286 0 0 1 .192-.115 4.634 4.634 0 0 1 .553-.259 6.106 6.106 0 0 1 3.961-.185 4.641 4.641 0 0 1 .575.206 1.282 1.282 0 0 1 .2.1 1.3 1.3 0 0 1-.212-.07 6.166 6.166 0 0 0-.578-.183 6.46 6.46 0 0 0-3.928.183c-.239.09-.431.172-.559.236a1.3 1.3 0 0 1-.204.087Z" fill="#1a2e35"/><path data-name="Path 1366" d="M57.76 144.215s-.081-.092-.224-.278a4.082 4.082 0 0 1-.534-.871 1.907 1.907 0 0 1-.16-.722 1.361 1.361 0 0 1 .292-.825 1 1 0 0 1 .89-.426.9.9 0 0 1 .5.251 1.426 1.426 0 0 1 .311.5 4.185 4.185 0 0 1 .221 1.229 9.35 9.35 0 0 1-.012 1.353 9.123 9.123 0 0 1-.236 1.43 8.804 8.804 0 0 1-.213.728 2.678 2.678 0 0 1-.329.711.825.825 0 0 1-.689.4.919.919 0 0 1-.688-.439 2.541 2.541 0 0 1-.35-.763 9.628 9.628 0 0 1-.218-.822 10.216 10.216 0 0 1-.153-3.524 19.836 19.836 0 0 1 .846-3.433c.349-1.087.7-2.13.95-3.147a14.765 14.765 0 0 0 .28-5.521 15.144 15.144 0 0 0-.971-3.613c-.172-.408-.313-.723-.419-.93s-.154-.321-.154-.321.06.107.167.315.256.518.432.926a14.758 14.758 0 0 1 .732 9.161c-.247 1.022-.6 2.067-.947 3.153a19.857 19.857 0 0 0-.842 3.42 10.168 10.168 0 0 0 .15 3.5c.06.278.134.55.216.817a2.474 2.474 0 0 0 .339.743.851.851 0 0 0 .633.411.756.756 0 0 0 .631-.367 2.618 2.618 0 0 0 .321-.693c.082-.241.154-.482.213-.722a9.093 9.093 0 0 0 .238-1.419 9.33 9.33 0 0 0 .016-1.344 4.145 4.145 0 0 0-.213-1.213 1.027 1.027 0 0 0-.766-.721.961.961 0 0 0-.851.4 1.326 1.326 0 0 0-.289.8 1.886 1.886 0 0 0 .152.711 4.228 4.228 0 0 0 .519.873Z" fill="#1a2e35"/><path data-name="Path 1367" d="M59.914 145.189a5.96 5.96 0 0 1-.017 1.316 8.116 8.116 0 0 1-.94 3.024 6.01 6.01 0 0 1-2.087 2.366 2.042 2.042 0 0 1-.924.27 1.229 1.229 0 0 1-.352-.037c0-.01.126.019.351.008a2.093 2.093 0 0 0 .9-.287 6.127 6.127 0 0 0 2.047-2.355 8.382 8.382 0 0 0 .953-2.995 8.83 8.83 0 0 0 .064-.957v-.261a.432.432 0 0 1 .005-.092Z" fill="#1a2e35"/><path data-name="Path 1368" d="M55.769 122.117s-.019.056-.062.158a3.621 3.621 0 0 0-.159.458 4.648 4.648 0 0 0-.114 1.766 9 9 0 0 0 .727 2.532c.388.918.9 1.892 1.272 2.991a6.782 6.782 0 0 1 .308 3.22 10.382 10.382 0 0 1-.719 2.554 17.269 17.269 0 0 1-.771 1.616c-.2.372-.324.571-.324.571s.024-.054.075-.152l.224-.432c.191-.376.467-.922.748-1.622a10.526 10.526 0 0 0 .7-2.543 6.763 6.763 0 0 0-.31-3.188c-.364-1.09-.879-2.065-1.264-2.987a8.9 8.9 0 0 1-.716-2.553 4.558 4.558 0 0 1 .138-1.78 2.944 2.944 0 0 1 .247-.609Z" fill="#1a2e35"/><path data-name="Path 1369" d="M59.611 132.117a.636.636 0 0 1 .017-.111c.011-.073.04-.177.057-.316a6.588 6.588 0 0 0 .078-1.175 11.744 11.744 0 0 0-.827-3.785c-.533-1.426-1.077-2.7-1.351-3.663a9.225 9.225 0 0 1-.348-1.579.639.639 0 0 1 .027.109c.017.072.034.179.066.315.058.273.158.664.306 1.14.286.957.835 2.223 1.37 3.653a11.376 11.376 0 0 1 .81 3.809 6.052 6.052 0 0 1-.1 1.181 4 4 0 0 1-.105.422Z" fill="#1a2e35"/><path data-name="Path 1370" d="m51.379 132.806-2.057 16.077 7.037 1.132 4.363-16.332Z" fill="#ffbf9d"/><path data-name="Path 1371" d="m49.532 146.754-.092.459s-8.532 1.766-8.906 3.229l15.736 2.626.77-5.187a9.243 9.243 0 0 1-7.508-1.127Z" fill="#00a1a4"/><g data-name="Group 1172" opacity=".6"><path data-name="Path 1372" d="M55.134 149.263a.627.627 0 0 1 .307.8.643.643 0 0 1-.807.319.612.612 0 1 1 .555-1.085" fill="#fff"/></g><g data-name="Group 1173" opacity=".6"><path data-name="Path 1373" d="m56.272 153.069.185-1.248-15.15-2.06s-.758.183-.771.682Z" fill="#fff"/></g><path data-name="Path 1374" d="M49.379 147.248c-.012.076.366.174.7.481s.472.657.549.639c.074 0 .045-.474-.363-.838s-.894-.355-.886-.282Z" fill="#1a2e35"/><path data-name="Path 1375" d="M47.6 147.638c-.032.07.277.254.477.618s.211.714.288.723.208-.41-.05-.857-.7-.551-.715-.484Z" fill="#1a2e35"/><path data-name="Path 1376" d="M46.292 149.431c.067.028.246-.332.128-.779s-.446-.672-.491-.614.135.316.227.684.061.685.136.709Z" fill="#1a2e35"/><path data-name="Path 1377" d="m61.181 132.981 1.143 14.04 6.444-.933.434-13.79Z" fill="#ffbf9d"/><path data-name="Path 1378" d="M68.791 143.315s-4.325 3.49-6.735.926l-.479 1.365-1.893 9.611a1.257 1.257 0 0 0 .842 1.458 1.281 1.281 0 0 0 1.308-.346c1.746-1.877 8.136-8.812 8-9.678l-.2-2.311a1.18 1.18 0 0 0-.843-1.025Z" fill="#00a1a4"/><g data-name="Group 1174" opacity=".6"><path data-name="Path 1379" d="m60.753 156.722 9.028-10.876.035.505a1.394 1.394 0 0 1-.381 1.149c-.714 1.1-2.732 3.586-7.565 8.826a1.279 1.279 0 0 1-1.117.395Z" fill="#fff"/></g><g data-name="Group 1175" opacity=".6"><path data-name="Path 1380" d="M68.237 144.448a.729.729 0 0 0-.14.98.744.744 0 0 0 1 .14.707.707 0 1 0-.91-1.072" fill="#fff"/></g><path data-name="Path 1381" d="M63.187 151.315a3.794 3.794 0 0 0-1.139-.852 3.928 3.928 0 0 0-1.428-.164c-.013-.029.136-.132.42-.192a2.008 2.008 0 0 1 1.111.112 1.941 1.941 0 0 1 .875.674c.155.235.191.409.161.422Z" fill="#1a2e35"/><path data-name="Path 1382" d="M62.422 152.972a10.412 10.412 0 0 0-1.121-.437 10.526 10.526 0 0 0-1.206-.066 1.425 1.425 0 0 1 1.266-.19c.74.155 1.127.656 1.061.693Z" fill="#1a2e35"/><path data-name="Path 1383" d="M64.667 149.152a12.653 12.653 0 0 0-1.682-.788 12.863 12.863 0 0 0-1.845-.285 2.855 2.855 0 0 1 1.926.034 2.765 2.765 0 0 1 1.601 1.039Z" fill="#1a2e35"/><path data-name="Path 1384" d="M64.672 146.27c-.028.074-.723-.154-1.606-.123s-1.566.286-1.6.214a3.193 3.193 0 0 1 3.2-.091Z" fill="#1a2e35"/><path data-name="Path 1385" d="M62.562 146.158a1.007 1.007 0 0 1 .036-.451 3.112 3.112 0 0 1 .5-1.138 1.426 1.426 0 0 1 .686-.6.512.512 0 0 1 .553.169.783.783 0 0 1 .13.557 1.773 1.773 0 0 1-1.733 1.428 2.051 2.051 0 0 1-1.891-1.259.681.681 0 0 1 .034-.58.5.5 0 0 1 .545-.2 1.752 1.752 0 0 1 .756.493 3.484 3.484 0 0 1 .725 1.012 1.043 1.043 0 0 1 .14.431 5.549 5.549 0 0 0-1-1.309 1.638 1.638 0 0 0-.67-.414.268.268 0 0 0-.3.107.467.467 0 0 0 0 .382 1.832 1.832 0 0 0 1.652 1.073 1.54 1.54 0 0 0 1.489-1.191.567.567 0 0 0-.074-.393.277.277 0 0 0-.3-.1 1.29 1.29 0 0 0-.591.494 4.6 4.6 0 0 0-.687 1.489Z" fill="#1a2e35"/><path data-name="Path 1386" d="M85.29 103.404s3.471 12.345-5.993 14.487l-11.717.149-9.109 24.332-9.087-.635 3.32-27.335a8.054 8.054 0 0 1 6.282-6.951l19.552-4.275Z" fill="#1a2e35"/><path data-name="Path 1387" d="M60.736 48.6c-6.027-.266-6.771 2.991-7.152 3.866a14.772 14.772 0 0 0-.691 3.264c-.178 1.337.4 1.763-.134 2.674a2.32 2.32 0 0 0-.077 2.867 11.186 11.186 0 0 1 1.637 2.569c.2.686.373.809-.009 1.472-.72 1.251.931 2.5 2.482 3.517a4.415 4.415 0 0 0 2.428.881c1.4.01 4.048 1.525 4.68.859 1.746-1.842 2.532-5.773 5.7-6.961" fill="#1a2e35"/><path data-name="Path 1388" d="m44.833 87.084-4.052-4.1a.3.3 0 0 0-.283-.078l-4.7 1.213a.295.295 0 0 0-.139.49l7.778 8.1s5.818-1.585 5.646-1.661-4.25-3.964-4.25-3.964Z" fill="#1a2e35"/><path data-name="Path 1389" d="m39.281 89.266.088-.222a.609.609 0 0 1 .6-.384 29.883 29.883 0 0 1 3.1.251.619.619 0 0 1-.478.823 6.569 6.569 0 0 1-1.9.013l1.007 1.146.326-.432a.458.458 0 0 1 .38-.134l1.782.211s.158.7-.371.806a4.832 4.832 0 0 1-1.187.053l-.206 1.31 1.879 1.447-.687 1.051-2.486-1.257-.4-1.273a.609.609 0 0 1 .03-.441l.134-.285-.476-.331a.609.609 0 0 1-.253-.6l.061-.355-.788-.721a.609.609 0 0 1-.155-.676Z" fill="#ffbf9d"/><path data-name="Path 1390" d="m47.502 92.974-1.236-1.052-3.645-.523-.206 1.309-1.294 1.241 4.922 2.488Z" fill="#ffbf9d"/><path data-name="Path 1391" d="M45.728 87.369a1.018 1.018 0 0 0 .717-.235l.2-.169a1.365 1.365 0 0 1 1.386-.5l2.8 1.086 3.023 2.45-1.5 3.788-5.2-1.352a2.115 2.115 0 0 1-1.31-1.008l-.5-.885s-1.77-.69-1.622-1.675l-3.876-.8a.569.569 0 0 1 .343-.783 37.324 37.324 0 0 1 5.539.083Z" fill="#ffbf9d"/><path data-name="Path 1392" d="M46.557 89.454a31.679 31.679 0 0 1-3.373-.606 31.681 31.681 0 0 1-3.336-.788 31.7 31.7 0 0 1 3.374.606 31.718 31.718 0 0 1 3.336.787Z" fill="#ff9a6c"/><path data-name="Path 1393" d="M46.742 91.245c-.031.043-.335-.127-.716-.317s-.7-.335-.681-.385a1.359 1.359 0 0 1 .765.219c.395.198.662.443.632.483Z" fill="#ff9a6c"/><path data-name="Path 1394" d="M43.174 93.625a6.33 6.33 0 0 1-.911-.884l-.027-.029.007-.041c.06-.334.11-.7.211-1.129a.4.4 0 0 1 .2-.237.745.745 0 0 1 .261-.059l.454-.031a2.483 2.483 0 0 1 .418-.009.393.393 0 0 0 .286-.064.521.521 0 0 0 .136-.422c-.006-.117-.039-.172-.029-.181s.07.043.1.17a.563.563 0 0 1-.121.532.518.518 0 0 1-.382.119 2.686 2.686 0 0 0-.4.026l-.445.041c-.166.017-.265.04-.306.177-.087.374-.155.778-.226 1.1l-.02-.07a6.333 6.333 0 0 1 .794.991Z" fill="#ff9a6c"/><path data-name="Path 1395" d="M40.416 89.264c.312.467 2.315.534 2.5.5a.619.619 0 0 1 .47.084.268.268 0 0 1-.048.468l-1.82.767Z" fill="#ffbf9d"/><path data-name="Path 1396" d="M42.984 90.397c0 .02-.1.023-.264.025-.082 0-.181 0-.291.011a1.311 1.311 0 0 0-.17.022.524.524 0 0 0-.079.023.176.176 0 0 0-.027.015c-.005 0-.006.025.005-.026l-.014.043c-.11.18-.24.38-.385.586a5.324 5.324 0 0 1-1.075 1.245 11.743 11.743 0 0 1 .923-1.352l.4-.57-.013.043a.136.136 0 0 1 .069-.1.324.324 0 0 1 .063-.03.631.631 0 0 1 .11-.025 1.247 1.247 0 0 1 .192-.009 2.239 2.239 0 0 1 .3.028c.165.023.258.054.256.071Z" fill="#ff9a6c"/><path data-name="Path 1397" d="M43.136 89.75a7.059 7.059 0 0 1-1.608.074 1.461 1.461 0 0 0-.587.06.759.759 0 0 0-.356.287c-.157.23-.229.4-.257.39a.86.86 0 0 1 .146-.461.835.835 0 0 1 .4-.375 1.448 1.448 0 0 1 .647-.088 7.066 7.066 0 0 1 1.615.113Z" fill="#ff9a6c"/><g data-name="Group 1176" opacity=".3"><path data-name="Path 1398" d="M68.287 98.165a3.139 3.139 0 0 0 2.389-.8 8.655 8.655 0 0 0 1.4-1.857c.693-1.452 1.936-3.357 2.562-4.55.039.346-1.005 3.794-1.1 5.461a3.852 3.852 0 0 0 .574 2.625c.39.5.975.8 1.4 1.269a2.753 2.753 0 0 1 .194 3.37 1.483 1.483 0 0 1-1.612.67 1.4 1.4 0 0 1-.708-.7 7.326 7.326 0 0 1-.35-.958 6.446 6.446 0 0 0-2.654-3.34 19.861 19.861 0 0 0-1.982-1.248"/></g><path data-name="Path 1399" d="m45.789 97.068 7.752 2.592a7.857 7.857 0 0 0 7.932-1.736l2.74-2.6-8.1-2.188-4.343.49-4.011-1.286Z" fill="#ff4f5b"/><path data-name="Path 1416" d="M86.885 101.886a22.872 22.872 0 0 0-.578-1.658c-.861-2.191-4.857-11.264-4.719-13.29q.013-.19.034-.384c.5-4.618 1.04-12.142-.736-15.883-1.166-2.456-8.425-3.609-8.425-3.609l-8.4 1.728-3.856 3.381a3.5 3.5 0 0 0-1.148 2.079l-3.527 22 7.145-.511.553-6.387.8 8.435s6.784 5.277 8.983 6.254a2.692 2.692 0 0 0 .993.211l-5.11 4.456.381 9.266s8.466.564 12.061-.208a6.81 6.81 0 0 0 3.977-2.222c3.134-3.662 2.944-9.171 1.572-13.658Z" fill="#ff4f5b"/><g data-name="Group 1177" opacity=".3"><path data-name="Path 1418" d="M47.223 93.625s1.909.5 3.111.82a1.071 1.071 0 0 1 .782 1.227 1.072 1.072 0 0 0 .908 1.252c2.653.366 9.171 1.251 9.294 1.14.154-.14 1.276-1.289 1.276-1.289l-10.408-2.391.168-.6-4.69-1.22Z"/></g><path data-name="Path 1419" d="M63.56 89.243a1.457 1.457 0 0 1-.147-.311l-.357-.892.017.024a5.043 5.043 0 0 1-1.329-1.659 5.951 5.951 0 0 1-.571-2.733c0-.863.083-1.675.107-2.412a8.735 8.735 0 0 0-.116-1.944 5.282 5.282 0 0 0-.632-1.673.43.43 0 0 1 .086.094 2.73 2.73 0 0 1 .2.3 4.3 4.3 0 0 1 .47 1.252 8.269 8.269 0 0 1 .158 1.975c-.015.745-.094 1.557-.093 2.406a5.96 5.96 0 0 0 .534 2.66 5.189 5.189 0 0 0 1.255 1.646l.012.011V88l.308.91a1.455 1.455 0 0 1 .098.333Z" fill="#1a2e35"/><path data-name="Path 1420" d="M80.325 92.849a1.411 1.411 0 0 1 .053.388 6.405 6.405 0 0 1-.024 1.068 7.355 7.355 0 0 1-3.751 5.689 6.407 6.407 0 0 1-.972.443 1.408 1.408 0 0 1-.378.1c-.013-.033.521-.2 1.284-.66a7.678 7.678 0 0 0 3.687-5.592c.12-.88.066-1.435.101-1.436Z" fill="#1a2e35"/><path data-name="Path 1516" d="M73.401 69.115c.009.009-.149.177-.38.467a8.068 8.068 0 0 0-1.365 2.537c-.115.353-.168.577-.18.574a.679.679 0 0 1 .024-.161c.019-.1.055-.25.106-.429a6.98 6.98 0 0 1 1.379-2.557 4.44 4.44 0 0 1 .3-.325.683.683 0 0 1 .116-.106Z" fill="#fafafa"/><path data-name="Path 1517" d="M73.201 70.92a2.4 2.4 0 0 0-1.5.92 1.725 1.725 0 0 1 1.5-.92Z" fill="#fafafa"/><path data-name="Path 1518" d="M73.534 69.995c.007.022-.329.13-.7.349s-.631.457-.646.44a2.457 2.457 0 0 1 1.346-.79Z" fill="#fafafa"/><path data-name="Path 1519" d="M71.91 70.068a2.516 2.516 0 0 1-.012 1.307c-.021 0 .016-.294.018-.653s-.027-.651-.006-.654Z" fill="#fafafa"/><path data-name="Path 1520" d="M72.573 69.101a2.782 2.782 0 0 1-.374 1.606c-.021-.01.135-.348.236-.791s.115-.815.138-.815Z" fill="#fafafa"/><path data-name="Path 1521" d="M73.436 70.003a.034.034 0 0 0-.054.013.054.054 0 0 0 .021.059.151.151 0 0 0 .062.024.959.959 0 0 0 .38.016c.027-.005.058-.016.067-.043s-.014-.058-.038-.076a.316.316 0 0 0-.276-.051.454.454 0 0 0 .228-.077c.025-.017.051-.047.038-.075s-.046-.027-.073-.024a.625.625 0 0 0-.237.079.272.272 0 0 0 .146-.2.07.07 0 0 0-.014-.065.053.053 0 0 0-.059 0 .144.144 0 0 0-.044.045 1.338 1.338 0 0 0-.2.406" fill="#fafafa"/><path data-name="Path 1522" d="M73.403 69.121c-.024-.012-.054.015-.052.043a.068.068 0 0 0 .053.056.175.175 0 0 0 .08-.006 1.126 1.126 0 0 0 .424-.181.1.1 0 0 0 .051-.083c0-.038-.045-.058-.08-.067a.369.369 0 0 0-.328.087.552.552 0 0 0 .21-.208c.019-.033.032-.08 0-.105s-.064-.007-.093.011a.759.759 0 0 0-.219.214.351.351 0 0 0 .061-.3.088.088 0 0 0-.049-.067.063.063 0 0 0-.066.029.185.185 0 0 0-.025.074 1.746 1.746 0 0 0-.01.568" fill="#fafafa"/><path data-name="Path 1571" d="M68.879 75.47c0 .012-.213.09-.55.245a8.066 8.066 0 0 0-2.365 1.646c-.262.263-.411.439-.42.431a.681.681 0 0 1 .094-.133c.063-.083.162-.2.289-.335a6.98 6.98 0 0 1 2.381-1.657 4.86 4.86 0 0 1 .414-.155.684.684 0 0 1 .157-.042Z" fill="#fafafa"/><path data-name="Path 1572" d="M67.886 76.989a2.4 2.4 0 0 0-1.751.143 1.725 1.725 0 0 1 1.751-.143Z" fill="#fafafa"/><path data-name="Path 1573" d="M68.6 76.315c0 .022-.352-.033-.782-.005s-.769.122-.776.1a2.457 2.457 0 0 1 1.557-.1Z" fill="#fafafa"/><path data-name="Path 1574" d="M67.12 75.645a2.516 2.516 0 0 1-.6 1.16c-.017-.013.147-.255.312-.574s.267-.593.288-.586Z" fill="#fafafa"/><path data-name="Path 1575" d="M68.148 75.083a2.783 2.783 0 0 1-1.06 1.263c-.014-.018.277-.249.569-.6s.471-.67.491-.663Z" fill="#fafafa"/><path data-name="Path 1576" d="M67.082 75.779a.607.607 0 0 0 .247-.292c.016-.041.025-.1-.01-.123a.079.079 0 0 0-.1.013.23.23 0 0 0-.051.1.686.686 0 0 0-.058-.165c-.012-.024-.034-.051-.06-.043s-.029.039-.029.064v.179c-.026-.019-.03-.055-.043-.085s-.049-.058-.075-.038-.015.048-.007.072a.852.852 0 0 0 .178.3" fill="#fafafa"/><path data-name="Path 1577" d="M68.51 76.277a.034.034 0 0 0-.054-.013.054.054 0 0 0-.007.062.151.151 0 0 0 .045.049.96.96 0 0 0 .332.186.08.08 0 0 0 .079-.008.076.076 0 0 0 0-.085.316.316 0 0 0-.224-.17.454.454 0 0 0 .238.034c.03 0 .067-.019.068-.049s-.029-.045-.055-.055a.624.624 0 0 0-.247-.037.272.272 0 0 0 .219-.108.07.07 0 0 0 .017-.065.053.053 0 0 0-.052-.029.145.145 0 0 0-.059.02 1.337 1.337 0 0 0-.361.273" fill="#fafafa"/><path data-name="Path 1578" d="M68.882 75.478c-.016-.022-.055-.011-.066.015a.068.068 0 0 0 .022.074.175.175 0 0 0 .074.031 1.125 1.125 0 0 0 .46.031.1.1 0 0 0 .084-.051.094.094 0 0 0-.041-.1.369.369 0 0 0-.332-.071.552.552 0 0 0 .281-.09c.032-.021.065-.057.051-.092s-.054-.035-.088-.032a.758.758 0 0 0-.292.092.351.351 0 0 0 .189-.24.088.088 0 0 0-.013-.082.063.063 0 0 0-.072 0 .185.185 0 0 0-.056.055 1.748 1.748 0 0 0-.265.5" fill="#fafafa"/><path data-name="Path 1587" d="M61.678 72.475c.011-.005.113.2.3.519a8.067 8.067 0 0 0 1.9 2.167c.29.231.482.359.475.37a.679.679 0 0 1-.142-.078 5.097 5.097 0 0 1-.365-.25 6.981 6.981 0 0 1-1.912-2.182c-.09-.163-.158-.3-.2-.394a.68.68 0 0 1-.056-.152Z" fill="#fafafa"/><path data-name="Path 1588" d="M63.299 73.293a2.4 2.4 0 0 0 .337 1.725 1.725 1.725 0 0 1-.337-1.725Z" fill="#fafafa"/><path data-name="Path 1589" d="M62.547 72.659c.023 0 .006.354.082.778s.207.751.186.76a2.456 2.456 0 0 1-.268-1.538Z" fill="#fafafa"/><path data-name="Path 1590" d="M62.049 74.204a2.515 2.515 0 0 1 1.22.469c-.011.019-.27-.118-.606-.246s-.618-.202-.614-.223Z" fill="#fafafa"/><path data-name="Path 1591" d="M61.375 73.244a2.782 2.782 0 0 1 1.373.913c-.016.016-.279-.248-.659-.5s-.723-.392-.714-.413Z" fill="#fafafa"/><path data-name="Path 1592" d="M62.186 74.226a.607.607 0 0 0-.317-.213c-.043-.012-.1-.014-.122.023a.079.079 0 0 0 .024.1.23.23 0 0 0 .1.04.684.684 0 0 0-.158.076c-.022.015-.047.039-.036.064s.042.025.067.022q.089-.01.178-.024c-.016.028-.052.036-.08.052s-.052.055-.03.078.049.01.072 0a.851.851 0 0 0 .279-.21" fill="#fafafa"/><path data-name="Path 1593" d="M62.522 72.752a.034.034 0 0 0-.007.055.054.054 0 0 0 .063 0 .151.151 0 0 0 .044-.05.959.959 0 0 0 .148-.35.08.08 0 0 0-.016-.077.076.076 0 0 0-.084.009.316.316 0 0 0-.144.241.454.454 0 0 0 .007-.241c-.007-.03-.026-.065-.056-.062s-.042.034-.048.061a.624.624 0 0 0-.009.25.272.272 0 0 0-.132-.205.07.07 0 0 0-.066-.01.053.053 0 0 0-.023.055.144.144 0 0 0 .026.057 1.337 1.337 0 0 0 .311.328" fill="#fafafa"/><path data-name="Path 1594" d="M61.687 72.471c-.02.018-.005.056.022.064a.068.068 0 0 0 .071-.031.176.176 0 0 0 .023-.077 1.126 1.126 0 0 0-.021-.46c-.01-.032-.026-.069-.06-.077s-.07.021-.091.052a.369.369 0 0 0-.034.338.552.552 0 0 0-.121-.269c-.024-.029-.064-.058-.1-.041s-.029.058-.022.091a.758.758 0 0 0 .124.28.351.351 0 0 0-.259-.162.088.088 0 0 0-.08.022.063.063 0 0 0 0 .072.185.185 0 0 0 .06.05 1.748 1.748 0 0 0 .529.208" fill="#fafafa"/><path data-name="Path 1595" d="M78.201 69.968a.8.8 0 0 1-.124.01l-.364.014a3.954 3.954 0 0 0-1.358.36 7.459 7.459 0 0 0-3.345 4.015l-7.1 14.87-.023.047h-.057c-3.585.065-8.045-.024-12.18.051l.084-.058c-.482 1.211-.477 2.655-.994 3.956l-.471 1.181-.065-.125 16.648 3.835h-.033a4.456 4.456 0 0 0 2.012-1 3.4 3.4 0 0 0 .675-.861l.556-.941 2.039-3.555 3.3-5.811 2.131-3.752.568-.988.149-.252a.05.05 0 1 1 .012.007l-.137.258-.546 1-2.091 3.774-3.266 5.83-2.025 3.564-.555.946a3.561 3.561 0 0 1-.7.9 4.606 4.606 0 0 1-2.089 1.048h-.033l-16.653-3.814-.106-.024.04-.1.47-1.181c.518-1.3.513-2.744 1-3.955l.023-.057h.061c4.134-.069 8.595.024 12.18-.036l-.075.048 7.157-14.843a7.465 7.465 0 0 1 3.421-4.029 3.848 3.848 0 0 1 1.38-.338h.367a.782.782 0 0 1 .117.006Z" fill="#1a2e35"/><path data-name="Path 1596" d="M72.265 101.09a8.733 8.733 0 0 0-6.87-3.407 15.822 15.822 0 0 0-6.134 1.969c-4.639 2.63-3.775 8.613-3.775 8.613l5.042 31.7 9.331-1.206-1.022-30.474 5.18-3.95Z" fill="#1a2e35"/><path data-name="Path 1597" d="M74.164 104.254a.533.533 0 0 1-.088.087l-.271.238-1.052.9-3.857 3.231.026-.059c.145 3.023.3 6.912.429 11.142l.387 12.756.121 3.86.027 1.051v.274a.047.047 0 1 1-.019 0l-.021-.273-.062-1.05-.18-3.864c-.138-3.263-.285-7.773-.441-12.755a1367.61 1367.61 0 0 0-.389-11.141v-.032l.028-.023 3.9-3.182 1.077-.865.285-.222a.53.53 0 0 1 .1-.073Z" fill="#375a64"/><path data-name="Path 1598" d="M69.859 137.288a.411.411 0 0 1 .008.095l.008.28.015 1.1v.028h-.028l-9.325 1.251-.075.01-.012-.075-2.083-13.024-2.647-16.82a13.985 13.985 0 0 1-.009-5.148 7.154 7.154 0 0 1 .383-1.353 2.464 2.464 0 0 1 .223-.437.619.619 0 0 1-.049.114 4.921 4.921 0 0 0-.139.336 7.81 7.81 0 0 0-.346 1.352 14.254 14.254 0 0 0 .067 5.114l2.7 16.811 2.057 13.032-.087-.065 9.336-1.16-.028.031.015-1.1.008-.28a.416.416 0 0 1 .008-.092Z" fill="#375a64"/><path data-name="Path 1599" d="M67.011 103.419a2.445 2.445 0 0 1 .457.622 8.1 8.1 0 0 1 1.121 3.529 2.445 2.445 0 0 1-.015.772 12.2 12.2 0 0 0-1.564-4.922Z" fill="#375a64"/><path data-name="Path 1600" d="M71.901 68.802c.7-.71.292-1.119.029-1.818l-5.009-14.963c-2.174-4.906-8.562-1.991-8.562-1.991-3.012 1.106-3.439 4.495-2.743 6.806a42.911 42.911 0 0 0 2.81 7.435c1.995 3.543 5.058 2.952 5.058 2.952l1.267 3.416a1.99 1.99 0 0 0 2.973.961Z" fill="#ffbf9d"/><path data-name="Path 1601" d="M57.387 59.348a.515.515 0 0 0 .646.314.493.493 0 0 0 .336-.62.515.515 0 0 0-.646-.315.493.493 0 0 0-.337.621Z" fill="#1a2e35"/><path data-name="Path 1602" d="M56.938 58.698c.083.041.349-.366.869-.557s1-.073 1.03-.157c.017-.038-.086-.129-.3-.189a1.413 1.413 0 0 0-.853.048 1.357 1.357 0 0 0-.662.522c-.112.181-.123.315-.084.333Z" fill="#1a2e35"/><path data-name="Path 1603" d="M62.251 57.786a.515.515 0 0 0 .646.314.493.493 0 0 0 .336-.62.515.515 0 0 0-.646-.315.493.493 0 0 0-.337.62Z" fill="#1a2e35"/><path data-name="Path 1604" d="M62.048 56.803c.083.041.349-.366.869-.557s1-.073 1.03-.157c.017-.038-.085-.13-.3-.189a1.413 1.413 0 0 0-.853.048 1.358 1.358 0 0 0-.662.522c-.112.181-.124.312-.084.333Z" fill="#1a2e35"/><path data-name="Path 1605" d="M61.72 61.369a3.664 3.664 0 0 0-.9.161c-.138.036-.273.056-.329-.027a.72.72 0 0 1-.057-.426l.018-1.156a18.513 18.513 0 0 0-.1-2.97 18.544 18.544 0 0 0-.14 2.971v1.156a.819.819 0 0 0 .124.546.355.355 0 0 0 .29.113.961.961 0 0 0 .237-.052 3.607 3.607 0 0 0 .857-.316Z" fill="#1a2e35"/><path data-name="Path 1606" d="M63.483 67.223a10.216 10.216 0 0 0 4.543-3.216s-.264 3.04-4.163 4.086Z" fill="#ff9a6c"/><path data-name="Path 1607" d="M62.604 63.07a.488.488 0 0 1 .252-.873.432.432 0 0 1 .122-.517.62.62 0 0 1 .545-.1.85.85 0 0 1 .607.833.931.931 0 0 1-.639.826 1.029 1.029 0 0 1-1.023-.267" fill="#ff9a6c"/><path data-name="Path 1608" d="M63.382 61.161c-.086.027.122.591-.212 1.17s-.958.74-.933.821c.005.038.175.06.431-.027a1.5 1.5 0 0 0 .79-.653 1.3 1.3 0 0 0 .142-.968c-.066-.244-.181-.361-.218-.343Z" fill="#1a2e35"/><path data-name="Path 1609" d="M61.257 56.061c.1.122.6-.137 1.234-.29s1.192-.169 1.226-.326c.014-.074-.121-.175-.371-.238a2.2 2.2 0 0 0-1.874.469c-.192.174-.263.326-.215.385Z" fill="#1a2e35"/><path data-name="Path 1610" d="M56.224 57.055c.135.084.448-.171.876-.337.422-.181.824-.216.862-.37.015-.074-.087-.17-.287-.223a1.359 1.359 0 0 0-1.4.57c-.108.177-.113.317-.051.36Z" fill="#1a2e35"/><path data-name="Path 1611" d="M64.262 58.124a.116.116 0 1 1-.113-.122.117.117 0 0 1 .113.122Z" fill="#1a2e35"/><path data-name="Path 1612" d="m74.303 67.562.694.069.312-1.114c-1.586-.8 1.062-3.127-2.012-5.875s1.093-3.813-1.583-7.441a11.483 11.483 0 0 0-3.131-3.069 4.684 4.684 0 0 1-.63-.475 19.642 19.642 0 0 0-1.545-1.4 2.668 2.668 0 0 0-1.456-.532 4.238 4.238 0 0 0-.979-.276 8.371 8.371 0 0 0-4.388.967c-1.353.571-4.99.433-3.839 4.153a1.23 1.23 0 0 1 1.9-.523 2.232 2.232 0 0 1 .889 1.451c.162.866.417 1.826 1.467 2.049a1.831 1.831 0 0 0 .778-.011c.876-.2 1.58-1.522 3.252-1.207 0 0 1.628.505 1.724 1.528s-.472 2.925.531 3.83 1.172.88 1.143 1.661c-.006.179-.008.3-.017.392-.128 1.238.113 7.242 5.048 5.325l1.842.5" fill="#1a2e35"/><path data-name="Path 1613" d="M72.191 67.562c.006 0 .022.029.047.092a1.091 1.091 0 0 1 .064.29.949.949 0 0 1-.078.47 1.564 1.564 0 0 1-.38.5 11 11 0 0 1-1.25.994l-1.625 1.065a7.923 7.923 0 0 1-.871.526 5.622 5.622 0 0 1-.89.335 5.245 5.245 0 0 1-.844.17 1.2 1.2 0 0 1-.746-.2 2.149 2.149 0 0 1-.739-.8.852.852 0 0 1-.13-.375c.015 0 .057.129.192.339a2.26 2.26 0 0 0 .743.718 1.083 1.083 0 0 0 .661.157 5.4 5.4 0 0 0 .814-.182 5.726 5.726 0 0 0 .858-.335 8.218 8.218 0 0 0 .848-.517l1.633-1.053a12.7 12.7 0 0 0 1.257-.949 1.121 1.121 0 0 0 .474-.871c-.004-.235-.056-.37-.038-.374Z" fill="#1a2e35"/><path data-name="Path 1614" d="M36.323 126.044a4.615 4.615 0 0 1 2.393-3.056 5.6 5.6 0 0 1 4.064.238 14.609 14.609 0 0 0 3.979 1.2 3.24 3.24 0 0 0 3.371-1.9 3.628 3.628 0 0 0-1.3-3.486 8.227 8.227 0 0 0-13.479 3.236" fill="#ff4f5b"/><g data-name="Group 1191"><path data-name="Path 1337" d="M199.136 153.003c0 .053-38.369.1-85.688.1-47.336 0-85.7-.043-85.7-.1s38.36-.1 85.7-.1c47.32.004 85.688.047 85.688.1Z" fill="#1a2e35"/><path data-name="Path 1615" d="M37.521 125.003a4.767 4.767 0 0 1 2.472-3.157 5.782 5.782 0 0 1 4.2.246 15.091 15.091 0 0 0 4.111 1.236 3.347 3.347 0 0 0 3.482-1.963 3.748 3.748 0 0 0-1.347-3.6 8.5 8.5 0 0 0-13.924 3.343" fill="#457c21"/><path data-name="Path 1616" d="M26.159 130.765c-2.1-2-2-5.478-.95-8.184a12.4 12.4 0 0 1 5.9-6.153 18.682 18.682 0 0 1 16.282-.528 7.728 7.728 0 0 0-6.248 3.669c-1.153 1.915-1.409 4.239-2.362 6.261a9.857 9.857 0 0 1-12.621 4.934" fill="#67ae44"/><path data-name="Path 1617" d="M25.148 118.755c-2.329-2.75-2.64-7.164-2.3-10.752s1.175-7.2.609-10.757c-.335-2.109-1.153-4.122-1.43-6.239s.115-4.511 1.756-5.878c1.886-1.571 4.854-1.2 6.816.275a12.774 12.774 0 0 1 3.928 6.1c1.824 5.073 2.494 10.7 1 15.878s-5.017 9.81-10.179 11.373" fill="#67ae44"/><path data-name="Path 1618" d="M24.03 141.317a1.948 1.948 0 0 1-.009-.317c0-.208 0-.514.017-.909.03-.789.106-1.93.282-3.33a44.473 44.473 0 0 1 .9-4.877 22.488 22.488 0 0 1 2.226-5.647 23.535 23.535 0 0 1 3.637-4.862 23.144 23.144 0 0 1 3.813-3.171c.582-.4 1.145-.708 1.629-.991.5-.261.931-.475 1.286-.646l.838-.352a1.941 1.941 0 0 1 .3-.11 1.968 1.968 0 0 1-.282.146l-.821.384c-.349.181-.776.4-1.266.673-.477.291-1.032.6-1.606 1.01a23.963 23.963 0 0 0-7.357 8.013 29.2 29.2 0 0 0-3.154 10.447 46.714 46.714 0 0 0-.342 3.316l-.053.906a1.956 1.956 0 0 1-.038.317Z" fill="#1a2e35"/><path data-name="Path 1619" d="M3.937 107.907c-4.31 2.6-4.3 4.968-3.577 7.2s3.365 3.786 5.558 2.95a6.8 6.8 0 0 0 2.9-2.633 12.181 12.181 0 0 1 2.563-3.019 3.285 3.285 0 0 1 3.713-.3" fill="#ff4f5b"/><path data-name="Path 1620" d="M3.937 107.907c-4.31 2.6-4.3 4.968-3.577 7.2s3.365 3.786 5.558 2.95a6.8 6.8 0 0 0 2.9-2.633 12.181 12.181 0 0 1 2.563-3.019 3.285 3.285 0 0 1 3.713-.3" fill="#457c21"/><path data-name="Path 1621" d="M.71 110.759c1.127-1.557 3.911-2.008 5.669-1.231a11.345 11.345 0 0 1 4.2 3.856 17.164 17.164 0 0 0 3.871 4.233c1.6 1.07 3.827 1.458 5.418.38a4.656 4.656 0 0 0 1.841-3.187 10.608 10.608 0 0 0-.253-3.758 8.1 8.1 0 0 0-2.448-4.844c-1.612-1.28-3.849-1.34-5.907-1.273a22.13 22.13 0 0 0-6.974 1.07 9.68 9.68 0 0 0-5.417 4.752" fill="#67ae44"/><path data-name="Path 1622" d="M20.447 137.866a.353.353 0 0 1-.012-.095c0-.074-.009-.165-.015-.278l-.037-1.07-.113-3.934c-.047-1.649-.12-3.638-.24-5.831s-.285-4.6-.618-7.112a22.914 22.914 0 0 0-.714-3.612 18.749 18.749 0 0 0-1.321-3.16 18.223 18.223 0 0 0-1.666-2.616 17.027 17.027 0 0 0-1.82-2 13.378 13.378 0 0 0-3.226-2.2c-.211-.1-.394-.191-.559-.258l-.421-.163-.258-.1a.358.358 0 0 1-.086-.042.346.346 0 0 1 .092.023l.265.086.429.147c.168.062.355.152.569.243a12.906 12.906 0 0 1 3.286 2.167 16.807 16.807 0 0 1 1.854 2 18.108 18.108 0 0 1 1.7 2.63 18.7 18.7 0 0 1 1.344 3.187 22.8 22.8 0 0 1 .725 3.642c.334 2.519.491 4.933.6 7.128s.164 4.175.2 5.836.047 3.007.052 3.936v1.348a.352.352 0 0 1-.008.095Z" fill="#1a2e35"/><path data-name="Path 1623" d="M21.998 139.813a12.382 12.382 0 0 1-.472-1.851 19.434 19.434 0 0 1-.2-5.2 34.56 34.56 0 0 1 1.642-7.545c.884-2.773 2.085-5.738 3.111-8.926a41.014 41.014 0 0 0 1.238-4.722 42.072 42.072 0 0 0 .611-4.506 65.894 65.894 0 0 0 .137-7.705c-.074-2.2-.191-3.97-.264-5.2l-.083-1.413-.017-.368a.617.617 0 0 1 0-.126.605.605 0 0 1 .019.124l.036.366.119 1.41c.1 1.225.233 3 .325 5.2a63.615 63.615 0 0 1-.1 7.725 41.592 41.592 0 0 1-.6 4.528 40.642 40.642 0 0 1-1.239 4.745c-1.029 3.2-2.235 6.16-3.126 8.922a35.1 35.1 0 0 0-1.676 7.5 20.069 20.069 0 0 0 .136 5.175c.106.6.2 1.071.288 1.383l.087.358a.608.608 0 0 1 .028.126Z" fill="#1a2e35"/><path data-name="Path 1624" d="M32.684 141.761H12.442l-.462-3.9h20.7Z" fill="#19304c"/><path data-name="Path 1625" d="m14.618 141.317 2.53 11.685h11l2.368-11.685Z" fill="#19304c"/><path data-name="Path 1626" d="M32.683 141.761c0 .053-4.45.084-9.937.069s-9.937-.071-9.937-.124 4.449-.084 9.938-.069 9.936.071 9.936.124Z" fill="#375a64"/><path data-name="Path 1627" d="M29.21 147.528a8.35 8.35 0 0 0-1.782-1.022 6.3 6.3 0 0 0-2.167-.435 7.623 7.623 0 0 0-2.664.489c-.922.312-1.784.675-2.623.875a6.245 6.245 0 0 1-2.267.068 4.669 4.669 0 0 1-1.457-.461 2.827 2.827 0 0 1-.351-.223c-.076-.057-.114-.09-.11-.1s.173.1.494.251a5.1 5.1 0 0 0 1.443.394 6.358 6.358 0 0 0 2.208-.106c.81-.2 1.671-.57 2.6-.884a7.573 7.573 0 0 1 2.731-.484 6.2 6.2 0 0 1 2.214.486 5.739 5.739 0 0 1 1.319.769 3.418 3.418 0 0 1 .314.271c.069.071.104.108.098.112Z" fill="#1a2e35"/><path data-name="Path 1628" d="M29.057 148.309a8.8 8.8 0 0 0-1.712-1.008 5.8 5.8 0 0 0-2.09-.431 7.524 7.524 0 0 0-2.578.464c-.892.3-1.728.644-2.527.859a6.5 6.5 0 0 1-2.178.244 3.689 3.689 0 0 1-1.428-.382 2.57 2.57 0 0 1-.34-.215c-.073-.056-.11-.087-.106-.092s.167.1.479.24a3.928 3.928 0 0 0 1.4.314 6.653 6.653 0 0 0 2.122-.28c.782-.22 1.613-.569 2.514-.871a7.465 7.465 0 0 1 2.643-.458 5.721 5.721 0 0 1 2.139.483 5.656 5.656 0 0 1 1.263.764 3.563 3.563 0 0 1 .3.264c.071.064.103.1.099.105Z" fill="#fff"/><path data-name="Path 1629" d="M29.411 146.753a9.589 9.589 0 0 0-1.83-1.079 6.731 6.731 0 0 0-2.221-.534 7.183 7.183 0 0 0-2.75.485 24.775 24.775 0 0 1-2.716.887 6.91 6.91 0 0 1-2.341 0 5.257 5.257 0 0 1-1.5-.476 2.8 2.8 0 0 1-.365-.227c-.079-.059-.118-.092-.114-.1s.178.1.512.256a5.794 5.794 0 0 0 1.492.409 7.066 7.066 0 0 0 2.286-.044 27.5 27.5 0 0 0 2.687-.895 7.168 7.168 0 0 1 2.822-.479 6.812 6.812 0 0 1 3.615 1.4 3.712 3.712 0 0 1 .324.28c.069.076.104.112.099.117Z" fill="#fff"/><path data-name="Path 1630" d="M32.862 141.778c0 .053-4.552.1-10.167.1s-10.168-.043-10.168-.1 4.551-.1 10.168-.1 10.167.046 10.167.1Z" fill="#1a2e35"/></g><path data-name="Path 1631" d="m220.549 151.651 1.024 3.922 11.476-.105s-1.569-1.186-7.336-1.1l-.56-2.717Z" fill="#ffbf9d"/><path data-name="Path 1632" d="m208.038 107.35-8.608.812-3.5.99a9.481 9.481 0 0 0-3.983 2.282l-11.269 10.816-2.057-16.8-5.63.49.94 21.629a6.442 6.442 0 0 0 6.137 4.484 6.652 6.652 0 0 0 4.533-1.866l8.024-7.542-.8 9.952-2.758 6.186 19.7 11.123s2.314-11.452 3.556-19.374c1-6.409 1.515-20.368 1.515-20.368Z" fill="#005a8e"/><path data-name="Path 1633" d="M213.327 109.964s4.355 1.614 5.409 5.025c.934 3.025 4.05 20.035 4.05 20.035l3.092 18-6.473.246-7.454-30.683Z" fill="#005a8e"/><path data-name="Path 1634" d="M191.666 132.153c-.051 0 .238-3.451.644-7.7s.778-7.685.829-7.68-.237 3.451-.644 7.7-.778 7.685-.829 7.68Z" fill="#1a2e35"/><path data-name="Path 1635" d="M206.004 123.691a.635.635 0 0 1-.057.168l-.2.469a7.1 7.1 0 0 1-.347.727c-.148.277-.3.6-.518.932l-.326.529c-.115.183-.252.361-.385.553-.26.387-.581.767-.911 1.173a17.583 17.583 0 0 1-5.3 4.212c-.471.229-.914.457-1.349.622-.216.086-.421.179-.625.25l-.589.2c-.372.135-.723.212-1.026.294a7.1 7.1 0 0 1-.786.173l-.5.086a.64.64 0 0 1-.177.017.652.652 0 0 1 .17-.054l.493-.119c.215-.046.477-.108.774-.2s.644-.175 1.011-.318l.58-.207c.2-.073.4-.169.616-.258.429-.17.866-.4 1.33-.631a18.213 18.213 0 0 0 5.253-4.172c.33-.4.654-.772.916-1.152.134-.188.273-.362.39-.542l.333-.518c.222-.325.382-.642.539-.912s.279-.51.373-.709l.228-.453a.652.652 0 0 1 .09-.16Z" fill="#1a2e35"/><g data-name="Group 1178" opacity=".2"><path data-name="Path 1636" d="M193.951 133.898a1.32 1.32 0 0 1-.793-1.583 2.275 2.275 0 0 1 1.282-1.4 9.435 9.435 0 0 1 1.875-.555 15.728 15.728 0 0 0 7.323-4.108c.186-.185.452-.391.682-.265.31.169.116.643-.114.911a23.648 23.648 0 0 1-10.456 7.015"/></g><path data-name="Path 1637" d="M213.62 129.847a1.565 1.565 0 0 1-.131-.366 33.378 33.378 0 0 1-.288-1.017c-.232-.861-.532-2.057-.831-3.386s-.54-2.538-.7-3.416c-.08-.439-.139-.8-.175-1.042a1.558 1.558 0 0 1-.038-.387 1.575 1.575 0 0 1 .109.373l.233 1.03.751 3.4.777 3.395.23 1.031a1.574 1.574 0 0 1 .063.385Z" fill="#1a2e35"/><path data-name="Path 1638" d="M173.99 107.552a4.028 4.028 0 0 1-.145-1.713 4.027 4.027 0 0 1 .145 1.713Z" fill="#1a2e35"/><path data-name="Path 1639" d="M175.635 107.605a4.5 4.5 0 0 1-.093-1.817 4.5 4.5 0 0 1 .093 1.817Z" fill="#1a2e35"/><path data-name="Path 1640" d="M177.274 107.5a5.576 5.576 0 0 1-.113-2.023 5.576 5.576 0 0 1 .113 2.023Z" fill="#1a2e35"/><path data-name="Path 1641" d="M180.44 124.832a11.959 11.959 0 0 1 .305-2.958 11.962 11.962 0 0 1-.305 2.958Z" fill="#1a2e35"/><path data-name="Path 1642" d="M220.468 151.399a4.725 4.725 0 0 1 .317 1.837 4.723 4.723 0 0 1-.317-1.837Z" fill="#1a2e35"/><path data-name="Path 1643" d="M222.597 151.397a3.89 3.89 0 0 1 .277 1.667 3.891 3.891 0 0 1-.277-1.667Z" fill="#1a2e35"/><path data-name="Path 1644" d="M224.616 151.195a8.025 8.025 0 0 1 .315 1.868 3.525 3.525 0 0 1-.315-1.868Z" fill="#1a2e35"/><path data-name="Path 1645" d="M216.822 112.061c0 .034-.452.007-1.154.154a5.376 5.376 0 0 0-4.012 3.5c-.24.675-.275 1.127-.309 1.122a.94.94 0 0 1 .006-.317 4.469 4.469 0 0 1 .178-.847 5.175 5.175 0 0 1 4.112-3.589 4.457 4.457 0 0 1 .863-.062.939.939 0 0 1 .315.037Z" fill="#1a2e35"/><path data-name="Path 1646" d="M219.484 119.379a6.73 6.73 0 0 1-1.074.455c-.673.255-1.612.584-2.661.912s-2.009.591-2.708.765a6.707 6.707 0 0 1-1.142.237 7.872 7.872 0 0 1 1.107-.363l2.687-.815 2.673-.858a7.876 7.876 0 0 1 1.118-.333Z" fill="#fafafa"/><path data-name="Path 1647" d="M222.229 131.788a7.148 7.148 0 0 1-1.117.3c-.694.164-1.656.377-2.72.6s-2.03.418-2.732.549a7.148 7.148 0 0 1-1.144.174 7.1 7.1 0 0 1 1.115-.3c.694-.164 1.656-.377 2.722-.6s2.031-.418 2.733-.549a7.1 7.1 0 0 1 1.143-.174Z" fill="#fafafa"/><path data-name="Path 1648" d="M225.342 147.322a6.918 6.918 0 0 1-1.07.055c-.66.017-1.57.045-2.575.1s-1.913.135-2.57.194a6.915 6.915 0 0 1-1.069.068 5.494 5.494 0 0 1 1.054-.2 33.008 33.008 0 0 1 5.161-.297 5.5 5.5 0 0 1 1.069.08Z" fill="#fafafa"/><path data-name="Path 1649" d="M196.77 132.718a3.675 3.675 0 0 1-.74-.315l-1.745-.835-1.751-.825a3.666 3.666 0 0 1-.712-.375 3.3 3.3 0 0 1 .764.254c.462.182 1.093.452 1.778.777s1.293.643 1.726.887a3.3 3.3 0 0 1 .68.432Z" fill="#fafafa"/><path data-name="Path 1650" d="M211.117 135.153a2.1 2.1 0 0 1-.421-.16l-1.122-.488c-.946-.414-2.257-.976-3.719-1.561s-2.8-1.081-3.771-1.434l-1.149-.42a2.1 2.1 0 0 1-.415-.175 2.1 2.1 0 0 1 .438.106c.278.079.678.2 1.169.364a65.77 65.77 0 0 1 7.5 3c.467.222.842.408 1.1.543a2.1 2.1 0 0 1 .39.225Z" fill="#fafafa"/><path data-name="Path 1651" d="M212.235 125.023a.824.824 0 0 1-.2-.017l-.57-.085-2.091-.339c-1.765-.288-4.2-.678-6.9-1.076s-5.148-.726-6.921-.958l-2.1-.278-.57-.082a.832.832 0 0 1-.2-.041.823.823 0 0 1 .2 0l.574.048c.5.045 1.218.12 2.107.219 1.778.2 4.23.507 6.932.9s5.138.809 6.9 1.13c.88.16 1.591.3 2.081.4l.564.12a.822.822 0 0 1 .194.054Z" fill="#fafafa"/><path data-name="Path 1652" d="M211.428 114.324c-.008.051-3.865-.484-8.615-1.193s-8.6-1.327-8.589-1.377 3.865.484 8.616 1.194 8.595 1.325 8.588 1.376Z" fill="#fafafa"/><path data-name="Path 1653" d="M191.221 123.68a9.37 9.37 0 0 1-.548-1.158l-1.253-2.821-1.28-2.81a9.366 9.366 0 0 1-.5-1.178 1.241 1.241 0 0 1 .184.292c.108.193.258.476.437.829.359.7.836 1.689 1.331 2.791s.916 2.111 1.2 2.847c.145.368.257.668.33.877a1.241 1.241 0 0 1 .099.331Z" fill="#fafafa"/><path data-name="Path 1654" d="M183.541 131.197c-.05.01-.542-2.143-1.1-4.808s-.966-4.836-.916-4.847.542 2.142 1.1 4.809.966 4.835.916 4.846Z" fill="#fafafa"/><path data-name="Path 1655" d="M180.368 119.502a63.664 63.664 0 0 1-6.722 1.44 63.7 63.7 0 0 1 6.722-1.44Z" fill="#fafafa"/><path data-name="Path 1656" d="M179.25 109.75a4.149 4.149 0 0 1-.879.193c-.547.093-1.306.2-2.147.3s-1.605.159-2.159.191a4.153 4.153 0 0 1-.9.009 4.523 4.523 0 0 1 .888-.14l2.15-.245 2.15-.244a4.524 4.524 0 0 1 .897-.064Z" fill="#fafafa"/><path data-name="Path 1657" d="m44.908 92.933-.613-1.332.922-.424.613 1.332a.508.508 0 0 1-.249.673.508.508 0 0 1-.673-.249Z" fill="#1a2e35"/><path data-name="Path 1658" d="M182.148 92.815c.1.2 2.779 13.963 2.779 13.963l-6.312.295-2.444-11.834Z" fill="#375a64"/><path data-name="Path 1659" d="m184.926 106.779.723-.306-2.731-13.569-.857-.057Z" fill="#1a2e35"/><path data-name="Path 1660" d="M179.611 95.824a.327.327 0 1 1-.365-.285.327.327 0 0 1 .365.285Z" fill="#1a2e35"/><path data-name="Path 1661" d="m178.308 105.484-.094-1.8 2.7-1.111-1.051-2.5a2.176 2.176 0 0 0-3.029-1.036l-1.082.587a3.091 3.091 0 0 0-1.535 2 39.686 39.686 0 0 0-.626 4.4" fill="#ffbf9d"/><path data-name="Path 1662" d="M171.089 151.361s-11.093 3.07-11.538 3.227c-.668.235-.556 2.684.484 2.646.492-.018 8.521.3 9.535.236a24.461 24.461 0 0 0 4.075-1.269Z" fill="#939598"/><path data-name="Path 1663" d="M166.469 155.593a4.865 4.865 0 0 0-1.273-2.212 2.465 2.465 0 0 1 1.273 2.212Z" fill="#1a2e35"/><path data-name="Path 1664" d="M167.625 155.069c-.054.009-.167-.515-.462-1.094s-.644-.985-.6-1.023a2.783 2.783 0 0 1 1.062 2.117Z" fill="#1a2e35"/><path data-name="Path 1665" d="M168.71 154.778a3.894 3.894 0 0 0-.864-2.209 2.083 2.083 0 0 1 .864 2.209Z" fill="#1a2e35"/><path data-name="Path 1666" d="M168.513 153.346a1.966 1.966 0 0 1-.119-.825 3.894 3.894 0 0 1 .112-.9 3.817 3.817 0 0 1 .165-.515.621.621 0 0 1 .178-.272.3.3 0 0 1 .381.019.49.49 0 0 1 .148.314 2.151 2.151 0 0 1 .014.293 2.454 2.454 0 0 1-.068.543 3.3 3.3 0 0 1-.341.848 2.237 2.237 0 0 1-.5.668c-.025-.018.16-.276.382-.729a3.643 3.643 0 0 0 .291-.825 2.439 2.439 0 0 0 .053-.507c0-.17 0-.384-.1-.465a.107.107 0 0 0-.147-.012.467.467 0 0 0-.122.194 4.079 4.079 0 0 0-.168.489 4.45 4.45 0 0 0-.147.866c-.032.498.019.812-.012.816Z" fill="#1a2e35"/><path data-name="Path 1667" d="M168.527 153.229a1.553 1.553 0 0 1 .715-.115 3.221 3.221 0 0 1 .787.1 1.733 1.733 0 0 1 .453.167.468.468 0 0 1 .251.507.554.554 0 0 1-.4.4 1.016 1.016 0 0 1-.5 0 1.911 1.911 0 0 1-.721-.354 1.947 1.947 0 0 1-.516-.508 4.911 4.911 0 0 1 .591.4 1.97 1.97 0 0 0 .68.295.876.876 0 0 0 .411-.006.376.376 0 0 0 .27-.264.286.286 0 0 0-.165-.31 1.687 1.687 0 0 0-.4-.157 3.724 3.724 0 0 0-.748-.13c-.428-.036-.703.009-.708-.025Z" fill="#1a2e35"/><path data-name="Path 1668" d="M164.764 155.71a2.994 2.994 0 0 0-.762-1.869 1.592 1.592 0 0 1 .762 1.869Z" fill="#1a2e35"/><path data-name="Path 1669" d="M172.504 156.225a2.307 2.307 0 0 1-.429.2 9.525 9.525 0 0 1-1.235.383 17.6 17.6 0 0 1-4.235.4c-1.662-.018-3.16-.094-4.247-.137l-1.285-.068a2.314 2.314 0 0 1-.471-.05 2.307 2.307 0 0 1 .473-.022l1.287.009 4.244.083a19.834 19.834 0 0 0 4.205-.344c1.061-.216 1.68-.489 1.693-.454Z" fill="#1a2e35"/><path data-name="Path 1670" d="M172.833 156.477c-.015.026-.319-.152-.831-.376a3.862 3.862 0 0 0-2.1-.349 3.324 3.324 0 0 0-1.815 1.079 6.494 6.494 0 0 1-.639.653 3.444 3.444 0 0 1 .543-.742 4.4 4.4 0 0 1 .736-.688 2.635 2.635 0 0 1 1.146-.486 3.67 3.67 0 0 1 2.184.413 2.941 2.941 0 0 1 .776.496Z" fill="#1a2e35"/><path data-name="Path 1671" d="M182.865 148.298s10.5 6.873 10.874 7.157c.565.427-.083 2.461-1.062 2.109-.463-.167-9.272-2.617-10.219-2.986a24.471 24.471 0 0 1-3.5-2.447Z" fill="#939598"/><path data-name="Path 1672" d="M185.982 153.735a2.465 2.465 0 0 1 1.885-1.721 4.862 4.862 0 0 0-1.885 1.721Z" fill="#1a2e35"/><path data-name="Path 1673" d="M185.039 152.884a2.782 2.782 0 0 1 1.659-1.694c.026.048-.433.324-.886.791s-.724.928-.773.903Z" fill="#1a2e35"/><path data-name="Path 1674" d="M184.094 152.277a2.083 2.083 0 0 1 1.494-1.843 3.893 3.893 0 0 0-1.494 1.843Z" fill="#1a2e35"/><path data-name="Path 1675" d="M184.717 150.971c-.028-.013.116-.3.238-.786a4.456 4.456 0 0 0 .123-.87 4.066 4.066 0 0 0-.011-.517.467.467 0 0 0-.057-.222.108.108 0 0 0-.144-.033c-.12.048-.182.252-.239.413a2.436 2.436 0 0 0-.1.5 3.636 3.636 0 0 0 .027.874c.073.5.172.8.142.81a2.24 2.24 0 0 1-.272-.788 3.3 3.3 0 0 1-.068-.912 2.453 2.453 0 0 1 .1-.538 2.133 2.133 0 0 1 .1-.275.489.489 0 0 1 .236-.254.3.3 0 0 1 .369.1.621.621 0 0 1 .087.313 3.834 3.834 0 0 1 0 .541 3.892 3.892 0 0 1-.168.9 1.967 1.967 0 0 1-.363.744Z" fill="#1a2e35"/><path data-name="Path 1676" d="M184.738 150.86c-.013.027-.259-.1-.682-.2a3.721 3.721 0 0 0-.752-.1 1.69 1.69 0 0 0-.431.027.286.286 0 0 0-.251.245.376.376 0 0 0 .177.333.875.875 0 0 0 .39.13 1.968 1.968 0 0 0 .738-.074 4.884 4.884 0 0 1 .684-.2 1.952 1.952 0 0 1-.646.327 1.912 1.912 0 0 1-.794.119 1.016 1.016 0 0 1-.475-.15.554.554 0 0 1-.26-.5.468.468 0 0 1 .393-.407 1.735 1.735 0 0 1 .483-.021 3.218 3.218 0 0 1 .779.147 1.555 1.555 0 0 1 .647.324Z" fill="#1a2e35"/><path data-name="Path 1677" d="M191.338 157.181c-.012.016-.177-.106-.257-.407a1.55 1.55 0 0 1 .2-1.139 4.192 4.192 0 0 1 .352-.524 1.93 1.93 0 0 1 .356-.382.622.622 0 0 1 .335-.14c.088 0 .133.018.131.029a.993.993 0 0 0-.382.212 2.379 2.379 0 0 0-.3.383 5.991 5.991 0 0 0-.327.513 1.622 1.622 0 0 0-.231 1.024c.033.27.148.417.123.431Z" fill="#1a2e35"/><path data-name="Path 1678" d="M187.57 154.365a1.591 1.591 0 0 1 1.293-1.549 3 3 0 0 0-1.293 1.549Z" fill="#1a2e35"/><path data-name="Path 1679" d="M180.039 152.503a3.7 3.7 0 0 1 .461.317 13.173 13.173 0 0 0 1.294.793 17.053 17.053 0 0 0 2.056.915c.8.3 1.686.576 2.629.849 1.888.544 3.6 1.041 4.832 1.412l1.459.448a3.242 3.242 0 0 1 .528.189 3.235 3.235 0 0 1-.548-.119l-1.475-.391a374.168 374.168 0 0 1-4.848-1.36c-.945-.274-1.84-.56-2.638-.868a15.475 15.475 0 0 1-2.059-.96 10.333 10.333 0 0 1-1.274-.85 2.885 2.885 0 0 1-.417-.375Z" fill="#1a2e35"/><path data-name="Path 1680" d="M179.65 152.644a2.942 2.942 0 0 1 .889-.237 3.67 3.67 0 0 1 2.206.27 2.635 2.635 0 0 1 .944.811 4.4 4.4 0 0 1 .492.879 3.437 3.437 0 0 1 .292.872 6.511 6.511 0 0 1-.411-.816 3.324 3.324 0 0 0-1.4-1.579 3.863 3.863 0 0 0-2.106-.305c-.557.056-.9.133-.906.105Z" fill="#1a2e35"/><path data-name="Path 1681" d="m207.464 93.845.685 13.865a4.129 4.129 0 0 1-4.124 4.333 4.131 4.131 0 0 1-4.125-3.932 113.316 113.316 0 0 0-.107-2.021 4.209 4.209 0 0 1-3.974-3.638c-.207-1.682-.35-5.181-.443-8.349a6.532 6.532 0 0 1 5.816-6.681l.336-.037c3.65-.188 5.849 2.807 5.936 6.46Z" fill="#ffbf9d"/><path data-name="Path 1682" d="M199.781 106.041a8.155 8.155 0 0 0 4.4-1.793 4.32 4.32 0 0 1-4.31 2.7Z" fill="#ff9a6c"/><path data-name="Path 1683" d="M196.484 96.279a.5.5 0 0 0 .535.449.479.479 0 0 0 .463-.505.5.5 0 0 0-.535-.45.479.479 0 0 0-.464.506Z" fill="#1a2e35"/><path data-name="Path 1684" d="M196.314 95.732c.069.058.415-.263.951-.32s.958.167 1.009.095c.025-.032-.05-.142-.235-.248a1.373 1.373 0 0 0-.816-.156 1.319 1.319 0 0 0-.748.336c-.152.144-.195.267-.161.293Z" fill="#1a2e35"/><path data-name="Path 1685" d="M201.744 95.827a.5.5 0 0 0 .535.449.479.479 0 0 0 .464-.505.5.5 0 0 0-.535-.45.479.479 0 0 0-.464.506Z" fill="#1a2e35"/><path data-name="Path 1686" d="M201.59 95.251c.069.058.416-.263.951-.32s.958.167 1.009.095c.025-.032-.05-.142-.235-.248a1.374 1.374 0 0 0-.816-.156 1.321 1.321 0 0 0-.748.336c-.152.144-.195.266-.161.293Z" fill="#1a2e35"/><path data-name="Path 1687" d="M200.085 99.438a3.568 3.568 0 0 0-.887-.061c-.138 0-.271-.012-.3-.1a.7.7 0 0 1 .047-.415l.289-1.086a18 18 0 0 0 .608-2.824 18.038 18.038 0 0 0-.834 2.769l-.272 1.09a.8.8 0 0 0-.012.545.345.345 0 0 0 .247.175.939.939 0 0 0 .236.007 3.51 3.51 0 0 0 .878-.1Z" fill="#1a2e35"/><path data-name="Path 1688" d="M201.701 99.634c-.088 0-.025.586-.477 1.054s-1.078.472-1.074.554c0 .037.15.1.413.076a1.457 1.457 0 0 0 .9-.429 1.269 1.269 0 0 0 .362-.879c-.001-.251-.085-.383-.124-.376Z" fill="#1a2e35"/><path data-name="Path 1689" d="M201.221 93.167c.069.14.6.012 1.233.018s1.164.122 1.233-.018c.03-.067-.073-.194-.294-.312a2.144 2.144 0 0 0-1.879 0c-.22.119-.324.246-.293.312Z" fill="#1a2e35"/><path data-name="Path 1690" d="M196.339 94.16c.108.111.463-.056.906-.11.441-.07.828-.009.9-.145.031-.066-.041-.181-.218-.278a1.321 1.321 0 0 0-1.456.206c-.142.141-.18.272-.132.327Z" fill="#1a2e35"/><path data-name="Path 1691" d="M207.464 96.458c.057-.032 2.317-.973 2.5 1.419a1.8 1.8 0 0 1-2.262 2.017c-.006-.068-.238-3.436-.238-3.436Z" fill="#ffbf9d"/><path data-name="Path 1692" d="M208.365 98.931c.01-.008.044.026.117.053a.417.417 0 0 0 .312-.018 1.034 1.034 0 0 0 .4-.962 1.379 1.379 0 0 0-.163-.587.482.482 0 0 0-.338-.3.213.213 0 0 0-.237.133c-.027.069-.008.116-.02.121s-.055-.036-.043-.136a.267.267 0 0 1 .082-.157.316.316 0 0 1 .226-.079.587.587 0 0 1 .464.337 1.417 1.417 0 0 1 .2.655 1.085 1.085 0 0 1-.527 1.08.447.447 0 0 1-.386-.034c-.078-.048-.095-.101-.087-.106Z" fill="#ff9a6c"/><path data-name="Path 1693" d="M208.781 96.231a1.26 1.26 0 0 0-1.082.714c-.118.357-.109.747-.226 1.1s-.432.7-.806.658a.737.737 0 0 1-.557-.489 2.027 2.027 0 0 1-.092-.768c.018-1.128.13-2.258.051-3.383a5.76 5.76 0 0 0-1.061-3.163 3.15 3.15 0 0 0-2.96-1.259c-.734.141-1.371.6-2.1.787a2.928 2.928 0 0 1-2.508-.541c-.089-.071-.488-.275-.488-.275a1.38 1.38 0 0 1 .169-.764 7.094 7.094 0 0 1 10.849 1.245c1.029 1.715 1.06 4.256.8 6.134" fill="#1a2e35"/><path data-name="Path 1694" d="M169.829 151.233s25.743-16.886 26.8-17.237 3.6-2.02 6.149-1.318 4.831 2.987 5.973 6.325 1.23 10.8 1.23 10.8-2.02 5.885-5.973 7.115a10.049 10.049 0 0 1-1.029.258 12.157 12.157 0 0 1-12.432-5.372l-.574-.875s-16.84 6.187-17.1 6.1Z" fill="#1a2e35"/><path data-name="Path 1695" d="M161.05 131.536a5.027 5.027 0 0 0-3.162 4.656c-.025 6.764 13.666 14.219 13.666 14.219l18.22-12.072v-1.269s-23.453-8.433-28.724-5.534Z" fill="#1a2e35"/><path data-name="Path 1696" d="M201.676 146.584s-.047.024-.141.062l-.421.167-1.632.628-6.065 2.285c-2.577.961-5.662 2.1-9.125 3.364s-7.3 2.64-11.4 4.028l-.074.025-.037-.07-2.011-3.841-1.025-1.959-.04-.076.071-.045 19.639-12.459 5.9-3.72 1.6-1 .418-.256c.095-.057.146-.082.146-.082s-.044.036-.136.1l-.409.271-1.584 1.028-5.867 3.759-19.6 12.513.032-.121 1.025 1.959 2.01 3.841-.111-.045c4.1-1.384 7.935-2.759 11.4-4.008l9.138-3.326 6.084-2.232 1.643-.6.427-.151c.095-.03.145-.039.145-.039Z" fill="#375a64"/><path data-name="Path 1697" d="M180.544 144.436a3.38 3.38 0 0 1-.475-.322 49.7 49.7 0 0 1-1.246-.941c-1.043-.806-2.463-1.949-3.989-3.26s-2.871-2.542-3.826-3.451c-.478-.454-.86-.827-1.119-1.089a3.385 3.385 0 0 1-.39-.42 3.386 3.386 0 0 1 .44.368l1.158 1.046c.977.884 2.333 2.1 3.858 3.406s2.929 2.466 3.95 3.3l1.209.987a3.388 3.388 0 0 1 .43.376Z" fill="#375a64"/><path data-name="Path 1698" d="M166.193 134.064a4.516 4.516 0 0 1 3.317.979c-.03.048-.694-.375-1.614-.642s-1.704-.28-1.703-.337Z" fill="#375a64"/><path data-name="Path 1699" d="M167.763 132.998a2.769 2.769 0 0 1 1.647 2.04c-.053.018-.252-.549-.711-1.11s-.965-.882-.936-.93Z" fill="#375a64"/><path data-name="Path 1700" d="M160.047 154.414c-.01-.021.217-.065.47.143a1.7 1.7 0 0 1 .527 1.057 2.078 2.078 0 0 1-.166 1.166c-.129.277-.271.407-.287.394s.075-.171.165-.443a2.366 2.366 0 0 0 .1-1.091 1.83 1.83 0 0 0-.431-.986c-.189-.202-.381-.21-.378-.24Z" fill="#1a2e35"/><path data-name="Path 1701" d="M55.58 108.614a9.678 9.678 0 0 0-2.852 3.981 24.342 24.342 0 0 0-1.575 5.912 16.623 16.623 0 0 0 2.7 0 12.9 12.9 0 0 1 3.238.594c.005-.089-1.511-10.487-1.511-10.487Z" fill="#e84354"/><path data-name="Path 1702" d="M74.566 104.098s-4.945 3.772-5.377 4.813.5 9.21.475 9.388-4.866.355-7.605 1.277a37.553 37.553 0 0 0-4.753 2.2c-.259-.007-2.436-12.359-1.99-16.162s2.2-5.229 3.862-6.15a17.594 17.594 0 0 1 5.437-1.812 7.982 7.982 0 0 1 3.09.386 11.44 11.44 0 0 1 2.763 1.129 18.8 18.8 0 0 1 4.098 4.931Z" fill="#ff4f5b"/><path data-name="Path 1703" d="m69.411 118.388.431-.089c-.121-3.68-.254-7.048-.383-9.735l3.829-3.207 1.052-.9.271-.238a.062.062 0 1 0-.014-.017c-.074.057-.208.154-.325.245-.259.208-.668.479-1.125.847-.939.766-2.336 1.832-3.962 3.16l-.028.023v.037c.109 2.696.135 6.181.254 9.874Z" fill="#b22f48"/><path data-name="Path 1768" d="M64.465 73.679c1.918.685.906.906 3.313-1.768a7.031 7.031 0 0 0 1.493-4.323c-1.872-.089-2.629.735-3.855 1.315a6.241 6.241 0 0 1-3.112.577 5.219 5.219 0 0 1-2.89-1.149 15.849 15.849 0 0 1-5.474-8.586c-.624-2.377-1.173-4.554-.4-6.707a14.1 14.1 0 0 1 1.121-2.5c-.356.174-.609.538-1.032 1.251a19.285 19.285 0 0 0-1.047 11.817 15.9 15.9 0 0 0 1.806 4.032c.71 1.194 2.947 3.87 4.819 4.672s4.209.993 5.258 1.369Z" fill="#00a1a4"/><path data-name="Path 1769" d="M86.427 96.829c-.492-1.256-3.42-7.705-3.692-9.664-.3-2.139.3-8.913.059-12.715s-1.044-5.115-2.377-6.3c-1.589-1.411-4.991-1.307-5.7-1.07s-.891 5.343-.891 5.348c.021-.611 1.256-1.563 1.678-1.864 1.154-.823 2.756-1.394 4.076-.61a3.843 3.843 0 0 1 1.555 2.025c.821 2.239.619 4.554.549 6.881-.059 1.961-.624 5.971-.089 9.536.242 1.613 3.115 8.887 3.788 9.581a.235.235 0 0 0 .1.061c.248.458.487.921.727 1.383.037.072.147.014.125-.06a7.463 7.463 0 0 0-.605-1.358c.021-.01.043-.027.064-.04.046.1.092.207.135.311a6.539 6.539 0 0 0 .433.918.072.072 0 0 0 .128-.062c-.147-.453-.3-.9-.49-1.327l.024-.024c.194.323.386.647.552.984.038.078.15.013.13-.062a4.282 4.282 0 0 0-.514-1.108c.033-.041.063-.083.093-.125a6.741 6.741 0 0 1 .808 1.508.07.07 0 0 0 .136-.026 3.774 3.774 0 0 0-.807-1.7c.014-.026.022-.048.033-.071a5.169 5.169 0 0 1 .809 1.156c.042.081.158.014.138-.066a2.709 2.709 0 0 0-.975-1.44Z" fill="#00a1a4"/><path data-name="Path 1770" d="M80.805 70.913a6.934 6.934 0 0 0-3.2-2.664 9.54 9.54 0 0 0-6.566.3 56.825 56.825 0 0 1-6.31 2.289 13.935 13.935 0 0 1-6.531-.136c2.609.684 5.2 1.08 7.825.2 2.692-.9 5.048-2.566 7.934-2.72a7.648 7.648 0 0 1 5.71 1.97 8.2 8.2 0 0 1 2.245 7.095 8.539 8.539 0 0 0-.606-5.441 7.6 7.6 0 0 0-.5-.894Z" fill="#0a918d"/><path data-name="Path 1771" d="M76.58 68.931c-3.756-.436-6.924 1.339-10.368 2.469a10.59 10.59 0 0 1-5.875.484 8.553 8.553 0 0 1-4.371-3.314c-.068-.085-.237-.028-.186.089a7.215 7.215 0 0 0 3.235 3.076 8.63 8.63 0 0 0 5.358.466 38.18 38.18 0 0 0 5.646-1.961 17.166 17.166 0 0 1 6.543-1.084.114.114 0 0 0 .018-.225Z" fill="#0a918d"/><path data-name="Path 1772" d="M53.896 51.432a5.487 5.487 0 0 1 5.489-2.117c4.219.654 6.654 3.922 8.348 8.823s2.451 11.1.045 13.77-6.729-.371-8.259.728c-.673.484-.475.921-.52 1.367s-.652.887-.615 2.248 3.557 4.852 9.5 2.832c6.591-2.241 8.9-13.146 8.14-19.118s-5.744-12.633-12.3-13.1c-7.489-.535-9.828 4.567-9.828 4.567Z" fill="#5ac4c2"/><path data-name="Path 1773" d="M62.722 67.979a4.5 4.5 0 0 1-3.834-1.8 9.791 9.791 0 0 1-1.445-2.863c-.019-.018-.041-.034-.06-.053a1.439 1.439 0 0 1-.546-.647 9.114 9.114 0 0 1-1.307-3.548 1.267 1.267 0 0 1 0-.458 8.692 8.692 0 0 1-.334-6.126 8.547 8.547 0 0 1 .264-2.275c-.258.149-.5.3-.723.439a10.436 10.436 0 0 0-.888 1.159c-.118.272-.2.5-.265.657a14.769 14.769 0 0 0-.691 3.264c-.178 1.337.4 1.763-.134 2.674a2.633 2.633 0 0 0-.077 2.867c.554.826 1.432 1.52 1.688 2.518a5.348 5.348 0 0 1-.1 1.92 1.839 1.839 0 0 0 .5 1.44 6.371 6.371 0 0 0 2.241 1.779c2.069.995 4.91 1.947 6.789.58.018-.013.035-.019.053-.031s.4-.166.4-.166a3.369 3.369 0 0 0-.195-.523 5.1 5.1 0 0 1-1.343-.813Z" fill="#1a2e35"/><path data-name="Path 1774" d="M70.097 58.135a23.435 23.435 0 0 0-5.287-8.39 25.337 25.337 0 0 1 6.321 13.242 13.731 13.731 0 0 1-.266 6.157 7.248 7.248 0 0 1-3.9 4.584 5.777 5.777 0 0 1-2.864.39 11.449 11.449 0 0 1-2.753-1c.925 1.673 3.955 1.671 5.47 1.072a7.358 7.358 0 0 0 3.994-4.344 13.47 13.47 0 0 0 .593-6 23.143 23.143 0 0 0-1.308-5.711Z" fill="#00a1a4"/><path data-name="Path 1775" d="M73.08 62.431a21.172 21.172 0 0 0-.791-5.68c-1.2-4.144-4.033-7.951-8.019-9.6a15.494 15.494 0 0 1 7.9 9.913 25.065 25.065 0 0 1-.222 12.918c-.556 2.162-1.432 4.433-3.315 5.633a6.837 6.837 0 0 1-4.483.841c-1.5-.18-2.915-.962-4.335-1.16a11.7 11.7 0 0 0 4.417 1.522 6.828 6.828 0 0 0 4.649-.986c2.015-1.372 2.87-3.894 3.394-6.275a31.92 31.92 0 0 0 .805-7.126Z" fill="#00a1a4"/><path data-name="Path 1776" d="M65.881 49.129a12.9 12.9 0 0 0-4.6-1.816c-.183-.033-.433-.023-.478.158-.054.219.257.323.482.335 2.778.137 6.14 1.891 7.142 4.622a.115.115 0 0 0 .223-.043c-.151-1.513-1.596-2.508-2.769-3.256Z" fill="#00a1a4"/><path data-name="Path 1777" d="M117.354 140.988h-10.646a.357.357 0 0 1 0-.713h10.646a.357.357 0 0 1 0 .713Z" fill="#6d6e71"/><path data-name="Path 1778" d="M69.52 58.704c.06-.041 2.5-1.278 2.909 1.37a2.015 2.015 0 0 1-2.351 2.438c-.016-.075-.558-3.808-.558-3.808Z" fill="#ffbf9d"/><path data-name="Path 1779" d="M70.733 61.384c.01-.01.051.025.135.049a.467.467 0 0 0 .346-.046 1.155 1.155 0 0 0 .37-1.106 1.541 1.541 0 0 0-.231-.641.539.539 0 0 0-.4-.3.238.238 0 0 0-.253.169c-.024.08 0 .13-.012.137s-.064-.036-.059-.148a.3.3 0 0 1 .078-.182.353.353 0 0 1 .245-.107.656.656 0 0 1 .545.336 1.585 1.585 0 0 1 .274.714 1.212 1.212 0 0 1-.5 1.248.5.5 0 0 1-.433 0c-.091-.059-.118-.116-.105-.123Z" fill="#ff9a6c"/><circle data-name="Ellipse 174" cx="4.12" cy="4.12" r="4.12" transform="rotate(-53.42 92.331 -33.893)" fill="#375a64"/><path data-name="Path 1780" d="m72.308 63.474-4.4-1.151-.625-4.215 1.821-2.414 5.4 1.139-.04 3.554s-1.154 2.77-2.156 3.087Z" fill="#ff4f5b"/><path data-name="Path 1781" d="M73.063 57.868s-.712-5.2-1.72-7.252c-1.454-2.96-3.324-2.505-3.324-2.505a7.429 7.429 0 0 1 1.812 3.729l.911 5.327-.9 2.206 1.931.885Z" fill="#ff4f5b"/><path data-name="Path 1782" d="m69.889 52.179 2.166.17.232.86-2.219.017Z" fill="#e1e1e1"/><path data-name="Path 1783" d="m72.496 54.719 2 2.114-2.847.668-2.551-1.807 1.433-1.2Z" fill="#ff4f5b"/><path data-name="Path 1784" d="M72.575 54.613a.282.282 0 0 1 .025.084c.012.056.031.139.05.247.04.216.088.532.135.928a20.385 20.385 0 0 1 .119 3.178v.063l-.063-.009-.976-.141-1.383-.2-.046-.007v-.046l-.144-2.89-.031-.842a1.775 1.775 0 0 1 0-.3 1.781 1.781 0 0 1 .037.3l.064.84.185 2.887-.049-.053 1.384.2.976.143-.066.054a23.344 23.344 0 0 0-.078-3.164c-.036-.4-.072-.712-.1-.929a2.309 2.309 0 0 1-.039-.343Z" fill="#1a2e35"/><path data-name="Path 1785" d="M70.004 55.235a1.334 1.334 0 0 1-.127.212l-.382.576-1.368 2 .009-.038.323 2.291.182 1.326-.039-.047 2.956.949.86.288a2.046 2.046 0 0 1 .307.117 2.032 2.032 0 0 1-.318-.079l-.871-.256-2.968-.91-.034-.011-.005-.036-.186-1.318-.313-2.293v-.021l.012-.017 1.4-1.979.407-.558a1.335 1.335 0 0 1 .155-.196Z" fill="#1a2e35"/><path data-name="Path 1786" d="M72.415 59.878a.355.355 0 0 1 .421-.119h-.013a.342.342 0 1 1-.409.121Z" fill="#fff"/><path data-name="Path 1787" d="M71.362 59.682a.355.355 0 0 1 .421-.12h-.013a.342.342 0 1 1-.409.121Z" fill="#fff"/><path data-name="Path 1788" d="M72.611 62.856c-.017-.012.192-.3.467-.8a8.83 8.83 0 0 0 1.089-4.281c0-.572-.048-.926-.027-.928a1.026 1.026 0 0 1 .05.246 5.779 5.779 0 0 1 .06.681 7.982 7.982 0 0 1-1.1 4.323 5.77 5.77 0 0 1-.378.569 1.025 1.025 0 0 1-.161.19Z" fill="#fff"/><path data-name="Path 1789" d="M72.082 53.395a.712.712 0 0 1 .069.2c.037.128.085.316.138.548.106.465.228 1.115.316 1.838s.126 1.384.134 1.861v.565a.713.713 0 0 1-.02.207 6.171 6.171 0 0 1-.062-.769c-.03-.475-.08-1.13-.168-1.85s-.2-1.368-.281-1.836a6.173 6.173 0 0 1-.125-.762Z" fill="#fff"/><path data-name="Path 1790" d="M70.324 49.607a6.678 6.678 0 0 1 1.352 2.343c-.032.013-.284-.537-.658-1.182s-.721-1.14-.694-1.161Z" fill="#fff"/><rect data-name="Rectangle 891" width="2.685" height="1.146" rx=".573" transform="rotate(109.27 13.696 56.337)" fill="#1a2e35"/><path data-name="Path 1791" d="M49.832 105.368a5.38 5.38 0 0 1-1.967-.377 4.707 4.707 0 0 1-4.3-2.148 3.511 3.511 0 0 1-.166-2.825 6.77 6.77 0 0 1 1.143-1.779 8.522 8.522 0 0 0 .934-1.331 4.29 4.29 0 0 0 .351-2.862 3.148 3.148 0 0 1-.034-.211c-.051-.345-.136-.923-.432-.977l.048-.263c.484.088.583.758.649 1.2.011.076.021.144.032.2a4.551 4.551 0 0 1-.376 3.039 8.689 8.689 0 0 1-.962 1.374 6.485 6.485 0 0 0-1.1 1.707 3.238 3.238 0 0 0 .154 2.607 4.215 4.215 0 0 0 3.452 1.985 4.786 4.786 0 0 1-1.71-1.551 4.428 4.428 0 0 1 .227-5.127 3.9 3.9 0 0 1 3.437-1.3 3.464 3.464 0 0 1 1.488-2.906 3.2 3.2 0 0 1 3.469.3 4.982 4.982 0 0 1 1.784 3.072 7.209 7.209 0 0 1-1.065 5.318 6.839 6.839 0 0 0 2.7-.024c3.23-.7 6.032-3.488 7.311-7.276 1.154-3.418 1.043-7.2.75-10.769a19.751 19.751 0 0 0-.747-3.606c-.642-2.344-1.247-4.557-.093-7.1a9.513 9.513 0 0 1 2.227-2.843l.175-.173a9.223 9.223 0 0 0 2.819-7.01h.267a9.474 9.474 0 0 1-2.9 7.2l-.176.173a9.306 9.306 0 0 0-2.171 2.763c-1.114 2.455-.521 4.624.108 6.919a19.967 19.967 0 0 1 .756 3.655c.295 3.6.407 7.412-.763 10.876-1.309 3.876-4.186 6.731-7.508 7.451a7.133 7.133 0 0 1-2.921 0 6.315 6.315 0 0 1-4.444 2.6q-.225.019-.446.019Zm-1.289-.435a5 5 0 0 0 1.706.15 6.028 6.028 0 0 0 4.181-2.393 7.74 7.74 0 0 1-2.244-.937 4.747 4.747 0 0 1-.265.735 4.628 4.628 0 0 1-3.379 2.445Zm.174-7.971a3.619 3.619 0 0 0-2.742 1.237 4.153 4.153 0 0 0-.208 4.808 4.65 4.65 0 0 0 2.144 1.715q.251-.008.493-.04a4.41 4.41 0 0 0 3.274-2.305 4.472 4.472 0 0 0 .271-.777c-.047-.032-.094-.064-.14-.1a5.888 5.888 0 0 1-2.568-4.026 4.483 4.483 0 0 1-.036-.481 3.556 3.556 0 0 0-.488-.033Zm3.534 4.515a7.467 7.467 0 0 0 2.35.978 6.93 6.93 0 0 0 1.086-5.208 4.714 4.714 0 0 0-1.682-2.91 2.931 2.931 0 0 0-3.171-.286 3.211 3.211 0 0 0-1.361 2.721 3.333 3.333 0 0 1 1.28.55 4.061 4.061 0 0 1 1.5 4.154Zm-2.777-4.433c0 .135.015.268.032.4a5.624 5.624 0 0 0 2.457 3.842l.046.032a3.78 3.78 0 0 0-1.412-3.777 3.07 3.07 0 0 0-1.124-.5Z" fill="#1a2e35"/><text data-name="۱۵" transform="translate(126.946 119.18)" font-size="2" font-family="IRANYekan"><tspan x="0" y="0">۱۵</tspan></text><path data-name="Path 1930" d="M128.505 22.91a2.079 2.079 0 0 0-2.083 2.068v.3a.116.116 0 0 0 .115.116h.6a.115.115 0 0 0 .116-.115v-.3a1.247 1.247 0 0 1 1.251-1.243 1.247 1.247 0 0 1 1.243 1.251 1.247 1.247 0 0 1-1.251 1.243l-1.663-.005a1.247 1.247 0 0 1-1.243-1.25v-.008a2.079 2.079 0 0 0-2.072-2.077h-.831a1.663 1.663 0 0 0-1.663 1.533.116.116 0 0 0 .115.125h.6a.115.115 0 0 0 .115-.1.832.832 0 0 1 .828-.728h.831a1.247 1.247 0 0 1 1.243 1.249 1.247 1.247 0 0 1-1.251 1.242l-2.078-.006a1.247 1.247 0 0 1-1.243-1.251v-.008a2.079 2.079 0 0 0-2.078-2.046h-2.078a2.079 2.079 0 0 0-2.079 2.079 2.079 2.079 0 0 0 2.079 2.079h.831a1.663 1.663 0 0 0 1.658-1.538.116.116 0 0 0-.115-.125h-.6a.115.115 0 0 0-.115.1.832.832 0 0 1-.825.73h-.831a1.247 1.247 0 0 1-1.247-1.247 1.247 1.247 0 0 1 1.247-1.247h2.078a1.247 1.247 0 0 1 1.247 1.247v.008a2.079 2.079 0 0 0 2.072 2.05l2.078.006a2.075 2.075 0 0 0 1.665-.826 2.076 2.076 0 0 0 1.66.836l1.663.005a2.079 2.079 0 0 0 2.085-2.072 2.079 2.079 0 0 0-2.074-2.075Z"/><circle data-name="Ellipse 178" cx=".624" cy=".624" r=".624" transform="translate(127.26 21.245)"/><circle data-name="Ellipse 179" cx=".624" cy=".624" r=".624" transform="translate(128.508 21.249)"/><circle data-name="Ellipse 180" cx=".624" cy=".624" r=".624" transform="translate(121.005 27.693)"/><path data-name="Path 1931" d="M136.405 22.93h-1.665a1.655 1.655 0 0 0-.832.22v-1.77a.116.116 0 0 0-.116-.116h-.6a.116.116 0 0 0-.116.116v3.9a.116.116 0 0 0 .116.116h.6a.116.116 0 0 0 .116-.116v-.693a.832.832 0 0 1 .834-.829h1.665a1.247 1.247 0 0 1 1.243 1.251 1.247 1.247 0 0 1-1.251 1.243l-2.912-.006a1.247 1.247 0 0 1-1.243-1.251v-3.621a.116.116 0 0 0-.116-.116h-.6a.116.116 0 0 0-.116.116v3.624a2.079 2.079 0 0 0 2.072 2.085l2.912.006a2.079 2.079 0 0 0 2.085-2.072 2.079 2.079 0 0 0-2.076-2.087Z"/><path data-name="Path 1932" d="M184.27 9.593a2.079 2.079 0 0 0-2.083 2.068v.3a.116.116 0 0 0 .115.116h.6a.115.115 0 0 0 .116-.115v-.3a1.247 1.247 0 0 1 1.251-1.243 1.247 1.247 0 0 1 1.243 1.251 1.247 1.247 0 0 1-1.251 1.243l-1.663-.005a1.247 1.247 0 0 1-1.243-1.25v-.008a2.079 2.079 0 0 0-2.072-2.077h-.831a1.663 1.663 0 0 0-1.663 1.533.116.116 0 0 0 .115.125h.6a.115.115 0 0 0 .115-.1.832.832 0 0 1 .828-.728h.831a1.247 1.247 0 0 1 1.243 1.249 1.247 1.247 0 0 1-1.251 1.242l-2.078-.006a1.247 1.247 0 0 1-1.243-1.251v-.008a2.079 2.079 0 0 0-2.078-2.046h-2.078a2.079 2.079 0 0 0-2.079 2.079 2.079 2.079 0 0 0 2.079 2.079h.831a1.663 1.663 0 0 0 1.658-1.538.116.116 0 0 0-.115-.125h-.6a.115.115 0 0 0-.115.1.832.832 0 0 1-.825.73h-.831a1.247 1.247 0 0 1-1.247-1.247 1.247 1.247 0 0 1 1.247-1.247h2.078a1.247 1.247 0 0 1 1.247 1.247v.008a2.079 2.079 0 0 0 2.072 2.05l2.078.006a2.075 2.075 0 0 0 1.665-.826 2.076 2.076 0 0 0 1.66.836l1.663.005a2.079 2.079 0 0 0 2.085-2.072 2.079 2.079 0 0 0-2.074-2.075Z"/><circle data-name="Ellipse 181" cx=".624" cy=".624" r=".624" transform="translate(183.026 7.928)"/><circle data-name="Ellipse 182" cx=".624" cy=".624" r=".624" transform="translate(184.273 7.932)"/><circle data-name="Ellipse 183" cx=".624" cy=".624" r=".624" transform="translate(176.77 14.376)"/><circle data-name="Ellipse 184" cx=".624" cy=".624" r=".624" transform="translate(177.602 14.376)"/><circle data-name="Ellipse 185" cx=".624" cy=".624" r=".624" transform="translate(178.435 14.376)"/><path data-name="Path 1933" d="M192.171 9.613h-1.665a1.655 1.655 0 0 0-.832.22v-1.77a.116.116 0 0 0-.116-.116h-.6a.116.116 0 0 0-.116.116v3.9a.116.116 0 0 0 .116.116h.6a.116.116 0 0 0 .116-.116v-.693a.832.832 0 0 1 .834-.829h1.665a1.247 1.247 0 0 1 1.243 1.251 1.247 1.247 0 0 1-1.251 1.243l-2.912-.006a1.247 1.247 0 0 1-1.243-1.251V8.057a.116.116 0 0 0-.116-.116h-.6a.116.116 0 0 0-.116.116v3.624a2.079 2.079 0 0 0 2.072 2.085l2.912.006a2.079 2.079 0 0 0 2.085-2.072 2.079 2.079 0 0 0-2.076-2.087Z"/><g data-name="photo (1)" opacity=".21"><g data-name="Group 1193"><g data-name="Group 1192" fill="#fff"><path data-name="Path 1934" d="M120.475 56.598h-16.227a1.873 1.873 0 0 0-1.873 1.873v16.227a1.873 1.873 0 0 0 1.873 1.873h16.227a1.873 1.873 0 0 0 1.876-1.873V58.471a1.873 1.873 0 0 0-1.876-1.873Zm.624 12.229-2.675-2.678a.624.624 0 0 0-.88 0l-3.308 3.3-3.927-3.924a.624.624 0 0 0-.88 0l-5.805 5.8V58.471a.624.624 0 0 1 .624-.624h16.227a.624.624 0 0 1 .624.624Z"/><path data-name="Path 1935" d="M113.614 59.719a2.5 2.5 0 1 0 2.5 2.5 2.5 2.5 0 0 0-2.5-2.5Zm0 3.745a1.248 1.248 0 1 1 1.248-1.248 1.248 1.248 0 0 1-1.248 1.248Z"/></g></g></g><g data-name="photo (1)" opacity=".2"><g data-name="Group 1193"><g data-name="Group 1192" fill="#fff"><path data-name="Path 1934" d="M176.868 29.963h-10.821a1.248 1.248 0 0 0-1.248 1.248v10.82a1.248 1.248 0 0 0 1.248 1.248h10.82a1.248 1.248 0 0 0 1.248-1.248v-10.82a1.248 1.248 0 0 0-1.247-1.248Zm.416 8.153-1.785-1.786a.416.416 0 0 0-.587 0l-2.206 2.2-2.618-2.616a.416.416 0 0 0-.587 0l-3.87 3.866v-8.569a.416.416 0 0 1 .416-.416h10.82a.416.416 0 0 1 .416.416Z"/><path data-name="Path 1935" d="M172.29 32.044a1.665 1.665 0 1 0 1.665 1.665 1.665 1.665 0 0 0-1.665-1.665Zm0 2.5a.832.832 0 1 1 .832-.832.832.832 0 0 1-.832.832Z"/></g></g></g></g></g></g></g></svg>