<svg width="315" height="107" viewBox="0 0 315 107" fill="none" xmlns="http://www.w3.org/2000/svg">
<path d="M99.2632 77.4509L104.98 79.1382C104.98 79.1382 104.907 79.4291 104.761 80.0109C104.626 80.5927 104.47 81.2667 104.296 82.0327C104.228 82.2848 104.194 82.5079 104.194 82.7018C104.194 82.8958 104.247 83.0509 104.354 83.1673C104.47 83.2836 104.684 83.3418 104.994 83.3418H118.943C119.612 83.3418 120.063 83.2061 120.296 82.9345C120.529 82.663 120.645 82.2509 120.645 81.6982V78.6291H126.594V82.1927C126.613 82.5515 126.754 82.8182 127.016 82.9927C127.278 83.1673 127.704 83.2545 128.296 83.2545H129.547V89.9164C128.218 89.9164 127.215 89.897 126.536 89.8582C125.857 89.8291 125.338 89.7467 124.98 89.6109C124.63 89.4752 124.31 89.2667 124.02 88.9855C123.506 89.3152 122.963 89.5479 122.39 89.6836C121.828 89.8291 121.241 89.9164 120.63 89.9455C120.029 89.9745 119.413 89.9891 118.783 89.9891H108.558C107.229 89.9891 106.153 89.9794 105.329 89.96C104.504 89.9406 103.801 89.8824 103.22 89.7855C101.552 89.5236 100.281 88.7188 99.4086 87.3709C99.0305 86.7891 98.7492 86.0958 98.565 85.2909C98.3905 84.4764 98.3032 83.6376 98.3032 82.7745C98.3032 82.28 98.3323 81.7952 98.3905 81.32C98.6232 79.8073 98.9092 78.5467 99.2486 77.5382C99.2486 77.5188 99.2535 77.4994 99.2632 77.48V77.4509ZM112.441 75.4873L109.241 78.6727L106.056 75.4873L109.241 72.2873L112.441 75.4873ZM119.263 75.4873L116.063 78.6727L112.878 75.4873L116.063 72.2873L119.263 75.4873ZM140.737 76.6509C140.737 76.6509 140.819 77.097 140.984 77.9891C141.149 78.8715 141.338 79.8994 141.551 81.0727C141.697 81.8291 141.769 82.5273 141.769 83.1673C141.769 83.497 141.75 83.8121 141.711 84.1127C141.634 84.7042 141.488 85.32 141.275 85.96C141.071 86.5903 140.8 87.1139 140.46 87.5309C139.781 88.4133 138.884 89.0679 137.769 89.4945C136.945 89.7564 135.971 89.8873 134.846 89.8873H128.387V83.2545H134.846C135.204 83.2545 135.447 83.2109 135.573 83.1236C135.699 83.0267 135.762 82.8812 135.762 82.6873C135.762 82.5418 135.743 82.3721 135.704 82.1782C135.219 79.657 134.977 78.3964 134.977 78.3964L140.737 76.6509ZM132.766 91.5018L135.966 94.6873L132.766 97.8873L129.58 94.6873L132.766 91.5018ZM139.587 91.5018L142.788 94.6873L139.587 97.8873L136.402 94.6873L139.587 91.5018ZM152.298 83.2545V89.9164H151.003C150.15 89.9164 149.398 89.8194 148.749 89.6255C148.109 89.4315 147.561 89.1891 147.105 88.8982C146.649 88.6073 146.276 88.3164 145.985 88.0255C145.684 87.7345 145.389 87.3612 145.098 86.9055C144.817 86.4497 144.574 85.9018 144.37 85.2618C144.177 84.6121 144.08 83.8606 144.08 83.0073C144.08 82.2121 144.08 80.8982 144.08 79.0655C144.08 77.2327 144.08 75.3903 144.08 73.5382C144.089 71.6764 144.094 70.2267 144.094 69.1891C144.094 68.5782 144.094 68.263 144.094 68.2436H150.043V82.3236C150.043 82.663 150.155 82.9055 150.378 83.0509C150.601 83.1867 150.8 83.2545 150.974 83.2545H152.298ZM161.783 91.8655C161.657 91.5939 161.569 91.3079 161.521 91.0073C161.472 90.7067 161.448 90.4158 161.448 90.1345C161.448 89.7467 161.477 89.3927 161.535 89.0727C161.594 88.7527 161.647 88.4958 161.695 88.3018C161.754 88.0982 161.783 87.9964 161.783 87.9964C161.676 88.0255 161.467 88.0739 161.157 88.1418C160.847 88.2097 160.532 88.2776 160.212 88.3455C159.892 88.4036 159.669 88.4424 159.543 88.4618C159.649 89.16 159.94 89.8145 160.415 90.4255C160.9 91.0461 161.356 91.5261 161.783 91.8655ZM159.543 83.0073C160.318 82.9006 160.997 82.6776 161.579 82.3382C162.17 81.9988 162.486 81.6594 162.524 81.32V81.2473C162.524 80.8206 162.427 80.52 162.234 80.3455C162.04 80.1612 161.821 80.0691 161.579 80.0691H161.535C161.225 80.0691 160.954 80.1806 160.721 80.4036C160.488 80.6267 160.294 80.8982 160.139 81.2182C159.984 81.5382 159.858 81.863 159.761 82.1927C159.664 82.5127 159.591 82.7842 159.543 83.0073ZM161.579 74.4982C162.859 74.4982 163.911 74.7018 164.735 75.1091C165.569 75.5067 166.229 76.0109 166.714 76.6218C167.198 77.2327 167.557 77.8679 167.79 78.5273C168.023 79.1867 168.168 79.7927 168.226 80.3455C168.294 80.8982 168.328 81.2958 168.328 81.5382C168.328 82.1297 168.25 82.7018 168.095 83.2545H170.655V89.9018H168.139C167.751 89.9018 167.441 90.0521 167.208 90.3527C166.985 90.6533 166.874 91.0121 166.874 91.4291C166.874 91.7297 166.941 92.0352 167.077 92.3455C167.213 92.6558 167.431 92.937 167.732 93.1891L165.943 97.8C165.429 97.8679 164.915 97.9018 164.401 97.9018C163.324 97.9018 162.282 97.7418 161.274 97.4218C159.945 96.9467 158.709 96.2436 157.564 95.3127C155.964 94.1103 154.694 92.3018 153.754 89.8873C153.395 89.897 153.075 89.9018 152.794 89.9018C152.522 89.9018 152.226 89.9018 151.906 89.9018H151.543V83.2545H153.477C153.477 83.0897 153.521 82.7648 153.608 82.28C153.695 81.7855 153.846 81.2085 154.059 80.5491C154.272 79.8897 154.573 79.2109 154.961 78.5127C155.349 77.8048 155.838 77.1503 156.43 76.5491C157.031 75.9479 157.754 75.4582 158.597 75.08C159.45 74.6921 160.444 74.4982 161.579 74.4982ZM179.43 76.6509C179.43 76.6509 179.513 77.097 179.678 77.9891C179.842 78.8715 180.032 79.8994 180.245 81.0727C180.39 81.8291 180.463 82.5273 180.463 83.1673C180.463 83.497 180.444 83.8121 180.405 84.1127C180.327 84.7042 180.182 85.32 179.969 85.96C179.765 86.5903 179.493 87.1139 179.154 87.5309C178.475 88.4133 177.578 89.0679 176.463 89.4945C175.639 89.7564 174.664 89.8873 173.539 89.8873H169.918V83.2545H173.539C173.898 83.2545 174.141 83.2109 174.267 83.1236C174.393 83.0267 174.456 82.8812 174.456 82.6873C174.456 82.5418 174.436 82.3721 174.398 82.1782C173.913 79.657 173.67 78.3964 173.67 78.3964L179.43 76.6509ZM178.921 71.2109L175.518 74.6L172.129 71.2109L175.518 67.8073L178.921 71.2109ZM184.537 78.8182L189.875 81.3927C188.809 83.6036 188.275 85.4945 188.275 87.0655C188.275 88.3261 188.61 89.3103 189.279 90.0182C189.948 90.7358 190.947 91.0945 192.275 91.0945H196.145C196.882 91.0945 197.502 91.0703 198.006 91.0218C198.511 90.9733 198.928 90.9103 199.257 90.8327C199.587 90.7648 199.839 90.6921 200.014 90.6145C200.198 90.5467 200.324 90.4885 200.392 90.44C200.46 90.3915 200.494 90.3673 200.494 90.3673C199.922 90.0958 199.272 89.8873 198.545 89.7418C197.827 89.5964 197.046 89.4703 196.203 89.3636C195.912 89.3248 195.616 89.2812 195.315 89.2327V83.2691H208.61V89.9018H205.948C205.997 90.183 206.021 90.4642 206.021 90.7455C206.021 92.0352 205.783 93.1018 205.308 93.9455C204.843 94.7891 204.232 95.463 203.475 95.9673C202.719 96.4715 201.9 96.8448 201.017 97.0873C200.135 97.3394 199.262 97.4994 198.399 97.5673C197.546 97.6448 196.794 97.6836 196.145 97.6836H192.275C190.53 97.6836 189.027 97.3782 187.766 96.7673C186.506 96.1564 185.468 95.3418 184.654 94.3236C183.839 93.3152 183.238 92.1806 182.85 90.92C182.462 89.6594 182.268 88.3745 182.268 87.0655C182.268 85.8921 182.462 84.5636 182.85 83.08C183.248 81.5964 183.81 80.1758 184.537 78.8182ZM214.493 76.6509C214.493 76.6509 214.575 77.097 214.74 77.9891C214.905 78.8715 215.094 79.8994 215.307 81.0727C215.453 81.8291 215.526 82.5273 215.526 83.1673C215.526 83.497 215.506 83.8121 215.467 84.1127C215.39 84.7042 215.244 85.32 215.031 85.96C214.827 86.5903 214.556 87.1139 214.216 87.5309C213.538 88.4133 212.641 89.0679 211.526 89.4945C210.701 89.7564 209.727 89.8873 208.602 89.8873H204.98V83.2545H208.602C208.961 83.2545 209.203 83.2109 209.329 83.1236C209.455 83.0267 209.518 82.8812 209.518 82.6873C209.518 82.5418 209.499 82.3721 209.46 82.1782C208.975 79.657 208.733 78.3964 208.733 78.3964L214.493 76.6509ZM213.126 94.3818L209.722 97.7709L206.333 94.3818L209.722 90.9782L213.126 94.3818ZM234.743 82.6727C234.947 82.6727 235.136 82.6485 235.31 82.6C235.485 82.5418 235.625 82.4836 235.732 82.4255C236.062 82.2412 236.29 82.0133 236.416 81.7418C236.551 81.4703 236.619 81.1745 236.619 80.8545C236.619 80.583 236.585 80.297 236.517 79.9964C236.459 79.6958 236.391 79.4 236.314 79.1091C236.265 78.9345 236.222 78.7648 236.183 78.6C235.398 78.9297 234.825 79.1818 234.467 79.3564C234.117 79.5309 233.87 79.6958 233.725 79.8509C233.337 80.2582 233.143 80.6752 233.143 81.1018C233.143 81.4897 233.284 81.8436 233.565 82.1636C233.739 82.3479 233.928 82.4788 234.132 82.5564C234.336 82.6339 234.539 82.6727 234.743 82.6727ZM240.416 71.0655C240.91 73.1794 241.303 74.8812 241.594 76.1709C241.662 76.4812 241.725 76.7721 241.783 77.0436C241.967 77.9067 242.142 78.6873 242.307 79.3855C242.471 80.0739 242.67 80.8788 242.903 81.8C242.971 82.12 243.087 82.3867 243.252 82.6C243.417 82.8133 243.713 82.9782 244.139 83.0945C244.576 83.2012 245.245 83.2545 246.147 83.2545H247.005V89.9018H246.147C245.061 89.9018 244.12 89.8048 243.325 89.6109C242.539 89.4267 241.875 89.1988 241.332 88.9273C240.789 88.6461 240.348 88.3648 240.008 88.0836C239.679 87.8024 239.431 87.56 239.267 87.3564C238.501 87.783 237.744 88.0691 236.998 88.2145C236.251 88.3503 235.461 88.4182 234.627 88.4182C233.686 88.4182 232.755 88.2388 231.834 87.88C230.922 87.5115 230.117 86.9055 229.419 86.0618C228.731 85.2182 228.231 84.0788 227.921 82.6436C227.805 82.0812 227.747 81.5042 227.747 80.9127C227.747 80.1855 227.858 79.4485 228.081 78.7018C228.304 77.9552 228.682 77.2376 229.216 76.5491C229.749 75.8509 230.471 75.2206 231.383 74.6582C232.294 74.0861 233.429 73.6061 234.787 73.2182L234.597 72.3891L240.416 71.0655ZM266.727 83.2255L267.061 83.24C267.284 83.24 267.546 83.2448 267.847 83.2545C268.147 83.2545 268.409 83.2545 268.632 83.2545V89.9164C267.536 89.9164 266.63 89.8097 265.912 89.5964C265.204 89.3927 264.642 89.1552 264.225 88.8836C263.818 88.6121 263.532 88.3697 263.367 88.1564L263.119 87.8364C261.025 88.6218 258.45 89.1648 255.396 89.4655C252.341 89.7661 249.01 89.9164 245.403 89.9164V83.2545C247.226 83.2545 249.107 83.24 251.047 83.2109C252.996 83.1721 254.77 83.0848 256.37 82.9491C257.98 82.8133 259.226 82.6048 260.109 82.3236L259.003 81.9745C258.256 81.7418 257.403 81.48 256.443 81.1891C255.483 80.8885 254.62 80.6267 253.854 80.4036C253.738 80.3745 253.626 80.36 253.519 80.36C253.258 80.36 253.049 80.4861 252.894 80.7382C252.739 80.9806 252.579 81.3297 252.414 81.7855L246.858 80.36C247.449 78.1685 248.579 76.5879 250.247 75.6182C251.158 75.1139 252.094 74.8618 253.054 74.8618C253.597 74.8618 254.125 74.9394 254.639 75.0945C256.899 75.7733 259.037 76.4473 261.054 77.1164C263.081 77.7855 264.559 78.28 265.49 78.6C265.878 78.7358 266.096 78.8085 266.145 78.8182L266.77 83.2255H266.727ZM255.861 96.36L258.785 99.2691L255.861 102.193L252.952 99.2691L255.861 96.36ZM252.443 91.5745L255.643 94.76L252.443 97.96L249.258 94.76L252.443 91.5745ZM259.265 91.5745L262.465 94.76L259.265 97.96L256.079 94.76L259.265 91.5745ZM283.801 82.76C283.801 84.1273 283.462 85.3491 282.783 86.4255C282.114 87.5018 281.13 88.3503 279.83 88.9709C278.531 89.5915 276.95 89.9018 275.089 89.9018H268.019V83.2545H269.401C269.362 82.7115 269.343 82.2024 269.343 81.7273C269.343 80.1079 269.576 78.7648 270.041 77.6982C270.507 76.6315 271.093 75.7879 271.801 75.1673C272.519 74.5467 273.28 74.1103 274.085 73.8582C274.89 73.5964 275.636 73.4655 276.325 73.4655C278.41 73.4655 280.199 74.2509 281.692 75.8218C283.098 77.4121 283.801 79.3806 283.801 81.7273V82.76ZM276.369 79.72C275.893 79.72 275.496 79.8752 275.176 80.1855C274.856 80.4958 274.696 80.8739 274.696 81.32C274.696 81.5624 274.72 81.7903 274.769 82.0036C274.827 82.217 274.933 82.3915 275.089 82.5273C275.253 82.6533 275.501 82.7164 275.83 82.7164H278.085V81.32C278.085 80.8642 277.92 80.4861 277.59 80.1855C277.27 79.8752 276.863 79.72 276.369 79.72ZM276.209 68.4473L273.009 71.6327L269.823 68.4473L273.009 65.2473L276.209 68.4473ZM283.03 68.4473L279.83 71.6327L276.645 68.4473L279.83 65.2473L283.03 68.4473ZM294.798 83.2545V89.9164H293.503C292.65 89.9164 291.898 89.8194 291.249 89.6255C290.609 89.4315 290.061 89.1891 289.605 88.8982C289.149 88.6073 288.776 88.3164 288.485 88.0255C288.184 87.7345 287.889 87.3612 287.598 86.9055C287.317 86.4497 287.074 85.9018 286.87 85.2618C286.677 84.6121 286.58 83.8606 286.58 83.0073C286.58 82.2121 286.58 80.8982 286.58 79.0655C286.58 77.2327 286.58 75.3903 286.58 73.5382C286.589 71.6764 286.594 70.2267 286.594 69.1891C286.594 68.5782 286.594 68.263 286.594 68.2436H292.543V82.3236C292.543 82.663 292.655 82.9055 292.878 83.0509C293.101 83.1867 293.3 83.2545 293.474 83.2545H294.798ZM302.581 83.2545H306.697C307.531 83.2545 308.108 83.1527 308.428 82.9491C308.748 82.7358 308.908 82.3673 308.908 81.8436C308.908 81.4752 308.84 81.2182 308.704 81.0727C308.569 80.9176 308.365 80.8255 308.094 80.7964C307.832 80.7673 307.507 80.7527 307.119 80.7527C306.557 80.7527 305.897 80.9418 305.141 81.32C304.394 81.6885 303.681 82.1927 303.003 82.8327C302.954 82.8812 302.906 82.9297 302.857 82.9782C302.76 83.0655 302.668 83.1576 302.581 83.2545ZM302.435 68.2V76.04L302.406 76.2291L302.566 76.1418C304.011 75.3758 305.475 74.9927 306.959 74.9927H307.25C307.686 74.9927 308.147 75.0073 308.632 75.0364C309.117 75.0655 309.606 75.143 310.101 75.2691C310.605 75.3855 311.095 75.5842 311.57 75.8655C312.53 76.4473 313.243 77.2764 313.708 78.3527C314.086 79.2448 314.275 80.3406 314.275 81.64C314.275 82.3479 314.203 83.1333 314.057 83.9964C313.912 84.8594 313.694 85.577 313.403 86.1491C312.869 87.1867 312.113 88.0206 311.134 88.6509C310.571 89.0097 310.009 89.2812 309.446 89.4655C308.894 89.6497 308.375 89.7709 307.89 89.8291C307.415 89.8873 307.017 89.9164 306.697 89.9164H294.043V83.2545H295.759C295.992 82.9055 296.229 82.5564 296.472 82.2073V68.2H302.435Z" fill="url(#paint0_linear_2267_303)"/>
<path d="M298.758 44C295.972 43.6466 293.336 42.7121 291.092 41.2819C288.744 39.7817 286.832 37.8535 285.5 35.6427C284.172 37.8576 282.263 39.7903 279.916 41.295C277.672 42.7174 275.039 43.6451 272.258 43.9935C270.478 43.9751 268.723 43.6392 267.11 43.008C265.497 42.3768 264.061 41.4647 262.9 40.3322C260.36 37.885 258.974 34.7427 259 31.4967C258.974 28.2508 260.36 25.1085 262.9 22.6613C264.061 21.5288 265.497 20.6167 267.11 19.9855C268.723 19.3542 270.478 19.0183 272.258 19C275.039 19.3615 277.669 20.3003 279.908 21.7312C282.253 23.2322 284.163 25.1603 285.492 27.3704C286.821 25.1579 288.73 23.2275 291.076 21.7247C293.32 20.2921 295.956 19.3553 298.742 19C300.522 19.0183 302.277 19.3542 303.89 19.9854C305.503 20.6167 306.939 21.5288 308.1 22.6613C310.64 25.1085 312.026 28.2508 312 31.4967C312.026 34.7427 310.64 37.885 308.1 40.3322C306.939 41.4647 305.503 42.3768 303.89 43.008C302.277 43.6392 300.522 43.9751 298.742 43.9935L298.758 44ZM272.125 23.1983C270.92 23.2098 269.731 23.4365 268.638 23.8634C267.545 24.2902 266.573 24.9074 265.785 25.6741C264.07 27.3293 263.133 29.4532 263.149 31.6474C263.132 33.8456 264.069 35.9739 265.785 37.6337C266.574 38.4095 267.552 39.0347 268.652 39.4673C269.752 39.8999 270.95 40.1301 272.164 40.1423C276.142 40.1423 281.047 36.1011 283.714 31.5098C282.795 29.405 281.247 27.5345 279.217 26.0786C277.187 24.6228 274.745 23.6308 272.125 23.1983ZM298.882 22.9167C294.843 22.9167 289.992 26.5779 287.262 31.5098C288.259 33.6896 289.864 35.6369 291.942 37.1884C293.91 38.6626 296.312 39.6687 298.898 40.103C300.12 40.1285 301.335 39.9343 302.461 39.5333C303.587 39.1323 304.598 38.5337 305.425 37.7778C307.224 36.1406 308.246 34.0058 308.295 31.7784C308.39 29.543 307.514 27.355 305.831 25.6217C305.057 24.8172 304.09 24.1596 302.991 23.6922C301.893 23.2248 300.689 22.9583 299.459 22.9101C299.265 22.9009 299.069 22.9009 298.875 22.9101L298.882 22.9167Z" fill="#F67800" stroke="#F67800" stroke-width="2.4"/>
<path d="M237.788 2.51663L238.811 5.27199L241.575 6.29156L238.811 7.31114L237.788 10.0665L236.765 7.31114L234 6.29156L236.765 5.27199L237.788 2.51663Z" fill="#F67800"/>
<path d="M240.312 18.8747L240.994 20.7116L242.837 21.3913L240.994 22.071L240.312 23.9079L239.63 22.071L237.787 21.3913L239.63 20.7116L240.312 18.8747Z" fill="#F67800"/>
<path d="M249.782 0L250.294 1.37768L251.676 1.88747L250.294 2.39725L249.782 3.77493L249.271 2.39725L247.889 1.88747L249.271 1.37768L249.782 0Z" fill="#F67800"/>
<path d="M252.938 10.0665L254.643 14.6588L259.25 16.3581L254.643 18.0573L252.938 22.6496L251.233 18.0573L246.625 16.3581L251.233 14.6588L252.938 10.0665Z" fill="#F67800"/>
<defs>
<linearGradient id="paint0_linear_2267_303" x1="307.5" y1="78" x2="90" y2="78" gradientUnits="userSpaceOnUse">
<stop offset="0.0803767" stop-color="#F67800"/>
<stop offset="0.901165" stop-color="#FEB400"/>
</linearGradient>
</defs>
</svg>
